<?xml version="1.0" encoding="UTF-8"?>
<svg xmlns="http://www.w3.org/2000/svg" xmlns:xlink="http://www.w3.org/1999/xlink" viewBox="0 0 1018.08 1018.08">
  <defs>
    <style>
      .cls-1 {
        fill: url(#linear-gradient-3);
      }

      .cls-2 {
        fill: url(#linear-gradient-2);
      }

      .cls-3 {
        fill: url(#radial-gradient);
      }

      .cls-4 {
        fill: url(#linear-gradient);
      }

      .cls-5 {
        fill: #fff;
      }
    </style>
    <linearGradient id="linear-gradient" x1="784.255" y1="912.762" x2="1001.045" y2="1288.253" gradientTransform="translate(-455.3535 1493.0723) rotate(-4.856) scale(1 -1)" gradientUnits="userSpaceOnUse">
      <stop offset="0" stop-color="#009189"/>
      <stop offset="1" stop-color="#147bc1"/>
    </linearGradient>
    <linearGradient id="linear-gradient-2" x1="9978.519" y1="-1636.673" x2="10197.192" y2="-1257.921" gradientTransform="translate(10425.3394 3533.3603) rotate(-153.904)" gradientUnits="userSpaceOnUse">
      <stop offset="0" stop-color="#deeaa9"/>
      <stop offset="1" stop-color="#90c8e6"/>
    </linearGradient>
    <linearGradient id="linear-gradient-3" x1="1503.07" y1="1735.253" x2="1629.638" y2="1735.253" gradientTransform="translate(-609.093 2121.7305) rotate(-11.485) scale(1 -1)" gradientUnits="userSpaceOnUse">
      <stop offset="0" stop-color="#009189"/>
      <stop offset="1" stop-color="#147bc1"/>
    </linearGradient>
    <radialGradient id="radial-gradient" cx="92.977" cy="552.899" fx="92.977" fy="440.695" r="112.25" gradientTransform="translate(801.043 -321.661) rotate(-169.698) scale(1.668 -1.746) skewX(-.542)" gradientUnits="userSpaceOnUse">
      <stop offset=".159" stop-color="#ebe1a3"/>
      <stop offset=".244" stop-color="#ebdf96"/>
      <stop offset=".4" stop-color="#eedc75"/>
      <stop offset=".607" stop-color="#f2d741"/>
      <stop offset=".658" stop-color="#f4d633"/>
      <stop offset=".995" stop-color="#f4d633"/>
    </radialGradient>
  </defs>
  <g id="Layer_2" data-name="Layer 2">
    <rect width="1018.08" height="1018.08"/>
  </g>
  <g id="Layer_1" data-name="Layer 1">
    <g>
      <path class="cls-4" d="M541.963,203.35c-47.372,156.33-210.267,292.64-375.363,273.978-24.109-4.585-25.485-26.17-19.691-46.564,37.177-155.725,188.514-271.723,345.164-266.827,27.494.072,56.525,3.451,49.89,39.413h0Z"/>
      <path class="cls-2" d="M583.451,211.337c-11.012,163.33,92.716,350.969,253.182,394.983,24.089,4.694,32.988-14.913,34.785-36.076,20.301-158.974-79.822-323.382-227.558-377.085-25.651-10.16-53.903-17.807-60.409,18.179h0Z"/>
      <path class="cls-1" d="M647.281,126.136c2.146-52.298-105.48-78.823-130.509-29.823-4.488,8.79-.089,19.513,8.697,21.846,32.482,8.623,70.572,14.065,103.384,22.983,8.956,2.429,18.013-4.933,18.428-15.007h0Z"/>
      <path class="cls-3" d="M620.132,514.283c-58.306,336.246-285.244,285.108-219.777-42.978,55.542-35.042,103.005-81.643,138.244-135.754,13.831,63.848,41.806,125.236,81.533,178.733h0Z"/>
    </g>
    <g>
      <path class="cls-5" d="M46.451,815.287c0-1.734,1.387-3.293,3.293-3.293h70.545c1.906,0,3.293,1.56,3.293,3.293v14.213c0,1.734-1.387,3.293-3.293,3.293h-51.305v32.586h42.812c1.734,0,3.293,1.56,3.293,3.293v14.213c0,1.733-1.56,3.293-3.293,3.293h-42.812v43.852c0,1.734-1.56,3.293-3.293,3.293h-15.946c-1.907,0-3.293-1.56-3.293-3.293v-114.743h0Z"/>
      <path class="cls-5" d="M161.536,847.006l-15.253,3.293c-1.56.347-3.293-.693-3.466-2.253l-1.04-8.494c-.173-1.387.173-2.426.867-3.119l24.959-20.973h12.133c1.734,0,3.12,1.56,3.12,3.293v111.277c0,1.734-1.387,3.293-3.12,3.293h-14.906c-1.907,0-3.293-1.56-3.293-3.293v-83.024h0Z"/>
      <path class="cls-5" d="M223.409,815.287c0-1.734,1.387-3.293,3.293-3.293h49.572c20.799,0,37.786,16.64,37.786,37.265,0,15.946-10.573,28.946-25.652,35.013l23.745,44.025c1.214,2.254,0,5.027-2.946,5.027h-18.2c-1.56,0-2.426-.867-2.773-1.56l-23.053-45.933h-19.239v44.199c0,1.734-1.56,3.293-3.293,3.293h-15.946c-1.907,0-3.293-1.56-3.293-3.293v-114.743h0ZM274.368,867.286c9.186,0,17.16-7.973,17.16-17.679,0-9.187-7.974-16.813-17.16-16.813h-28.252v34.492h28.252Z"/>
      <path class="cls-5" d="M338.145,915.298l8.84-8.493c1.56-1.387,3.12-1.387,4.506,0,.52.693,10.746,9.36,21.319,9.36,9.359,0,18.373-6.76,18.373-16.293,0-9.013-8.32-17.16-23.92-17.16h-9.706c-1.906,0-3.293-1.387-3.293-3.466v-10.92c0-2.253,1.214-3.466,3.293-3.466h9.706c14.213,0,21.493-7.106,21.493-15.946,0-9.533-7.973-15.946-16.813-15.946-9.013,0-14.559,4.853-17.507,8.319-1.214,1.387-3.119,1.56-4.68.173l-8.493-7.973c-1.387-1.214-1.214-3.293,0-4.506,0,0,13.172-15.253,32.586-15.253,20.106,0,36.919,12.306,36.919,31.719,0,13.346-10.053,23.399-17.853,27.039v.52c8.146,3.466,20.973,12.826,20.973,28.252,0,19.586-15.946,33.799-39.866,33.799-21.666,0-32.239-10.92-36.052-15.426-1.04-1.214-.867-3.12.173-4.333h.001Z"/>
      <path class="cls-5" d="M446.642,815.287c0-1.734,1.387-3.293,3.293-3.293h70.545c1.907,0,3.293,1.56,3.293,3.293v14.213c0,1.734-1.386,3.293-3.293,3.293h-51.305v32.586h42.812c1.734,0,3.294,1.56,3.294,3.293v14.213c0,1.733-1.56,3.293-3.294,3.293h-42.812v43.852c0,1.734-1.56,3.293-3.293,3.293h-15.946c-1.907,0-3.293-1.56-3.293-3.293v-114.743h0Z"/>
      <path class="cls-5" d="M553.06,815.287c0-1.734,1.387-3.293,3.294-3.293h15.946c1.734,0,3.293,1.56,3.293,3.293v97.237h44.199c1.907,0,3.294,1.56,3.294,3.293v14.213c0,1.734-1.387,3.293-3.294,3.293h-63.437c-1.907,0-3.294-1.56-3.294-3.293v-114.743h0Z"/>
      <path class="cls-5" d="M663.986,874.912l-39.519-57.892c-1.387-2.253,0-5.026,2.773-5.026h17.68c1.387,0,2.253.866,2.773,1.56l27.733,39.866,27.732-39.866c.52-.693,1.387-1.56,2.773-1.56h17.854c2.773,0,4.159,2.773,2.773,5.026l-40.039,57.718v55.292c0,1.734-1.56,3.293-3.294,3.293h-15.946c-1.907,0-3.293-1.56-3.293-3.293v-55.119h-.001Z"/>
      <path class="cls-5" d="M749.258,906.458c7.8,0,14.387,6.587,14.387,14.386s-6.587,14.213-14.387,14.213-14.213-6.413-14.213-14.213,6.413-14.386,14.213-14.386Z"/>
      <path class="cls-5" d="M792.76,815.287c0-1.734,1.56-3.293,3.294-3.293h16.119c1.734,0,3.293,1.56,3.293,3.293v114.743c0,1.734-1.559,3.293-3.293,3.293h-16.119c-1.734,0-3.294-1.56-3.294-3.293v-114.743Z"/>
      <path class="cls-5" d="M909.23,810.261c34.666,0,62.398,27.906,62.398,62.571s-27.732,62.226-62.398,62.226-62.225-27.559-62.225-62.226,27.56-62.571,62.225-62.571ZM909.23,912.524c21.84,0,39.866-17.853,39.866-39.693s-18.026-40.039-39.866-40.039-39.693,18.2-39.693,40.039,17.853,39.693,39.693,39.693Z"/>
    </g>
  </g>
</svg>