<?xml version="1.0" encoding="UTF-8"?>
<svg xmlns="http://www.w3.org/2000/svg" viewBox="0 0 1000 1000"
     preserveAspectRatio="none" width="100%" height="100%">
  <defs>
    <style>
      .margin-line { stroke: #00BFFF; stroke-width: 0.5; stroke-dasharray: 4,4; fill: none; opacity: 0.6; }
      .column-line { stroke: #00BFFF; stroke-width: 0.3; fill: none; opacity: 0.35; }
      .gutter-fill { fill: #FF6B00; opacity: 0.06; }
      .zone-line { stroke: #FF4081; stroke-width: 0.5; stroke-dasharray: 6,3; fill: none; opacity: 0.5; }
      .zone-label { font-family: sans-serif; font-size: 9px; fill: #FF4081; opacity: 0.5; }
      .col-label { font-family: sans-serif; font-size: 7px; fill: #00BFFF; opacity: 0.4; text-anchor: middle; }
      .margin-label { font-family: sans-serif; font-size: 7px; fill: #00BFFF; opacity: 0.4; }
      .info-text { font-family: sans-serif; font-size: 8px; fill: #666666; opacity: 0.5; }
    </style>
  </defs>
  <!-- F1R3FLY Brand Construction Grid -->
  <rect x="83" y="83" width="834" height="834" class="margin-line" />
  <line x1="83" y1="83" x2="83" y2="917" class="column-line" />
  <line x1="205.3" y1="83" x2="205.3" y2="917" class="column-line" />
  <text x="144.2" y="78" class="col-label">1</text>
  <rect x="205.3" y="83" width="20" height="834" class="gutter-fill" />
  <line x1="225.3" y1="83" x2="225.3" y2="917" class="column-line" />
  <line x1="347.7" y1="83" x2="347.7" y2="917" class="column-line" />
  <text x="286.5" y="78" class="col-label">2</text>
  <rect x="347.7" y="83" width="20" height="834" class="gutter-fill" />
  <line x1="367.7" y1="83" x2="367.7" y2="917" class="column-line" />
  <line x1="490" y1="83" x2="490" y2="917" class="column-line" />
  <text x="428.8" y="78" class="col-label">3</text>
  <rect x="490" y="83" width="20" height="834" class="gutter-fill" />
  <line x1="510" y1="83" x2="510" y2="917" class="column-line" />
  <line x1="632.3" y1="83" x2="632.3" y2="917" class="column-line" />
  <text x="571.2" y="78" class="col-label">4</text>
  <rect x="632.3" y="83" width="20" height="834" class="gutter-fill" />
  <line x1="652.3" y1="83" x2="652.3" y2="917" class="column-line" />
  <line x1="774.7" y1="83" x2="774.7" y2="917" class="column-line" />
  <text x="713.5" y="78" class="col-label">5</text>
  <rect x="774.7" y="83" width="20" height="834" class="gutter-fill" />
  <line x1="794.7" y1="83" x2="794.7" y2="917" class="column-line" />
  <line x1="917" y1="83" x2="917" y2="917" class="column-line" />
  <text x="855.8" y="78" class="col-label">6</text>
  <line x1="83" y1="200" x2="917" y2="200" class="zone-line" />
  <text x="922" y="203" class="zone-label">title zone (20%)</text>
  <line x1="83" y1="220" x2="917" y2="220" class="zone-line" stroke-dasharray="2,2" />
  <text x="922" y="223" class="zone-label">gradient line</text>
  <line x1="83" y1="270" x2="917" y2="270" class="zone-line" stroke-dasharray="2,2" />
  <text x="922" y="273" class="zone-label">eyebrow / subheader</text>
  <line x1="83" y1="310" x2="917" y2="310" class="zone-line" />
  <text x="922" y="313" class="zone-label">content start</text>
  <line x1="83" y1="930" x2="917" y2="930" class="zone-line" />
  <text x="922" y="933" class="zone-label">footer (93%)</text>
  <text x="41.5" y="500" class="margin-label" text-anchor="middle" transform="rotate(-90 41.5 500)">8.3% margin</text>
  <text x="500" y="68" class="margin-label" text-anchor="middle">8.3% margin</text>
  <text x="5" y="990" class="info-text">F1R3FLY Brand Grid</text>
</svg>