<?xml version="1.0" encoding="utf-8"?>
<!-- Generator: Adobe Illustrator 30.2.1, SVG Export Plug-In . SVG Version: 9.03 Build 0)  -->
<svg version="1.1" id="Layer_1" xmlns="http://www.w3.org/2000/svg" xmlns:xlink="http://www.w3.org/1999/xlink" x="0px" y="0px"
	 viewBox="0 0 693.01 693.01" style="enable-background:new 0 0 693.01 693.01;" xml:space="preserve">
<style type="text/css">
	.st0{clip-path:url(#SVGID_00000026858246390128599050000000294624759142392724_);fill:#010101;}
	.st1{clip-path:url(#SVGID_00000011714290762505269180000005600839814808144299_);fill:#F3D734;}
	.st2{clip-path:url(#SVGID_00000011714290762505269180000005600839814808144299_);fill:#56A0D8;}
	.st3{clip-path:url(#SVGID_00000011714290762505269180000005600839814808144299_);fill:#ADCEC8;}
</style>
<g>
	<defs>
		<rect id="SVGID_1_" width="693.01" height="693.01"/>
	</defs>
	<clipPath id="SVGID_00000145021896500073520660000013359439097078444470_">
		<use xlink:href="#SVGID_1_"  style="overflow:visible;"/>
	</clipPath>
	<path style="clip-path:url(#SVGID_00000145021896500073520660000013359439097078444470_);fill:#010101;" d="M346.5,693
		c191.37,0,346.5-155.13,346.5-346.5S537.88,0,346.5,0S0,155.13,0,346.5S155.13,693,346.5,693"/>
</g>
<g>
	<defs>
		<rect id="SVGID_00000140735124789474372500000011660573805138090411_" x="98.4" y="72.78" width="496.22" height="547.46"/>
	</defs>
	<clipPath id="SVGID_00000147940428486770122910000006582573011883037597_">
		<use xlink:href="#SVGID_00000140735124789474372500000011660573805138090411_"  style="overflow:visible;"/>
	</clipPath>
	<path style="clip-path:url(#SVGID_00000147940428486770122910000006582573011883037597_);fill:#F3D734;" d="M282.93,591.87
		c-22.35-39.26-29.15-161.19-21.92-207.24c1.42-9.12,3.5-18.1,6.24-26.81c18.91-5.66,37.12-14.62,54.32-26.69
		c17.11-12.01,32.42-26.55,45.68-43.36c1.66-2.11,5.05-1.1,5.26,1.58c2.59,31.91,11.11,62.97,25.27,90.48l0.06,0.1l0.05,0.08
		c4.33,8.3,9.03,16.16,14.08,23.56c-0.51,5.71-1.46,11.39-2.39,17.02c-5.56,32.51-21.69,136.63-28.38,164.44
		C364.69,630.08,307.12,631.39,282.93,591.87"/>
	<path style="clip-path:url(#SVGID_00000147940428486770122910000006582573011883037597_);fill:#56A0D8;" d="M388.81,170.89
		c6.66-23.92-13.28-27.92-32.36-29.59c-48.91-5.05-98.87,5.23-141.99,28.7c-53.07,28.64-93.17,75.62-112.89,131.32
		c-4.85,13.14-5.9,27,9.85,32.33c0.37,0.13,0.75,0.23,1.14,0.31c117.2,25.27,242.22-50.88,276.17-162.81L388.81,170.89z"/>
	<path style="clip-path:url(#SVGID_00000147940428486770122910000006582573011883037597_);fill:#ADCEC8;" d="M423.42,200.11
		c-15.03,60.75-4.98,126.66,27.88,180.52c24.93,40.22,61.41,75.61,106.28,93.09c0.4,0.15,0.82,0.29,1.24,0.39
		c15.53,3.86,22.49-9.11,26.02-22.01c26.28-86.42-1.67-185.18-69.89-245.52c-17.46-15.29-36.91-29.21-58.63-38.12
		c-22.98-8.44-28.56,13.88-32.84,31.37L423.42,200.11z"/>
	<path style="clip-path:url(#SVGID_00000147940428486770122910000006582573011883037597_);fill:#56A0D8;" d="M472.81,124
		c8.92-35.93-63.92-69.82-88.65-39.48c-4.44,5.44-2.82,13.51,3.11,16.39c21.89,10.66,48.22,19.92,70.32,30.83
		C463.62,134.72,471.09,130.93,472.81,124"/>
</g>
</svg>
