<?xml version="1.0" encoding="UTF-8"?>
<svg id="Layer_1" xmlns="http://www.w3.org/2000/svg" xmlns:xlink="http://www.w3.org/1999/xlink" version="1.1" viewBox="0 0 927.632 854.897">
  <!-- Generator: Adobe Illustrator 30.2.1, SVG Export Plug-In . SVG Version: 2.1.1 Build 1)  -->
  <defs>
    <style>
      .st0 {
        fill: url(#linear-gradient2);
      }

      .st1 {
        fill: url(#linear-gradient1);
      }

      .st2 {
        fill: url(#radial-gradient);
      }

      .st3 {
        fill: url(#linear-gradient);
      }
    </style>
    <linearGradient id="linear-gradient" x1="664.295" y1="393.502" x2="939.785" y2="-83.659" gradientTransform="translate(-562.084 231.887) rotate(-4.856)" gradientUnits="userSpaceOnUse">
      <stop offset="0" stop-color="#009188"/>
      <stop offset="1" stop-color="#007bc4"/>
    </linearGradient>
    <linearGradient id="linear-gradient1" x1="9241.693" y1="2773.288" x2="9519.573" y2="2291.986" gradientTransform="translate(10282.005 2265.306) rotate(-153.904) scale(1 -1)" gradientUnits="userSpaceOnUse">
      <stop offset="0" stop-color="#deffac"/>
      <stop offset="1" stop-color="#8fc8e7"/>
    </linearGradient>
    <linearGradient id="linear-gradient2" x1="1467.281" y1="-491.534" x2="1628.118" y2="-491.534" gradientTransform="translate(-864.349 839.329) rotate(-11.485)" xlink:href="#linear-gradient"/>
    <radialGradient id="radial-gradient" cx="-400.055" cy="1037.456" fx="-400.055" fy="894.871" r="142.643" gradientTransform="translate(-531.859 2341.149) rotate(-169.698) scale(1.668 1.746) skewX(.542)" gradientUnits="userSpaceOnUse">
      <stop offset=".159" stop-color="#ebe1a3"/>
      <stop offset=".243" stop-color="#ebdf96"/>
      <stop offset=".395" stop-color="#eedc75"/>
      <stop offset=".598" stop-color="#f1d741"/>
      <stop offset=".658" stop-color="#f3d630"/>
      <stop offset=".995" stop-color="#f3d630"/>
    </radialGradient>
  </defs>
  <path class="st3" d="M505.653,168.922c-60.198,198.658-267.2,371.876-476.998,348.161-30.637-5.826-32.385-33.255-25.023-59.172C50.876,260.022,243.189,112.616,442.254,118.837c34.938.091,71.83,4.386,63.399,50.084Z"/>
  <path class="st1" d="M558.375,179.071c-13.994,207.553,117.82,445.998,321.734,501.929,30.611,5.965,41.92-18.951,44.203-45.845,25.797-202.018-101.435-410.942-289.172-479.185-32.597-12.91-68.498-22.629-76.766,23.101Z"/>
  <path class="st0" d="M639.487,70.8c2.727-66.458-134.039-100.165-165.846-37.898-5.703,11.17-.113,24.796,11.052,27.761,41.276,10.958,89.68,17.873,131.376,29.206,11.38,3.087,22.89-6.268,23.418-19.07Z"/>
  <path class="st2" d="M604.988,564.044c-74.093,427.289-362.477,362.305-279.285-54.615,70.581-44.531,130.895-103.749,175.676-172.512,17.576,81.135,53.125,159.145,103.609,227.127Z"/>
</svg>