<?xml version="1.0" encoding="utf-8"?>
<!-- Generator: Adobe Illustrator 30.2.1, SVG Export Plug-In . SVG Version: 9.03 Build 0)  -->
<svg version="1.1" id="Layer_1" xmlns="http://www.w3.org/2000/svg" xmlns:xlink="http://www.w3.org/1999/xlink" x="0px" y="0px"
	 viewBox="0 0 924.27 1019.75" style="enable-background:new 0 0 924.27 1019.75;" xml:space="preserve">
<style type="text/css">
	.st0{fill:#F3D632;}
	.st1{fill:#55A0D8;}
	.st2{fill:#ACCEC8;}
</style>
<g>
	<g>
		<path class="st0" d="M343.73,966.92c-41.62-73.13-54.31-300.26-40.82-386.03c2.64-16.98,6.5-33.71,11.61-49.92
			c35.21-10.55,69.15-27.25,101.17-49.73c31.86-22.37,60.4-49.47,85.09-80.75c3.11-3.94,9.4-2.06,9.8,2.94
			c4.81,59.44,20.69,117.28,47.07,168.52l0.09,0.19l0.09,0.16c8.09,15.47,16.83,30.09,26.22,43.89c-0.94,10.64-2.7,21.21-4.44,31.71
			c-10.36,60.55-40.42,254.49-52.87,306.29C496,1038.08,388.77,1040.52,343.73,966.92z"/>
		<path class="st1" d="M540.94,182.76c12.42-44.55-24.74-52-60.28-55.11c-91.11-9.41-184.16,9.74-264.47,53.45
			C117.33,234.46,42.64,321.95,5.91,425.72c-9.03,24.49-11,50.29,18.35,60.21c0.69,0.23,1.41,0.42,2.12,0.58
			c218.32,47.08,451.18-94.75,514.43-303.25L540.94,182.76z"/>
		<path class="st2" d="M605.41,237.2c-27.98,113.17-9.28,235.93,51.94,336.25c46.42,74.91,114.38,140.82,197.98,173.38
			c0.74,0.29,1.52,0.55,2.29,0.74c28.95,7.18,41.88-16.97,48.48-40.99c48.94-160.97-3.13-344.94-130.19-457.34
			c-32.54-28.48-68.75-54.4-109.2-71c-42.8-15.73-53.21,25.87-61.17,58.44L605.41,237.2z"/>
		<path class="st1" d="M697.4,95.43C714,28.5,578.34-34.62,532.28,21.89c-8.26,10.14-5.25,25.16,5.78,30.53
			c40.78,19.85,89.83,37.1,130.97,57.42C680.27,115.39,694.2,108.32,697.4,95.43z"/>
	</g>
</g>
</svg>
