<?xml version="1.0" encoding="utf-8"?>
<!-- Generator: Adobe Illustrator 30.2.1, SVG Export Plug-In . SVG Version: 9.03 Build 0)  -->
<svg version="1.1" id="Layer_1" xmlns="http://www.w3.org/2000/svg" xmlns:xlink="http://www.w3.org/1999/xlink" x="0px" y="0px"
	 viewBox="0 0 1542.69 1372.07" style="enable-background:new 0 0 1542.69 1372.07;" xml:space="preserve">
<g>
	<path d="M0,1163.58c0-3.02,2.41-5.73,5.73-5.73h122.8c3.32,0,5.73,2.72,5.73,5.73v24.74c0,3.02-2.41,5.73-5.73,5.73H39.22v56.72
		h74.53c3.02,0,5.73,2.72,5.73,5.73v24.74c0,3.02-2.72,5.73-5.73,5.73H39.22v76.34c0,3.02-2.72,5.73-5.73,5.73H5.73
		c-3.32,0-5.73-2.71-5.73-5.73V1163.58z"/>
	<path d="M192.8,1218.79l-26.55,5.73c-2.72,0.6-5.73-1.21-6.03-3.92l-1.81-14.79c-0.3-2.41,0.3-4.22,1.51-5.43l43.45-36.51h21.12
		c3.02,0,5.43,2.71,5.43,5.73v193.71c0,3.02-2.41,5.73-5.43,5.73h-25.95c-3.32,0-5.73-2.71-5.73-5.73V1218.79z"/>
	<path d="M292.97,1163.58c0-3.02,2.41-5.73,5.73-5.73H385c36.21,0,65.78,28.97,65.78,64.87c0,27.76-18.41,50.39-44.66,60.95
		l41.34,76.64c2.11,3.92,0,8.75-5.13,8.75h-31.68c-2.72,0-4.22-1.51-4.83-2.71l-40.13-79.96h-33.49v76.94
		c0,3.02-2.72,5.73-5.73,5.73H298.7c-3.32,0-5.73-2.71-5.73-5.73V1163.58z M381.68,1254.1c15.99,0,29.87-13.88,29.87-30.78
		c0-15.99-13.88-29.27-29.87-29.27h-49.18v60.04H381.68z"/>
	<path d="M485.16,1337.67l15.39-14.79c2.72-2.41,5.43-2.41,7.84,0c0.91,1.21,18.71,16.29,37.11,16.29
		c16.29,0,31.98-11.77,31.98-28.36c0-15.69-14.48-29.87-41.64-29.87h-16.9c-3.32,0-5.73-2.41-5.73-6.04v-19.01
		c0-3.92,2.11-6.03,5.73-6.03h16.9c24.74,0,37.41-12.37,37.41-27.76c0-16.59-13.88-27.76-29.27-27.76
		c-15.69,0-25.34,8.45-30.47,14.48c-2.11,2.41-5.43,2.71-8.15,0.3l-14.78-13.88c-2.41-2.11-2.11-5.73,0-7.84
		c0,0,22.93-26.55,56.72-26.55c35,0,64.27,21.42,64.27,55.22c0,23.23-17.5,40.73-31.08,47.07v0.91
		c14.18,6.03,36.51,22.33,36.51,49.18c0,34.09-27.76,58.84-69.4,58.84c-37.72,0-56.12-19.01-62.76-26.85
		C483.05,1343.11,483.35,1339.79,485.16,1337.67z"/>
	<path d="M666.49,1163.58c0-3.02,2.41-5.73,5.73-5.73h122.8c3.32,0,5.73,2.72,5.73,5.73v24.74c0,3.02-2.41,5.73-5.73,5.73h-89.31
		v56.72h74.53c3.02,0,5.73,2.72,5.73,5.73v24.74c0,3.02-2.72,5.73-5.73,5.73h-74.53v76.34c0,3.02-2.72,5.73-5.73,5.73h-27.76
		c-3.32,0-5.73-2.71-5.73-5.73V1163.58z"/>
	<path d="M844.2,1163.58c0-3.02,2.41-5.73,5.73-5.73h27.76c3.02,0,5.73,2.72,5.73,5.73v169.27h76.94c3.32,0,5.73,2.72,5.73,5.73
		v24.74c0,3.02-2.41,5.73-5.73,5.73H849.94c-3.32,0-5.73-2.71-5.73-5.73V1163.58z"/>
	<path d="M1029.76,1267.37l-68.79-100.78c-2.41-3.92,0-8.75,4.83-8.75h30.78c2.41,0,3.92,1.51,4.83,2.72l48.28,69.4l48.28-69.4
		c0.91-1.21,2.41-2.72,4.83-2.72h31.08c4.83,0,7.24,4.83,4.83,8.75l-69.7,100.48v96.25c0,3.02-2.72,5.73-5.73,5.73h-27.76
		c-3.32,0-5.73-2.71-5.73-5.73V1267.37z"/>
	<path d="M1170.67,1322.29c13.58,0,25.04,11.47,25.04,25.04c0,13.58-11.46,24.74-25.04,24.74s-24.74-11.16-24.74-24.74
		C1145.92,1333.75,1157.09,1322.29,1170.67,1322.29z"/>
	<path d="M1238.85,1163.58c0-3.02,2.72-5.73,5.73-5.73h28.06c3.02,0,5.73,2.72,5.73,5.73v199.74c0,3.02-2.71,5.73-5.73,5.73h-28.06
		c-3.02,0-5.73-2.71-5.73-5.73V1163.58z"/>
	<path d="M1434.06,1154.83c60.34,0,108.62,48.58,108.62,108.92s-48.28,108.32-108.62,108.32c-60.35,0-108.32-47.97-108.32-108.32
		S1373.72,1154.83,1434.06,1154.83z M1434.06,1332.85c38.02,0,69.4-31.08,69.4-69.1s-31.38-69.7-69.4-69.7s-69.1,31.68-69.1,69.7
		S1396.05,1332.85,1434.06,1332.85z"/>
</g>
<g>
	<g>
		<path d="M652.26,966.92c-41.62-73.13-54.31-300.26-40.82-386.03c2.64-16.98,6.5-33.71,11.61-49.92
			c35.21-10.55,69.15-27.25,101.17-49.73c31.86-22.37,60.4-49.47,85.09-80.75c3.11-3.94,9.4-2.06,9.8,2.94
			c4.81,59.44,20.69,117.28,47.07,168.52l0.09,0.19l0.09,0.16c8.09,15.47,16.83,30.09,26.22,43.89c-0.94,10.64-2.7,21.21-4.44,31.71
			c-10.36,60.55-40.42,254.49-52.87,306.29C804.54,1038.08,697.31,1040.52,652.26,966.92z"/>
		<path d="M849.47,182.76c12.42-44.55-24.74-52-60.28-55.11c-91.11-9.41-184.16,9.74-264.47,53.45
			c-98.85,53.37-173.54,140.85-210.27,244.62c-9.03,24.49-11,50.29,18.35,60.21c0.69,0.23,1.41,0.42,2.12,0.58
			c218.32,47.08,451.18-94.75,514.43-303.25L849.47,182.76z"/>
		<path d="M913.94,237.2c-27.98,113.17-9.28,235.93,51.94,336.25c46.42,74.91,114.38,140.82,197.98,173.38
			c0.74,0.29,1.52,0.55,2.29,0.74c28.95,7.18,41.88-16.97,48.48-40.99c48.94-160.97-3.13-344.94-130.19-457.34
			c-32.54-28.48-68.75-54.4-109.2-71c-42.8-15.73-53.21,25.87-61.17,58.44L913.94,237.2z"/>
		<path d="M1005.94,95.43c16.6-66.92-119.06-130.05-165.12-73.53c-8.26,10.14-5.25,25.16,5.78,30.53
			c40.78,19.85,89.83,37.1,130.97,57.42C988.8,115.39,1002.74,108.32,1005.94,95.43z"/>
	</g>
</g>
</svg>
