<?xml version="1.0" encoding="UTF-8"?>
<svg xmlns="http://www.w3.org/2000/svg" xmlns:xlink="http://www.w3.org/1999/xlink"
     viewBox="0 0 1080 1080" width="1080" height="1080">
  <title>F1R3FLY.IO — Announcement</title>
  <defs>
    <linearGradient id="brand_gradient_h" x1="0%" y1="0%" x2="100%" y2="0%">
      <stop offset="0%" stop-color="#F3D630"/>
      <stop offset="100%" stop-color="#3FA9F5"/>
    </linearGradient>
    <linearGradient id="bg_teal" x1="0%" y1="0%" x2="100%" y2="0%">
      <stop offset="0%" stop-color="#002624"/><stop offset="100%" stop-color="#00294b"/>
    </linearGradient>
    <linearGradient id="bg_purple" x1="0%" y1="0%" x2="100%" y2="0%">
      <stop offset="0%" stop-color="#002537"/><stop offset="100%" stop-color="#021135"/>
    </linearGradient>
    <!-- Orb glow: 8 stops to smooth the navy transition where banding is worst -->
    <radialGradient id="orb_glow" cx="85%" cy="20%" r="60%">
      <stop offset="0%"   stop-color="#3FA9F5"     stop-opacity="0.55"/>
      <stop offset="12%"  stop-color="#2A8FD8"   stop-opacity="0.52"/>
      <stop offset="24%"  stop-color="#15578A"   stop-opacity="0.48"/>
      <stop offset="36%"  stop-color="#003D6E"   stop-opacity="0.42"/>
      <stop offset="48%"  stop-color="#00294b"   stop-opacity="0.34"/>
      <stop offset="62%"  stop-color="#001a30"   stop-opacity="0.22"/>
      <stop offset="80%"  stop-color="#0d0d12"   stop-opacity="0.08"/>
      <stop offset="100%" stop-color="#0A0A0A"   stop-opacity="0"/>
    </radialGradient>
    <radialGradient id="orb_glow_light" cx="85%" cy="20%" r="55%">
      <stop offset="0%"   stop-color="#3FA9F5" stop-opacity="0.30"/>
      <stop offset="20%"  stop-color="#3FA9F5" stop-opacity="0.22"/>
      <stop offset="45%"  stop-color="#3FA9F5" stop-opacity="0.12"/>
      <stop offset="75%"  stop-color="#3FA9F5" stop-opacity="0.04"/>
      <stop offset="100%" stop-color="#FFFFFF" stop-opacity="0"/>
    </radialGradient>
    <!-- Brand ellipse: 7 stops -->
    <radialGradient id="brand_ellipse_fill" cx="30%" cy="40%" r="70%">
      <stop offset="0%"   stop-color="#F3D630" stop-opacity="0.85"/>
      <stop offset="20%"  stop-color="#C8C150"  stop-opacity="0.75"/>
      <stop offset="40%"  stop-color="#85B080"  stop-opacity="0.65"/>
      <stop offset="55%"  stop-color="#5DA9C0"  stop-opacity="0.55"/>
      <stop offset="70%"  stop-color="#3FA9F5"    stop-opacity="0.40"/>
      <stop offset="85%"  stop-color="#1E5F94"  stop-opacity="0.18"/>
      <stop offset="100%" stop-color="#3FA9F5"    stop-opacity="0"/>
    </radialGradient>
    <!-- Dither: fine grayscale noise overlay at very low opacity.
         Breaks up 8-bit color bands by randomizing each pixel's rounding step.
         Standard technique used across modern UI design. -->
    <filter id="dither" x="0%" y="0%" width="100%" height="100%" color-interpolation-filters="sRGB">
      <feTurbulence type="fractalNoise" baseFrequency="2.5" numOctaves="2" seed="7" stitchTiles="stitch"/>
      <feColorMatrix values="0 0 0 0 0.5
                             0 0 0 0 0.5
                             0 0 0 0 0.5
                             0 0 0 1 0"/>
    </filter>
  </defs>
  <style>
    .thin { font-family: 'Brandon Text Thin', 'Brandon Grotesque Thin', 'Josefin Sans Thin', 'Josefin Sans', 'Helvetica Neue', sans-serif; font-weight: 100; }
    .light { font-family: 'Josefin Sans Light', 'Josefin Sans', 'Helvetica Neue', sans-serif; font-weight: 300; }
    .bold { font-family: 'Josefin Sans', 'Helvetica Neue', sans-serif; font-weight: 700; letter-spacing: 0.04em; }
    .eyebrow { font-family: 'Josefin Sans', 'Helvetica Neue', sans-serif; font-weight: 700; letter-spacing: 0.10em; }
    .body { font-family: 'Source Sans 3 Light', 'Source Sans 3', 'Source Sans Pro', 'Helvetica Neue', sans-serif; font-weight: 300; }
    .body-medium { font-family: 'Source Sans 3', 'Source Sans Pro', 'Helvetica Neue', sans-serif; font-weight: 400; }
    .handle { font-family: 'Josefin Sans', 'Helvetica Neue', sans-serif; font-weight: 700; letter-spacing: 0.10em; font-size: 18px; }
    .stat-display { font-family: 'Brandon Grotesque', 'Josefin Sans', 'Helvetica Neue', sans-serif; font-weight: 700; }
    .quote-mark { font-family: Georgia, 'Times New Roman', serif; }
  </style>
  <rect width="1080" height="1080" fill="url(#bg_teal)"/>
  <rect width="1080" height="1080" filter="url(#dither)" opacity="0.15"/>
  <text x="100" y="289" font-family="'Source Sans 3', 'Source Sans Pro', sans-serif" font-weight="700" font-size="26" fill="#F3D630" letter-spacing="2.2">PRODUCT UPDATE</text>
  <rect x="100" y="307" width="120" height="1" fill="url(#brand_gradient_h)"/>
  <g fill="#FFFFFF" data-outlined="Brandon Text Thin 78px" data-text="F1R3FLY Core 2.0"><g transform="translate(100.00 462) scale(0.078000 -0.078000)"><path d="M108 7C108 3 111 0 115 0H119C123 0 126 3 126 7V330H474C478 330 481 333 481 337V341C481 345 478 348 474 348H126V682H522C526 682 529 685 529 689V693C529 697 526 700 522 700H115C111 700 108 697 108 693Z"/></g><g transform="translate(143.76 462) scale(0.078000 -0.078000)"><path d="M214 7C214 3 217 0 221 0H225C229 0 232 3 232 7V697C232 703 227 707 221 703L32 564C27 561 28 559 29 557L35 550C37 547 40 547 43 549L214 676Z"/></g><g transform="translate(170.67 462) scale(0.078000 -0.078000)"><path d="M108 7C108 3 111 0 115 0H119C122 0 125 3 125 7V267H353C362 267 370 267 379 268L538 0C539 -2 541 -4 544 -3L553 2C556 4 556 7 554 10L398 271C501 290 580 375 580 486C580 610 477 700 352 700H115C111 700 108 697 108 693ZM125 284V682H352C468 682 563 600 563 486C563 370 468 284 353 284Z"/></g><g transform="translate(220.67 462) scale(0.078000 -0.078000)"><path d="M65 82C88 57 147 -10 275 -10C419 -10 508 77 508 192C508 268 451 343 366 365C435 386 491 450 491 532C491 635 412 710 293 710C158 710 88 617 88 617C86 614 87 611 91 609L97 605C100 603 103 604 105 607C105 607 169 692 293 692C402 692 473 624 473 532C473 437 394 373 309 373H170C166 373 163 370 163 366V362C163 357 166 354 170 354H309C419 354 490 274 490 192C490 87 410 8 275 8C156 8 102 71 79 95C77 97 74 99 70 96L65 92C62 89 62 87 65 82Z"/></g><g transform="translate(266.06 462) scale(0.078000 -0.078000)"><path d="M108 7C108 3 111 0 115 0H119C123 0 126 3 126 7V330H474C478 330 481 333 481 337V341C481 345 478 348 474 348H126V682H522C526 682 529 685 529 689V693C529 697 526 700 522 700H115C111 700 108 697 108 693Z"/></g><g transform="translate(309.82 462) scale(0.078000 -0.078000)"><path d="M108 7C108 3 111 0 115 0H474C478 0 481 3 481 7V11C481 15 478 18 474 18H125V693C125 697 122 700 119 700H115C111 700 108 697 108 693Z"/></g><g transform="translate(348.51 462) scale(0.078000 -0.078000)"><path d="M267 7C267 3 270 0 274 0H278C282 0 285 3 285 7V344L549 688C551 691 552 694 548 697L542 701C539 703 536 701 534 698L276 359L18 698C16 700 14 703 10 701L4 697C0 694 1 691 3 688L267 343Z"/></g><g transform="translate(410.28 462) scale(0.078000 -0.078000)"><path d="M60 349C60 148 222 -10 423 -10C512 -10 598 22 667 88C669 90 669 93 667 95L662 101C660 104 656 103 654 101C587 40 508 8 423 8C232 8 78 158 78 349C78 540 232 692 423 692C519 692 589 659 654 603C656 601 659 600 662 603L667 609C669 612 668 615 666 617C598 674 525 710 423 710C222 710 60 550 60 349Z"/></g><g transform="translate(466.76 462) scale(0.078000 -0.078000)"><path d="M55 232C55 96 157 -11 288 -11C420 -11 522 96 522 232C522 366 420 472 288 472C157 472 55 366 55 232ZM73 232C73 355 168 454 288 454C409 454 504 355 504 232C504 107 409 7 288 7C168 7 73 107 73 232Z"/></g><g transform="translate(511.76 462) scale(0.078000 -0.078000)"><path d="M88 8C88 3 90 0 95 0H99C104 0 106 3 106 8V362C115 376 165 454 258 454C303 454 326 440 332 436C337 433 342 436 343 438L345 442C347 446 347 450 343 453C335 458 311 472 258 472C181 472 129 425 106 393V454C106 459 104 462 99 462H95C90 462 88 459 88 454Z"/></g><g transform="translate(540.31 462) scale(0.078000 -0.078000)"><path d="M74 223H480C482 223 486 226 487 228C491 233 492 254 492 262C492 387 406 472 283 472C142 472 56 367 56 233C56 97 142 -11 283 -11C360 -11 422 21 452 43C454 45 456 47 454 50L450 57C449 59 445 61 441 58C415 37 355 7 283 7C157 7 77 103 74 223ZM74 241C78 359 157 454 283 454C391 454 474 376 474 262C474 257 474 249 473 241Z"/></g><g transform="translate(601.23 462) scale(0.078000 -0.078000)"><path d="M45 12C40 8 43 0 50 0H468C473 0 476 3 476 7V11C476 15 473 19 468 19H78L351 274C428 346 481 418 481 509C481 617 404 710 268 710C128 710 74 610 74 610C71 605 73 603 76 600L83 596C85 595 88 595 90 599C90 599 138 692 268 692C391 692 463 607 463 509C463 423 412 354 339 286Z"/></g><g transform="translate(643.97 462) scale(0.078000 -0.078000)"><path d="M64 15C64 1 75 -11 89 -11C104 -11 114 1 114 15C114 28 104 39 89 39C75 39 64 28 64 15Z"/></g><g transform="translate(657.86 462) scale(0.078000 -0.078000)"><path d="M330 -10C492 -10 584 126 584 351C584 578 492 710 330 710C168 710 75 578 75 351C75 126 168 -10 330 -10ZM330 8C178 8 93 135 93 351C93 568 178 692 330 692C481 692 567 568 567 351C567 135 481 8 330 8Z"/></g></g>
  <g fill="#FFFFFF" data-outlined="Brandon Text Thin 78px" data-text="is now live."><g transform="translate(100.00 556) scale(0.078000 -0.078000)"><path d="M88 8C88 3 90 0 95 0H99C104 0 106 3 106 8V454C106 459 104 462 99 462H95C90 462 88 459 88 454ZM98 605C111 605 121 616 121 628C121 641 111 653 98 653C84 653 75 641 75 628C75 616 84 605 98 605Z"/></g><g transform="translate(115.13 556) scale(0.078000 -0.078000)"><path d="M215 -11C308 -11 381 44 381 115C381 199 302 222 209 249C120 274 72 300 72 355C72 399 114 454 208 454C263 454 304 435 329 420C335 417 337 419 340 423L342 426C345 430 343 435 340 437C316 452 270 472 208 472C103 472 54 408 54 355C54 290 102 259 204 231C291 207 363 182 363 115C363 56 298 7 215 7C143 7 98 36 74 56C70 59 66 58 64 55L60 50C57 46 59 43 62 40C86 19 138 -11 215 -11Z"/></g><g transform="translate(167.00 556) scale(0.078000 -0.078000)"><path d="M88 8C88 3 90 0 95 0H99C104 0 106 3 106 8V365C116 378 175 454 277 454C388 454 439 384 439 258V8C439 3 442 0 447 0H451C456 0 457 3 457 8V258C457 399 402 472 277 472C188 472 135 422 106 391V454C106 459 104 462 99 462H95C90 462 88 459 88 454Z"/></g><g transform="translate(209.04 556) scale(0.078000 -0.078000)"><path d="M55 232C55 96 157 -11 288 -11C420 -11 522 96 522 232C522 366 420 472 288 472C157 472 55 366 55 232ZM73 232C73 355 168 454 288 454C409 454 504 355 504 232C504 107 409 7 288 7C168 7 73 107 73 232Z"/></g><g transform="translate(254.05 556) scale(0.078000 -0.078000)"><path d="M187 -9C189 -18 201 -18 203 -9L340 438L478 -9C480 -18 492 -18 494 -9L648 458C649 462 649 465 645 466L640 468C635 470 632 466 631 462L485 24L348 474C346 481 334 481 332 474L194 24L49 464C48 468 44 470 40 468L35 466C32 465 31 462 32 458Z"/></g><g transform="translate(325.81 556) scale(0.078000 -0.078000)"><path d="M96 8C96 3 98 0 103 0H107C112 0 114 3 114 8V692C114 697 112 700 107 700H103C98 700 96 697 96 692Z"/></g><g transform="translate(342.19 556) scale(0.078000 -0.078000)"><path d="M88 8C88 3 90 0 95 0H99C104 0 106 3 106 8V454C106 459 104 462 99 462H95C90 462 88 459 88 454ZM98 605C111 605 121 616 121 628C121 641 111 653 98 653C84 653 75 641 75 628C75 616 84 605 98 605Z"/></g><g transform="translate(357.32 556) scale(0.078000 -0.078000)"><path d="M227 -12C231 -19 237 -19 241 -12L445 457C447 461 447 463 444 465L438 469C433 471 431 468 430 465L234 14L38 465C37 468 34 471 30 469L24 466C20 464 21 462 23 457Z"/></g><g transform="translate(393.83 556) scale(0.078000 -0.078000)"><path d="M74 223H480C482 223 486 226 487 228C491 233 492 254 492 262C492 387 406 472 283 472C142 472 56 367 56 233C56 97 142 -11 283 -11C360 -11 422 21 452 43C454 45 456 47 454 50L450 57C449 59 445 61 441 58C415 37 355 7 283 7C157 7 77 103 74 223ZM74 241C78 359 157 454 283 454C391 454 474 376 474 262C474 257 474 249 473 241Z"/></g><g transform="translate(436.02 556) scale(0.078000 -0.078000)"><path d="M64 15C64 1 75 -11 89 -11C104 -11 114 1 114 15C114 28 104 39 89 39C75 39 64 28 64 15Z"/></g></g>
  <text x="100" y="676" class="body" fill="#FFFFFF" font-size="28">Verifiable parallel execution for AI-native</text>
  <text x="100" y="716" class="body" fill="#FFFFFF" font-size="28">systems. Available today at f1r3fly.io/core.</text>
  <rect x="100" y="947" width="875" height="1" fill="url(#brand_gradient_h)"/>

<g id="logo-io-horz" transform="translate(98.6,88.8) scale(0.125)">
  <defs>
    <linearGradient id="ih_lg" x1="620.975" y1="117.901" x2="793.518" y2="-180.951" gradientTransform="translate(-545.342 290.672) rotate(-4.856)" gradientUnits="userSpaceOnUse">
      <stop offset="0" stop-color="#009188"/><stop offset="1" stop-color="#007bc4"/>
    </linearGradient>
    <linearGradient id="ih_lg1" x1="10868.88" y1="2958.368" x2="11042.919" y2="2656.923" gradientTransform="translate(11539.772 2556.8) rotate(-153.904) scale(1 -1)" gradientUnits="userSpaceOnUse">
      <stop offset="0" stop-color="#deffac"/><stop offset="1" stop-color="#8fc8e7"/>
    </linearGradient>
    <linearGradient id="ih_lg2" x1="1278.548" y1="-693.973" x2="1379.282" y2="-693.973" gradientTransform="translate(-816.84 975.667) rotate(-11.485)" xlink:href="#ih_lg"/>
    <radialGradient id="ih_rg" cx="-507.17" cy="1315.506" fx="-507.17" fy="1166.669" r="148.898" gradientTransform="translate(-462.725 1690.402) rotate(-169.698) scale(1.001 1.048) skewX(.542)" gradientUnits="userSpaceOnUse">
      <stop offset=".159" stop-color="#ebe1a3"/><stop offset=".243" stop-color="#ebdf96"/><stop offset=".395" stop-color="#eedc75"/><stop offset=".598" stop-color="#f1d741"/><stop offset=".658" stop-color="#f3d630"/><stop offset=".995" stop-color="#f3d630"/>
    </radialGradient>
  </defs>
  <path fill="url(#ih_lg)" d="M316.697,105.798c-37.703,124.422-167.35,232.91-298.749,218.058-19.188-3.649-20.283-20.828-15.672-37.06C31.864,162.855,152.312,70.533,276.989,74.429c21.882.057,44.988,2.747,39.708,31.368Z"/>
  <path fill="url(#ih_lg1)" d="M349.717,112.154c-8.765,129.993,73.792,279.334,201.506,314.364,19.172,3.736,26.255-11.869,27.685-28.713,16.157-126.526-63.53-257.377-181.112-300.119-20.416-8.086-42.901-14.173-48.079,14.468Z"/>
  <path fill="url(#ih_lg2)" d="M400.519,44.343c1.708-41.624-83.95-62.735-103.871-23.736-3.572,6.996-.071,15.53,6.922,17.387,25.852,6.863,56.168,11.194,82.282,18.292,7.128,1.934,14.336-3.926,14.667-11.944Z"/>
  <path fill="url(#ih_rg)" d="M378.911,353.267c-46.405,267.616-227.024,226.916-174.919-34.206,44.206-27.89,81.981-64.979,110.028-108.046,11.008,50.816,33.273,99.674,64.892,142.252Z"/>
  <g fill="#fff">
    <path d="M755.273,169.256c0-2.975,2.379-5.652,5.652-5.652h121.068c3.271,0,5.652,2.677,5.652,5.652v24.391c0,2.975-2.381,5.652-5.652,5.652h-88.049v55.924h73.473c2.975,0,5.652,2.677,5.652,5.652v24.392c0,2.974-2.677,5.652-5.652,5.652h-73.473v75.258c0,2.975-2.678,5.652-5.652,5.652h-27.367c-3.272,0-5.652-2.677-5.652-5.652v-196.92Z"/>
    <path d="M952.779,223.691l-26.177,5.652c-2.677.595-5.652-1.189-5.949-3.867l-1.785-14.576c-.297-2.379.297-4.164,1.488-5.353l42.834-35.993h20.822c2.975,0,5.355,2.677,5.355,5.652v190.971c0,2.975-2.379,5.652-5.355,5.652h-25.581c-3.272,0-5.652-2.677-5.652-5.652v-142.485Z"/>
    <path d="M1058.965,169.256c0-2.975,2.379-5.652,5.652-5.652h85.075c35.696,0,64.847,28.556,64.847,63.954,0,27.367-18.146,49.676-44.024,60.088l40.752,75.555c2.082,3.868,0,8.627-5.056,8.627h-31.234c-2.677,0-4.164-1.488-4.759-2.677l-39.563-78.828h-33.018v75.853c0,2.975-2.678,5.652-5.652,5.652h-27.367c-3.272,0-5.652-2.677-5.652-5.652v-196.92ZM1146.419,258.494c15.765,0,29.449-13.683,29.449-30.34,0-15.766-13.684-28.855-29.449-28.855h-48.486v59.195h48.486Z"/>
    <path d="M1255.873,340.892l15.171-14.576c2.677-2.379,5.355-2.379,7.734,0,.892,1.19,18.443,16.064,36.588,16.064,16.063,0,31.532-11.602,31.532-27.962,0-15.468-14.279-29.449-41.05-29.449h-16.658c-3.271,0-5.652-2.379-5.652-5.949v-18.74c0-3.867,2.082-5.949,5.652-5.949h16.658c24.392,0,36.885-12.196,36.885-27.366,0-16.361-13.683-27.366-28.854-27.366-15.468,0-24.987,8.329-30.044,14.278-2.082,2.379-5.353,2.677-8.031.297l-14.575-13.683c-2.381-2.082-2.082-5.652,0-7.734,0,0,22.606-26.177,55.923-26.177,34.506,0,63.359,21.12,63.359,54.436,0,22.905-17.253,40.157-30.639,46.404v.893c13.98,5.949,35.993,22.012,35.993,48.486,0,33.614-27.366,58.006-68.417,58.006-37.182,0-55.328-18.74-61.872-26.474-1.785-2.082-1.488-5.355.297-7.437Z"/>
    <path d="M1442.072,169.256c0-2.975,2.379-5.652,5.652-5.652h121.068c3.272,0,5.651,2.677,5.651,5.652v24.391c0,2.975-2.378,5.652-5.651,5.652h-88.049v55.924h73.473c2.975,0,5.653,2.677,5.653,5.652v24.392c0,2.974-2.678,5.652-5.653,5.652h-73.473v75.258c0,2.975-2.678,5.652-5.652,5.652h-27.367c-3.272,0-5.652-2.677-5.652-5.652v-196.92Z"/>
    <path d="M1624.705,169.256c0-2.975,2.381-5.652,5.653-5.652h27.366c2.975,0,5.651,2.677,5.651,5.652v166.876h75.853c3.272,0,5.653,2.678,5.653,5.652v24.392c0,2.975-2.381,5.652-5.653,5.652h-108.87c-3.272,0-5.653-2.677-5.653-5.652v-196.92Z"/>
    <path d="M1815.074,271.582l-67.822-99.352c-2.381-3.867,0-8.626,4.759-8.626h30.341c2.381,0,3.867,1.486,4.759,2.677l47.595,68.417,47.593-68.417c.892-1.19,2.381-2.677,4.759-2.677h30.641c4.759,0,7.137,4.759,4.759,8.626l-68.714,99.055v94.891c0,2.975-2.678,5.652-5.653,5.652h-27.366c-3.272,0-5.651-2.677-5.651-5.652v-94.594Z"/>
    <path d="M1961.416,325.721c13.387,0,24.691,11.304,24.691,24.689s-11.304,24.392-24.691,24.392-24.391-11.006-24.391-24.392,11.006-24.689,24.391-24.689Z"/>
    <path d="M2036.073,169.256c0-2.975,2.678-5.652,5.653-5.652h27.663c2.975,0,5.651,2.677,5.651,5.652v196.92c0,2.975-2.676,5.652-5.651,5.652h-27.663c-2.975,0-5.653-2.677-5.653-5.652v-196.92Z"/>
    <path d="M2235.958,160.629c59.493,0,107.086,47.891,107.086,107.384s-47.593,106.79-107.086,106.79-106.789-47.297-106.789-106.79,47.298-107.384,106.789-107.384ZM2235.958,336.132c37.481,0,68.417-30.639,68.417-68.119s-30.936-68.714-68.417-68.714-68.119,31.234-68.119,68.714,30.639,68.119,68.119,68.119Z"/>
  </g>
</g>
  <g fill="#64c4ff" data-outlined="Brandon Grotesque Bold 21px" data-text="@F1R3FLY.IO"><g transform="translate(828.00 987) scale(0.021000 -0.021000)"><path d="M32 223C32 13 166 -161 347 -227C357 -231 365 -226 369 -216L393 -153C397 -142 393 -134 382 -129C241 -70 141 60 141 223C141 460 283 607 504 607C723 607 832 466 832 283C832 182 794 92 729 92C696 92 667 108 667 198V381C667 392 658 400 648 400H631C594 400 596 384 584 351C568 368 527 410 463 410C356 410 279 321 279 201C279 86 355 -10 460 -10C523 -10 569 26 590 68H598C614 26 648 -10 717 -10C885 -10 944 156 944 288C944 529 785 710 508 710C224 710 32 507 32 223ZM383 208C386 268 421 309 469 309C517 309 550 267 555 243V206C553 151 534 97 470 97C422 97 379 144 383 208Z"/></g><g transform="translate(850.81 987) scale(0.021000 -0.021000)"><path d="M91 19C91 9 99 0 110 0H202C212 0 221 9 221 19V272H468C478 272 487 281 487 291V373C487 383 478 392 468 392H221V580H517C528 580 536 589 536 599V681C536 691 528 700 517 700H110C99 700 91 691 91 681Z"/></g><g transform="translate(864.75 987) scale(0.021000 -0.021000)"><path d="M141 19C141 9 149 0 160 0H246C256 0 264 9 264 19V661C264 671 256 680 246 680H176L32 559C28 555 26 549 27 541L33 492C34 483 44 477 53 479L141 498Z"/></g><g transform="translate(874.35 987) scale(0.021000 -0.021000)"><path d="M91 19C91 9 99 0 110 0H202C212 0 221 9 221 19V274H332L465 9C467 5 472 0 481 0H586C603 0 610 16 603 29L466 283C553 318 614 393 614 485C614 604 516 700 396 700H110C99 700 91 691 91 681ZM222 381V580H385C438 580 484 536 484 483C484 427 438 381 385 381Z"/></g><g transform="translate(890.44 987) scale(0.021000 -0.021000)"><path d="M36 79C58 53 119 -10 244 -10C382 -10 474 72 474 185C474 274 400 328 353 348V351C398 372 456 430 456 507C456 619 359 690 243 690C131 690 55 602 55 602C48 595 47 583 55 576L104 530C113 522 124 523 131 531C148 551 180 579 232 579C283 579 329 542 329 487C329 436 287 395 205 395H149C137 395 130 388 130 375V312C130 300 138 292 149 292H205C295 292 343 245 343 193C343 138 291 99 237 99C176 99 117 149 114 153C106 161 97 161 88 153L37 104C31 97 30 86 36 79Z"/></g><g transform="translate(903.50 987) scale(0.021000 -0.021000)"><path d="M91 19C91 9 99 0 110 0H202C212 0 221 9 221 19V272H468C478 272 487 281 487 291V373C487 383 478 392 468 392H221V580H517C528 580 536 589 536 599V681C536 691 528 700 517 700H110C99 700 91 691 91 681Z"/></g><g transform="translate(917.44 987) scale(0.021000 -0.021000)"><path d="M91 19C91 9 99 0 110 0H476C487 0 495 9 495 19V101C495 111 487 120 476 120H221V681C221 691 212 700 202 700H110C99 700 91 691 91 681Z"/></g><g transform="translate(930.15 987) scale(0.021000 -0.021000)"><path d="M225 19C225 9 233 0 244 0H336C346 0 355 9 355 19V338L586 671C594 684 586 700 570 700H467C459 700 454 695 451 691L291 461L131 691C128 695 123 700 115 700H13C-3 700 -11 684 -3 671L225 337Z"/></g><g transform="translate(944.49 987) scale(0.021000 -0.021000)"><path d="M35 72C35 27 72 -10 117 -10C162 -10 200 27 200 72C200 117 162 155 117 155C72 155 35 117 35 72Z"/></g><g transform="translate(951.53 987) scale(0.021000 -0.021000)"><path d="M91 19C91 9 100 0 110 0H203C213 0 222 9 222 19V681C222 691 213 700 203 700H110C100 700 91 691 91 681Z"/></g><g transform="translate(960.20 987) scale(0.021000 -0.021000)"><path d="M41 349C41 149 200 -10 400 -10C600 -10 760 149 760 349C760 549 600 710 400 710C200 710 41 549 41 349ZM171 349C171 475 274 580 400 580C526 580 630 475 630 349C630 223 526 120 400 120C274 120 171 223 171 349Z"/></g></g>
</svg>
