<?xml version="1.0" encoding="UTF-8"?>
<svg xmlns="http://www.w3.org/2000/svg" xmlns:xlink="http://www.w3.org/1999/xlink"
     viewBox="0 0 1080 1080" width="1080" height="1080">
  <title>F1R3FLY.IO — Tagline (thin)</title>
  <defs>
    <linearGradient id="brand_gradient_h" x1="0%" y1="0%" x2="100%" y2="0%">
      <stop offset="0%" stop-color="#F3D630"/>
      <stop offset="100%" stop-color="#3FA9F5"/>
    </linearGradient>
    <linearGradient id="bg_teal" x1="0%" y1="0%" x2="100%" y2="0%">
      <stop offset="0%" stop-color="#002624"/><stop offset="100%" stop-color="#00294b"/>
    </linearGradient>
    <linearGradient id="bg_purple" x1="0%" y1="0%" x2="100%" y2="0%">
      <stop offset="0%" stop-color="#002537"/><stop offset="100%" stop-color="#021135"/>
    </linearGradient>
    <!-- Orb glow: 8 stops to smooth the navy transition where banding is worst -->
    <radialGradient id="orb_glow" cx="85%" cy="20%" r="60%">
      <stop offset="0%"   stop-color="#3FA9F5"     stop-opacity="0.55"/>
      <stop offset="12%"  stop-color="#2A8FD8"   stop-opacity="0.52"/>
      <stop offset="24%"  stop-color="#15578A"   stop-opacity="0.48"/>
      <stop offset="36%"  stop-color="#003D6E"   stop-opacity="0.42"/>
      <stop offset="48%"  stop-color="#00294b"   stop-opacity="0.34"/>
      <stop offset="62%"  stop-color="#001a30"   stop-opacity="0.22"/>
      <stop offset="80%"  stop-color="#0d0d12"   stop-opacity="0.08"/>
      <stop offset="100%" stop-color="#0A0A0A"   stop-opacity="0"/>
    </radialGradient>
    <radialGradient id="orb_glow_light" cx="85.83%" cy="25.74%" r="55%" fx="100.56%" fy="25.74%">
      <stop offset="0%"   stop-color="#3FA9F5" stop-opacity="0.30"/>
      <stop offset="20%"  stop-color="#3FA9F5" stop-opacity="0.22"/>
      <stop offset="45%"  stop-color="#3FA9F5" stop-opacity="0.12"/>
      <stop offset="75%"  stop-color="#3FA9F5" stop-opacity="0.04"/>
      <stop offset="100%" stop-color="#FFFFFF" stop-opacity="0"/>
    </radialGradient>
    <!-- Brand ellipse: 7 stops -->
    <radialGradient id="brand_ellipse_fill" cx="30%" cy="40%" r="70%">
      <stop offset="0%"   stop-color="#F3D630" stop-opacity="0.85"/>
      <stop offset="20%"  stop-color="#C8C150"  stop-opacity="0.75"/>
      <stop offset="40%"  stop-color="#85B080"  stop-opacity="0.65"/>
      <stop offset="55%"  stop-color="#5DA9C0"  stop-opacity="0.55"/>
      <stop offset="70%"  stop-color="#3FA9F5"    stop-opacity="0.40"/>
      <stop offset="85%"  stop-color="#1E5F94"  stop-opacity="0.18"/>
      <stop offset="100%" stop-color="#3FA9F5"    stop-opacity="0"/>
    </radialGradient>
    <!-- Dither: fine grayscale noise overlay at very low opacity.
         Breaks up 8-bit color bands by randomizing each pixel's rounding step.
         Standard technique used across modern UI design. -->
    <filter id="dither" x="0%" y="0%" width="100%" height="100%" color-interpolation-filters="sRGB">
      <feTurbulence type="fractalNoise" baseFrequency="2.5" numOctaves="2" seed="7" stitchTiles="stitch"/>
      <feColorMatrix values="0 0 0 0 0.5
                             0 0 0 0 0.5
                             0 0 0 0 0.5
                             0 0 0 1 0"/>
    </filter>
  </defs>
  <style>
    .thin { font-family: 'Brandon Text Thin', 'Brandon Grotesque Thin', 'Josefin Sans Thin', 'Josefin Sans', 'Helvetica Neue', sans-serif; font-weight: 100; }
    .light { font-family: 'Josefin Sans Light', 'Josefin Sans', 'Helvetica Neue', sans-serif; font-weight: 300; }
    .bold { font-family: 'Josefin Sans', 'Helvetica Neue', sans-serif; font-weight: 700; letter-spacing: 0.04em; }
    .eyebrow { font-family: 'Josefin Sans', 'Helvetica Neue', sans-serif; font-weight: 700; letter-spacing: 0.10em; }
    .body { font-family: 'Source Sans 3 Light', 'Source Sans 3', 'Source Sans Pro', 'Helvetica Neue', sans-serif; font-weight: 300; }
    .body-medium { font-family: 'Source Sans 3', 'Source Sans Pro', 'Helvetica Neue', sans-serif; font-weight: 400; }
    .handle { font-family: 'Josefin Sans', 'Helvetica Neue', sans-serif; font-weight: 700; letter-spacing: 0.10em; font-size: 18px; }
    .stat-display { font-family: 'Brandon Grotesque', 'Josefin Sans', 'Helvetica Neue', sans-serif; font-weight: 700; }
    .quote-mark { font-family: Georgia, 'Times New Roman', serif; }
  </style>
  <rect width="1080" height="1080" fill="#FFFFFF"/>
  <rect width="1080" height="1080" fill="url(#orb_glow_light)"/>
  <rect width="1080" height="1080" filter="url(#dither)" opacity="0.08"/>


  <text x="100" y="289" font-family="'Source Sans 3', 'Source Sans Pro', sans-serif" font-weight="700" font-size="26" fill="#00294b" letter-spacing="2.2">VERIFIABLE EXECUTION</text>
  <rect x="100" y="307" width="120" height="1" fill="url(#brand_gradient_h)"/>
  <g fill="#0A0A0A" data-outlined="Brandon Text Thin 96px" data-text="CONCURRENT"><g transform="translate(100.00 462) scale(0.096000 -0.096000)"><path d="M60 349C60 148 222 -10 423 -10C512 -10 598 22 667 88C669 90 669 93 667 95L662 101C660 104 656 103 654 101C587 40 508 8 423 8C232 8 78 158 78 349C78 540 232 692 423 692C519 692 589 659 654 603C656 601 659 600 662 603L667 609C669 612 668 615 666 617C598 674 525 710 423 710C222 710 60 550 60 349Z"/></g><g transform="translate(171.42 462) scale(0.096000 -0.096000)"><path d="M61 349C61 148 221 -10 422 -10C623 -10 784 148 784 349C784 550 623 710 422 710C221 710 61 550 61 349ZM79 349C79 540 231 692 422 692C613 692 766 540 766 349C766 158 613 8 422 8C231 8 79 158 79 349Z"/></g><g transform="translate(254.37 462) scale(0.096000 -0.096000)"><path d="M108 7C108 3 111 0 115 0H119C123 0 126 3 126 7V677L643 -12C647 -18 656 -15 656 -8V693C656 697 653 700 649 700H645C641 700 638 697 638 693V25L121 714C117 720 108 717 108 710Z"/></g><g transform="translate(329.63 462) scale(0.096000 -0.096000)"><path d="M60 349C60 148 222 -10 423 -10C512 -10 598 22 667 88C669 90 669 93 667 95L662 101C660 104 656 103 654 101C587 40 508 8 423 8C232 8 78 158 78 349C78 540 232 692 423 692C519 692 589 659 654 603C656 601 659 600 662 603L667 609C669 612 668 615 666 617C598 674 525 710 423 710C222 710 60 550 60 349Z"/></g><g transform="translate(401.06 462) scale(0.096000 -0.096000)"><path d="M100 252C100 98 199 -10 358 -10C518 -10 618 98 618 252V693C618 697 615 700 611 700H607C603 700 600 697 600 693V252C600 108 508 8 358 8C209 8 118 108 118 252V693C118 697 115 700 111 700H107C103 700 100 697 100 693Z"/></g><g transform="translate(471.90 462) scale(0.096000 -0.096000)"><path d="M108 7C108 3 111 0 115 0H119C122 0 125 3 125 7V267H353C362 267 370 267 379 268L538 0C539 -2 541 -4 544 -3L553 2C556 4 556 7 554 10L398 271C501 290 580 375 580 486C580 610 477 700 352 700H115C111 700 108 697 108 693ZM125 284V682H352C468 682 563 600 563 486C563 370 468 284 353 284Z"/></g><g transform="translate(535.36 462) scale(0.096000 -0.096000)"><path d="M108 7C108 3 111 0 115 0H119C122 0 125 3 125 7V267H353C362 267 370 267 379 268L538 0C539 -2 541 -4 544 -3L553 2C556 4 556 7 554 10L398 271C501 290 580 375 580 486C580 610 477 700 352 700H115C111 700 108 697 108 693ZM125 284V682H352C468 682 563 600 563 486C563 370 468 284 353 284Z"/></g><g transform="translate(598.82 462) scale(0.096000 -0.096000)"><path d="M108 7C108 3 111 0 115 0H522C526 0 529 3 529 7V11C529 15 526 18 522 18H126V355H474C478 355 481 358 481 362V366C481 370 478 373 474 373H126V682H522C526 682 529 685 529 689V693C529 697 526 700 522 700H115C111 700 108 697 108 693Z"/></g><g transform="translate(657.09 462) scale(0.096000 -0.096000)"><path d="M108 7C108 3 111 0 115 0H119C123 0 126 3 126 7V677L643 -12C647 -18 656 -15 656 -8V693C656 697 653 700 649 700H645C641 700 638 697 638 693V25L121 714C117 720 108 717 108 710Z"/></g><g transform="translate(732.35 462) scale(0.096000 -0.096000)"><path d="M239 7C239 3 242 0 246 0H250C254 0 257 3 257 7V682H467C471 682 474 685 474 689V693C474 697 471 700 467 700H31C27 700 24 697 24 693V689C24 685 27 682 31 682H239Z"/></g></g>
  <g fill="#0A0A0A" data-outlined="Brandon Text Thin 96px" data-text="BY DESIGN,"><g transform="translate(100.00 562) scale(0.096000 -0.096000)"><path d="M108 7C108 3 111 0 115 0H330C461 0 553 76 553 188C553 288 493 344 404 361C481 384 531 441 531 523C531 637 446 700 321 700H115C111 700 108 697 108 693ZM126 367V682H321C436 682 513 626 513 523C513 425 434 367 323 367ZM126 18V349H342C454 349 535 299 535 188C535 86 452 18 330 18Z"/></g><g transform="translate(161.92 562) scale(0.096000 -0.096000)"><path d="M267 7C267 3 270 0 274 0H278C282 0 285 3 285 7V344L549 688C551 691 552 694 548 697L542 701C539 703 536 701 534 698L276 359L18 698C16 700 14 703 10 701L4 697C0 694 1 691 3 688L267 343Z"/></g><g transform="translate(241.79 562) scale(0.096000 -0.096000)"><path d="M108 7C108 3 111 0 114 0H314C509 0 667 156 667 351C667 544 509 700 314 700H114C111 700 108 697 108 693ZM125 18V682H314C499 682 650 534 650 351C650 166 499 18 314 18Z"/></g><g transform="translate(313.60 562) scale(0.096000 -0.096000)"><path d="M108 7C108 3 111 0 115 0H522C526 0 529 3 529 7V11C529 15 526 18 522 18H126V355H474C478 355 481 358 481 362V366C481 370 478 373 474 373H126V682H522C526 682 529 685 529 689V693C529 697 526 700 522 700H115C111 700 108 697 108 693Z"/></g><g transform="translate(371.87 562) scale(0.096000 -0.096000)"><path d="M69 73C82 61 163 -10 282 -10C408 -10 503 70 503 175C503 282 416 327 276 366C159 397 80 433 80 535C80 608 135 692 280 692C372 692 443 643 443 643C447 641 449 642 451 645L455 651C457 654 456 657 453 659C453 659 380 710 280 710C123 710 62 616 62 535C62 419 150 381 271 348C398 314 485 275 485 175C485 79 394 8 282 8C169 8 95 74 82 85C79 88 76 89 73 86L69 82C66 79 66 76 69 73Z"/></g><g transform="translate(426.59 562) scale(0.096000 -0.096000)"><path d="M108 7C108 3 111 0 115 0H119C123 0 126 3 126 7V693C126 697 123 700 119 700H115C111 700 108 697 108 693Z"/></g><g transform="translate(450.98 562) scale(0.096000 -0.096000)"><path d="M60 349C60 148 222 -10 423 -10C581 -10 669 59 676 70V323C676 326 673 329 669 329H431C427 329 424 326 424 323V319C424 315 427 312 431 312H658V77C638 60 557 8 423 8C232 8 78 158 78 349C78 540 232 692 423 692C519 692 589 659 654 603C656 601 659 600 662 603L667 609C669 612 668 615 666 617C598 674 525 710 423 710C222 710 60 550 60 349Z"/></g><g transform="translate(525.09 562) scale(0.096000 -0.096000)"><path d="M108 7C108 3 111 0 115 0H119C123 0 126 3 126 7V677L643 -12C647 -18 656 -15 656 -8V693C656 697 653 700 649 700H645C641 700 638 697 638 693V25L121 714C117 720 108 717 108 710Z"/></g><g transform="translate(600.35 562) scale(0.096000 -0.096000)"><path d="M63 13C63 0 74 -10 87 -10C97 -10 102 -6 107 0C114 -11 118 -29 118 -53C118 -94 97 -126 71 -146C67 -149 65 -151 69 -157L73 -163C75 -167 78 -167 83 -163C113 -139 138 -103 138 -49C138 -11 122 38 89 38C74 38 63 28 63 13Z"/></g></g>
  <g fill="#0A0A0A" data-outlined="Brandon Text Thin 96px" data-text="SECURE BY"><g transform="translate(100.00 662) scale(0.096000 -0.096000)"><path d="M69 73C82 61 163 -10 282 -10C408 -10 503 70 503 175C503 282 416 327 276 366C159 397 80 433 80 535C80 608 135 692 280 692C372 692 443 643 443 643C447 641 449 642 451 645L455 651C457 654 456 657 453 659C453 659 380 710 280 710C123 710 62 616 62 535C62 419 150 381 271 348C398 314 485 275 485 175C485 79 394 8 282 8C169 8 95 74 82 85C79 88 76 89 73 86L69 82C66 79 66 76 69 73Z"/></g><g transform="translate(154.72 662) scale(0.096000 -0.096000)"><path d="M108 7C108 3 111 0 115 0H522C526 0 529 3 529 7V11C529 15 526 18 522 18H126V355H474C478 355 481 358 481 362V366C481 370 478 373 474 373H126V682H522C526 682 529 685 529 689V693C529 697 526 700 522 700H115C111 700 108 697 108 693Z"/></g><g transform="translate(212.99 662) scale(0.096000 -0.096000)"><path d="M60 349C60 148 222 -10 423 -10C512 -10 598 22 667 88C669 90 669 93 667 95L662 101C660 104 656 103 654 101C587 40 508 8 423 8C232 8 78 158 78 349C78 540 232 692 423 692C519 692 589 659 654 603C656 601 659 600 662 603L667 609C669 612 668 615 666 617C598 674 525 710 423 710C222 710 60 550 60 349Z"/></g><g transform="translate(284.42 662) scale(0.096000 -0.096000)"><path d="M100 252C100 98 199 -10 358 -10C518 -10 618 98 618 252V693C618 697 615 700 611 700H607C603 700 600 697 600 693V252C600 108 508 8 358 8C209 8 118 108 118 252V693C118 697 115 700 111 700H107C103 700 100 697 100 693Z"/></g><g transform="translate(355.26 662) scale(0.096000 -0.096000)"><path d="M108 7C108 3 111 0 115 0H119C122 0 125 3 125 7V267H353C362 267 370 267 379 268L538 0C539 -2 541 -4 544 -3L553 2C556 4 556 7 554 10L398 271C501 290 580 375 580 486C580 610 477 700 352 700H115C111 700 108 697 108 693ZM125 284V682H352C468 682 563 600 563 486C563 370 468 284 353 284Z"/></g><g transform="translate(418.72 662) scale(0.096000 -0.096000)"><path d="M108 7C108 3 111 0 115 0H522C526 0 529 3 529 7V11C529 15 526 18 522 18H126V355H474C478 355 481 358 481 362V366C481 370 478 373 474 373H126V682H522C526 682 529 685 529 689V693C529 697 526 700 522 700H115C111 700 108 697 108 693Z"/></g><g transform="translate(501.95 662) scale(0.096000 -0.096000)"><path d="M108 7C108 3 111 0 115 0H330C461 0 553 76 553 188C553 288 493 344 404 361C481 384 531 441 531 523C531 637 446 700 321 700H115C111 700 108 697 108 693ZM126 367V682H321C436 682 513 626 513 523C513 425 434 367 323 367ZM126 18V349H342C454 349 535 299 535 188C535 86 452 18 330 18Z"/></g><g transform="translate(563.87 662) scale(0.096000 -0.096000)"><path d="M267 7C267 3 270 0 274 0H278C282 0 285 3 285 7V344L549 688C551 691 552 694 548 697L542 701C539 703 536 701 534 698L276 359L18 698C16 700 14 703 10 701L4 697C0 694 1 691 3 688L267 343Z"/></g></g>
  <g fill="#0A0A0A" data-outlined="Brandon Text Thin 96px" data-text="MATH."><g transform="translate(100.00 762) scale(0.096000 -0.096000)"><path d="M52 8C51 3 51 1 55 0L63 -2C66 -3 68 -1 69 4L208 666L423 -8C425 -15 435 -15 437 -8L648 666L792 4C793 -1 795 -3 798 -2L806 0C810 1 810 3 809 8L658 712C656 719 646 719 644 712L430 36L213 712C211 719 200 719 199 712Z"/></g><g transform="translate(184.38 762) scale(0.096000 -0.096000)"><path d="M4 7C3 4 4 2 7 1L16 -2C19 -3 20 -1 21 1L111 210H520L609 1C610 -1 611 -3 614 -2L623 1C626 2 627 4 626 7L324 717C323 719 321 721 319 721H317C315 721 313 719 312 717ZM119 227 318 685 512 227Z"/></g><g transform="translate(247.07 762) scale(0.096000 -0.096000)"><path d="M239 7C239 3 242 0 246 0H250C254 0 257 3 257 7V682H467C471 682 474 685 474 689V693C474 697 471 700 467 700H31C27 700 24 697 24 693V689C24 685 27 682 31 682H239Z"/></g><g transform="translate(296.80 762) scale(0.096000 -0.096000)"><path d="M108 7C108 3 111 0 115 0H119C123 0 126 3 126 7V355H618V7C618 3 621 0 625 0H629C633 0 636 3 636 7V693C636 697 633 700 629 700H625C621 700 618 697 618 693V373H126V693C126 697 123 700 119 700H115C111 700 108 697 108 693Z"/></g><g transform="translate(370.14 762) scale(0.096000 -0.096000)"><path d="M64 15C64 1 75 -11 89 -11C104 -11 114 1 114 15C114 28 104 39 89 39C75 39 64 28 64 15Z"/></g></g>
  <rect x="100" y="947" width="875" height="1" fill="url(#brand_gradient_h)"/>

<g id="logo-io-horz-light" transform="translate(98.6,88.8) scale(0.1782)">
  <defs>
    <clipPath id="ihl_clip"><circle cx="205.047" cy="205.047" r="205.047"/></clipPath>
    <linearGradient id="ihl_lg" x1="630.1024" y1="31.0133" x2="721.882" y2="-127.9537" gradientTransform="matrix(0.9964 -0.0846 0.0846 0.9964 -540.3827 261.0241)" gradientUnits="userSpaceOnUse">
      <stop offset="0" stop-color="#009189"/><stop offset="1" stop-color="#147BC1"/>
    </linearGradient>
    <linearGradient id="ihl_lg1" x1="10404.7207" y1="2738.9954" x2="10497.2969" y2="2578.6492" gradientTransform="matrix(-0.8981 -0.4399 -0.4399 0.8981 10848.6162 2396.6216)" gradientUnits="userSpaceOnUse">
      <stop offset="0" stop-color="#DEEAA9"/><stop offset="1" stop-color="#90C8E6"/>
    </linearGradient>
    <linearGradient id="ihl_lg2" x1="1159.1312" y1="-615.334" x2="1212.7142" y2="-615.334" gradientTransform="matrix(0.98 -0.1991 0.1991 0.98 -809.1943 905.0748)" gradientUnits="userSpaceOnUse">
      <stop offset="0" stop-color="#009189"/><stop offset="1" stop-color="#147BC1"/>
    </linearGradient>
    <radialGradient id="ihl_rg" cx="-606.3048" cy="1121.2474" r="79.203" fx="-604.0409" fy="1042.0768" gradientTransform="matrix(-0.9847 -0.179 0.1781 -1.0326 -606.8362 1323.6312)" gradientUnits="userSpaceOnUse">
      <stop offset="0.1593" stop-color="#EBE1A3"/><stop offset="0.2386" stop-color="#ECE099"/><stop offset="0.3834" stop-color="#EEDD80"/><stop offset="0.576" stop-color="#F2D84F"/><stop offset="0.6581" stop-color="#F4D633"/><stop offset="0.9948" stop-color="#F4D633"/>
    </radialGradient>
  </defs>
  <g fill="#010101">
    <path d="M492.098,133.658c0-2.157,1.725-4.098,4.098-4.098h87.785c2.372,0,4.098,1.941,4.098,4.098v17.686c0,2.157-1.726,4.098-4.098,4.098h-63.843v40.55h53.274c2.157,0,4.098,1.941,4.098,4.098v17.686c0,2.156-1.941,4.098-4.098,4.098h-53.274v54.568c0,2.157-1.942,4.098-4.098,4.098h-19.844c-2.373,0-4.098-1.941-4.098-4.098V133.658z"/>
    <path d="M635.307,173.128l-18.981,4.098c-1.941,0.431-4.098-0.862-4.314-2.804l-1.294-10.569c-0.216-1.725,0.216-3.019,1.079-3.882l31.058-26.098h15.098c2.157,0,3.883,1.941,3.883,4.098v138.471c0,2.157-1.725,4.098-3.883,4.098h-18.549c-2.373,0-4.098-1.941-4.098-4.098V173.128z"/>
    <path d="M712.301,133.658c0-2.157,1.725-4.098,4.098-4.098h61.687c25.883,0,47.02,20.706,47.02,46.372c0,19.844-13.157,36.02-31.922,43.569l29.549,54.784c1.51,2.805,0,6.255-3.666,6.255h-22.648c-1.941,0-3.019-1.079-3.451-1.941l-28.686-57.157h-23.941v55c0,2.157-1.942,4.098-4.098,4.098H716.4c-2.373,0-4.098-1.941-4.098-4.098V133.658z M775.713,198.363c11.431,0,21.353-9.921,21.353-21.999c0-11.432-9.922-20.922-21.353-20.922h-35.157v42.922H775.713z"/>
    <path d="M855.077,258.109l11-10.569c1.941-1.725,3.883-1.725,5.608,0c0.647,0.863,13.373,11.648,26.529,11.648c11.647,0,22.863-8.413,22.863-20.275c0-11.216-10.353-21.353-29.765-21.353h-12.079c-2.372,0-4.098-1.725-4.098-4.314v-13.588c0-2.804,1.51-4.314,4.098-4.314h12.079c17.686,0,26.745-8.843,26.745-19.843c0-11.863-9.921-19.843-20.921-19.843c-11.216,0-18.118,6.039-21.785,10.353c-1.51,1.725-3.882,1.941-5.823,0.216l-10.568-9.921c-1.726-1.51-1.51-4.098,0-5.608c0,0,16.391-18.981,40.549-18.981c25.02,0,45.941,15.314,45.941,39.471c0,16.608-12.51,29.118-22.216,33.647v0.648c10.137,4.314,26.098,15.96,26.098,35.157c0,24.373-19.843,42.059-49.608,42.059c-26.96,0-40.118-13.588-44.862-19.196C853.567,261.991,853.782,259.619,855.077,258.109z"/>
    <path d="M990.087,133.658c0-2.157,1.725-4.098,4.098-4.098h87.785c2.373,0,4.097,1.941,4.097,4.098v17.686c0,2.157-1.724,4.098-4.097,4.098h-63.843v40.55h53.274c2.157,0,4.099,1.941,4.099,4.098v17.686c0,2.156-1.942,4.098-4.099,4.098h-53.274v54.568c0,2.157-1.942,4.098-4.098,4.098h-19.844c-2.373,0-4.098-1.941-4.098-4.098V133.658z"/>
    <path d="M1122.512,133.658c0-2.157,1.726-4.098,4.099-4.098h19.843c2.157,0,4.097,1.941,4.097,4.098v121h55c2.373,0,4.099,1.942,4.099,4.098v17.686c0,2.157-1.726,4.098-4.099,4.098h-78.94c-2.373,0-4.099-1.941-4.099-4.098V133.658z"/>
    <path d="M1260.546,207.853l-49.177-72.039c-1.726-2.804,0-6.254,3.451-6.254h22c1.726,0,2.804,1.078,3.451,1.941l34.511,49.608l34.509-49.608c0.647-0.863,1.726-1.941,3.451-1.941h22.217c3.451,0,5.175,3.451,3.451,6.254l-49.824,71.824v68.804c0,2.157-1.942,4.098-4.099,4.098h-19.843c-2.373,0-4.097-1.941-4.097-4.098V207.853z"/>
    <path d="M1366.657,247.109c9.707,0,17.903,8.196,17.903,17.902c0,9.706-8.196,17.686-17.903,17.686c-9.705,0-17.686-7.981-17.686-17.686C1348.971,255.305,1356.952,247.109,1366.657,247.109z"/>
    <path d="M1420.79,133.658c0-2.157,1.942-4.098,4.099-4.098h20.058c2.157,0,4.097,1.941,4.097,4.098v142.784c0,2.157-1.94,4.098-4.097,4.098h-20.058c-2.157,0-4.099-1.941-4.099-4.098V133.658z"/>
    <path d="M1565.724,127.403c43.138,0,77.647,34.725,77.647,77.863c0,43.138-34.509,77.432-77.647,77.432c-43.136,0-77.431-34.294-77.431-77.432C1488.292,162.128,1522.587,127.403,1565.724,127.403z M1565.724,254.658c27.177,0,49.608-22.216,49.608-49.392c0-27.176-22.431-49.824-49.608-49.824s-49.392,22.648-49.392,49.824C1516.331,232.442,1538.547,254.658,1565.724,254.658z"/>
  </g>
  <circle cx="205.047" cy="205.047" r="205.047" fill="#020202"/>
  <g clip-path="url(#ihl_clip)">
    <path fill="url(#ihl_lg)" d="M214.188,105.722c-20.055,66.183-89.018,123.891-158.912,115.99c-10.207-1.941-10.789-11.079-8.336-19.713c15.739-65.927,79.808-115.036,146.127-112.963C204.706,89.066,216.997,90.497,214.188,105.722z"/>
    <path fill="url(#ihl_lg1)" d="M231.752,109.103c-4.662,69.147,39.252,148.585,107.186,167.218c10.198,1.987,13.966-6.313,14.726-15.273c8.594-67.302-33.793-136.906-96.338-159.641C246.467,97.106,234.507,93.868,231.752,109.103z"/>
    <path fill="url(#ihl_lg2)" d="M258.775,73.032c0.908-22.141-44.655-33.37-55.252-12.626c-1.9,3.721-0.038,8.261,3.682,9.249c13.751,3.651,29.877,5.954,43.768,9.73C254.765,80.414,258.599,77.297,258.775,73.032z"/>
    <path fill="url(#ihl_rg)" d="M247.282,237.357c-24.684,142.352-120.76,120.702-93.044-18.195c23.514-14.835,43.608-34.564,58.527-57.472C218.62,188.72,230.463,214.709,247.282,237.357z"/>
  </g>
</g>
  <g fill="#00294b" data-outlined="Brandon Grotesque Bold 21px" data-text="@F1R3FLY.IO"><g transform="translate(828.00 987) scale(0.021000 -0.021000)"><path d="M32 223C32 13 166 -161 347 -227C357 -231 365 -226 369 -216L393 -153C397 -142 393 -134 382 -129C241 -70 141 60 141 223C141 460 283 607 504 607C723 607 832 466 832 283C832 182 794 92 729 92C696 92 667 108 667 198V381C667 392 658 400 648 400H631C594 400 596 384 584 351C568 368 527 410 463 410C356 410 279 321 279 201C279 86 355 -10 460 -10C523 -10 569 26 590 68H598C614 26 648 -10 717 -10C885 -10 944 156 944 288C944 529 785 710 508 710C224 710 32 507 32 223ZM383 208C386 268 421 309 469 309C517 309 550 267 555 243V206C553 151 534 97 470 97C422 97 379 144 383 208Z"/></g><g transform="translate(850.81 987) scale(0.021000 -0.021000)"><path d="M91 19C91 9 99 0 110 0H202C212 0 221 9 221 19V272H468C478 272 487 281 487 291V373C487 383 478 392 468 392H221V580H517C528 580 536 589 536 599V681C536 691 528 700 517 700H110C99 700 91 691 91 681Z"/></g><g transform="translate(864.75 987) scale(0.021000 -0.021000)"><path d="M141 19C141 9 149 0 160 0H246C256 0 264 9 264 19V661C264 671 256 680 246 680H176L32 559C28 555 26 549 27 541L33 492C34 483 44 477 53 479L141 498Z"/></g><g transform="translate(874.35 987) scale(0.021000 -0.021000)"><path d="M91 19C91 9 99 0 110 0H202C212 0 221 9 221 19V274H332L465 9C467 5 472 0 481 0H586C603 0 610 16 603 29L466 283C553 318 614 393 614 485C614 604 516 700 396 700H110C99 700 91 691 91 681ZM222 381V580H385C438 580 484 536 484 483C484 427 438 381 385 381Z"/></g><g transform="translate(890.44 987) scale(0.021000 -0.021000)"><path d="M36 79C58 53 119 -10 244 -10C382 -10 474 72 474 185C474 274 400 328 353 348V351C398 372 456 430 456 507C456 619 359 690 243 690C131 690 55 602 55 602C48 595 47 583 55 576L104 530C113 522 124 523 131 531C148 551 180 579 232 579C283 579 329 542 329 487C329 436 287 395 205 395H149C137 395 130 388 130 375V312C130 300 138 292 149 292H205C295 292 343 245 343 193C343 138 291 99 237 99C176 99 117 149 114 153C106 161 97 161 88 153L37 104C31 97 30 86 36 79Z"/></g><g transform="translate(903.50 987) scale(0.021000 -0.021000)"><path d="M91 19C91 9 99 0 110 0H202C212 0 221 9 221 19V272H468C478 272 487 281 487 291V373C487 383 478 392 468 392H221V580H517C528 580 536 589 536 599V681C536 691 528 700 517 700H110C99 700 91 691 91 681Z"/></g><g transform="translate(917.44 987) scale(0.021000 -0.021000)"><path d="M91 19C91 9 99 0 110 0H476C487 0 495 9 495 19V101C495 111 487 120 476 120H221V681C221 691 212 700 202 700H110C99 700 91 691 91 681Z"/></g><g transform="translate(930.15 987) scale(0.021000 -0.021000)"><path d="M225 19C225 9 233 0 244 0H336C346 0 355 9 355 19V338L586 671C594 684 586 700 570 700H467C459 700 454 695 451 691L291 461L131 691C128 695 123 700 115 700H13C-3 700 -11 684 -3 671L225 337Z"/></g><g transform="translate(944.49 987) scale(0.021000 -0.021000)"><path d="M35 72C35 27 72 -10 117 -10C162 -10 200 27 200 72C200 117 162 155 117 155C72 155 35 117 35 72Z"/></g><g transform="translate(951.53 987) scale(0.021000 -0.021000)"><path d="M91 19C91 9 100 0 110 0H203C213 0 222 9 222 19V681C222 691 213 700 203 700H110C100 700 91 691 91 681Z"/></g><g transform="translate(960.20 987) scale(0.021000 -0.021000)"><path d="M41 349C41 149 200 -10 400 -10C600 -10 760 149 760 349C760 549 600 710 400 710C200 710 41 549 41 349ZM171 349C171 475 274 580 400 580C526 580 630 475 630 349C630 223 526 120 400 120C274 120 171 223 171 349Z"/></g></g>
</svg>
