<?xml version="1.0" encoding="UTF-8"?>
<svg xmlns="http://www.w3.org/2000/svg" xmlns:xlink="http://www.w3.org/1999/xlink"
     viewBox="0 0 1080 1080" width="1080" height="1080">
  <title>F1R3FLY.IO — Tagline (bold)</title>
  <defs>
    <linearGradient id="brand_gradient_h" x1="0%" y1="0%" x2="100%" y2="0%">
      <stop offset="0%" stop-color="#F3D630"/>
      <stop offset="100%" stop-color="#3FA9F5"/>
    </linearGradient>
    <linearGradient id="bg_teal" x1="0%" y1="0%" x2="100%" y2="0%">
      <stop offset="0%" stop-color="#002624"/><stop offset="100%" stop-color="#00294b"/>
    </linearGradient>
    <linearGradient id="bg_purple" x1="0%" y1="0%" x2="100%" y2="0%">
      <stop offset="0%" stop-color="#002537"/><stop offset="100%" stop-color="#021135"/>
    </linearGradient>
    <!-- Orb glow: 8 stops to smooth the navy transition where banding is worst -->
    <radialGradient id="orb" cx="85.83%" cy="25.74%" r="60%" fx="100.56%" fy="25.74%">
      <stop offset="0%" stop-color="#3FA9F5" stop-opacity="0.85"/>
      <stop offset="40%" stop-color="#00294b" stop-opacity="0.40"/>
      <stop offset="100%" stop-color="#0A0A0A" stop-opacity="0"/>
    </radialGradient>
    <!-- Brand ellipse: 7 stops -->
    <radialGradient id="brand_ellipse_fill" cx="30%" cy="40%" r="70%">
      <stop offset="0%"   stop-color="#F3D630" stop-opacity="0.85"/>
      <stop offset="20%"  stop-color="#C8C150"  stop-opacity="0.75"/>
      <stop offset="40%"  stop-color="#85B080"  stop-opacity="0.65"/>
      <stop offset="55%"  stop-color="#5DA9C0"  stop-opacity="0.55"/>
      <stop offset="70%"  stop-color="#3FA9F5"    stop-opacity="0.40"/>
      <stop offset="85%"  stop-color="#1E5F94"  stop-opacity="0.18"/>
      <stop offset="100%" stop-color="#3FA9F5"    stop-opacity="0"/>
    </radialGradient>
    <!-- Dither: fine grayscale noise overlay at very low opacity.
         Breaks up 8-bit color bands by randomizing each pixel's rounding step.
         Standard technique used across modern UI design. -->
    <filter id="dither" x="0%" y="0%" width="100%" height="100%" color-interpolation-filters="sRGB">
      <feTurbulence type="fractalNoise" baseFrequency="2.5" numOctaves="2" seed="7" stitchTiles="stitch"/>
      <feColorMatrix values="0 0 0 0 0.5
                             0 0 0 0 0.5
                             0 0 0 0 0.5
                             0 0 0 1 0"/>
    </filter>
  </defs>
  <style>
    .thin { font-family: 'Brandon Text Thin', 'Brandon Grotesque Thin', 'Josefin Sans Thin', 'Josefin Sans', 'Helvetica Neue', sans-serif; font-weight: 100; }
    .light { font-family: 'Josefin Sans Light', 'Josefin Sans', 'Helvetica Neue', sans-serif; font-weight: 300; }
    .bold { font-family: 'Brandon Grotesque', 'Josefin Sans', 'Helvetica Neue', sans-serif; font-weight: 700; letter-spacing: 0.04em; }
    .eyebrow { font-family: 'Josefin Sans', 'Helvetica Neue', sans-serif; font-weight: 700; letter-spacing: 0.10em; }
    .body { font-family: 'Source Sans 3 Light', 'Source Sans 3', 'Source Sans Pro', 'Helvetica Neue', sans-serif; font-weight: 300; }
    .body-medium { font-family: 'Source Sans 3', 'Source Sans Pro', 'Helvetica Neue', sans-serif; font-weight: 400; }
    .handle { font-family: 'Josefin Sans', 'Helvetica Neue', sans-serif; font-weight: 700; letter-spacing: 0.10em; font-size: 18px; }
    .stat-display { font-family: 'Brandon Grotesque', 'Josefin Sans', 'Helvetica Neue', sans-serif; font-weight: 700; }
    .quote-mark { font-family: Georgia, 'Times New Roman', serif; }
  </style>
  <rect width="1080" height="1080" fill="#0A0A0A"/>
  <rect width="1080" height="1080" fill="url(#orb)"/>
  <rect width="1080" height="1080" filter="url(#dither)" opacity="0.15"/>


  <text x="100" y="289" font-family="'Source Sans 3', 'Source Sans Pro', sans-serif" font-weight="700" font-size="26" fill="#F3D630" letter-spacing="2.2">VERIFIABLE EXECUTION</text>
  <rect x="100" y="307" width="120" height="1" fill="url(#brand_gradient_h)"/>
  <g fill="#FFFFFF" data-outlined="Brandon Grotesque Bold 88px" data-text="CONCURRENT"><g transform="translate(100.00 462) scale(0.088000 -0.088000)"><path d="M40 349C40 149 201 -10 401 -10C490 -10 576 21 644 87C651 94 653 107 645 114L583 178C577 184 566 185 558 178C516 144 465 121 405 121C277 121 181 227 181 352C181 478 276 585 404 585C460 585 516 563 558 526C566 518 576 518 583 526L644 589C652 597 652 609 643 617C575 678 502 710 401 710C201 710 40 549 40 349Z"/></g><g transform="translate(163.71 462) scale(0.088000 -0.088000)"><path d="M41 349C41 149 200 -10 400 -10C600 -10 760 149 760 349C760 549 600 710 400 710C200 710 41 549 41 349ZM171 349C171 475 274 580 400 580C526 580 630 475 630 349C630 223 526 120 400 120C274 120 171 223 171 349Z"/></g><g transform="translate(237.63 462) scale(0.088000 -0.088000)"><path d="M91 19C91 9 100 0 110 0H201C212 0 220 9 220 19V449H221L639 -10H663C673 -10 682 -2 682 8V681C682 691 673 700 663 700H571C560 700 552 691 552 681V268H551L135 710H110C100 710 91 702 91 692Z"/></g><g transform="translate(309.18 462) scale(0.088000 -0.088000)"><path d="M40 349C40 149 201 -10 401 -10C490 -10 576 21 644 87C651 94 653 107 645 114L583 178C577 184 566 185 558 178C516 144 465 121 405 121C277 121 181 227 181 352C181 478 276 585 404 585C460 585 516 563 558 526C566 518 576 518 583 526L644 589C652 597 652 609 643 617C575 678 502 710 401 710C201 710 40 549 40 349Z"/></g><g transform="translate(372.89 462) scale(0.088000 -0.088000)"><path d="M81 265C81 113 202 -10 359 -10C517 -10 638 113 638 265V681C638 691 629 700 619 700H524C513 700 505 691 505 681V271C505 187 446 120 359 120C272 120 214 187 214 272V681C214 691 206 700 195 700H100C90 700 81 691 81 681Z"/></g><g transform="translate(439.68 462) scale(0.088000 -0.088000)"><path d="M91 19C91 9 99 0 110 0H202C212 0 221 9 221 19V274H332L465 9C467 5 472 0 481 0H586C603 0 610 16 603 29L466 283C553 318 614 393 614 485C614 604 516 700 396 700H110C99 700 91 691 91 681ZM222 381V580H385C438 580 484 536 484 483C484 427 438 381 385 381Z"/></g><g transform="translate(501.81 462) scale(0.088000 -0.088000)"><path d="M91 19C91 9 99 0 110 0H202C212 0 221 9 221 19V274H332L465 9C467 5 472 0 481 0H586C603 0 610 16 603 29L466 283C553 318 614 393 614 485C614 604 516 700 396 700H110C99 700 91 691 91 681ZM222 381V580H385C438 580 484 536 484 483C484 427 438 381 385 381Z"/></g><g transform="translate(563.94 462) scale(0.088000 -0.088000)"><path d="M91 19C91 9 99 0 110 0H517C528 0 536 9 536 19V101C536 111 528 120 517 120H221V295H468C478 295 487 303 487 314V397C487 407 478 416 468 416H221V580H517C528 580 536 589 536 599V681C536 691 528 700 517 700H110C99 700 91 691 91 681Z"/></g><g transform="translate(619.20 462) scale(0.088000 -0.088000)"><path d="M91 19C91 9 100 0 110 0H201C212 0 220 9 220 19V449H221L639 -10H663C673 -10 682 -2 682 8V681C682 691 673 700 663 700H571C560 700 552 691 552 681V268H551L135 710H110C100 710 91 702 91 692Z"/></g><g transform="translate(690.74 462) scale(0.088000 -0.088000)"><path d="M185 19C185 9 194 0 204 0H297C307 0 316 9 316 19V580H469C480 580 488 589 488 599V681C488 691 480 700 469 700H32C21 700 13 691 13 681V599C13 589 21 580 32 580H185Z"/></g></g>
  <g fill="#FFFFFF" data-outlined="Brandon Grotesque Bold 88px" data-text="BY DESIGN,"><g transform="translate(100.00 554) scale(0.088000 -0.088000)"><path d="M91 19C91 9 99 0 110 0H352C474 0 570 81 570 193C570 285 493 339 440 356C487 378 550 438 550 515C550 620 458 700 339 700H110C99 700 91 691 91 681ZM220 406V581H327C378 581 413 546 413 496C413 446 378 406 327 406ZM220 118V296H329C381 296 431 259 431 209C431 157 391 118 341 118Z"/></g><g transform="translate(157.82 554) scale(0.088000 -0.088000)"><path d="M225 19C225 9 233 0 244 0H336C346 0 355 9 355 19V338L586 671C594 684 586 700 570 700H467C459 700 454 695 451 691L291 461L131 691C128 695 123 700 115 700H13C-3 700 -11 684 -3 671L225 337Z"/></g><g transform="translate(235.61 554) scale(0.088000 -0.088000)"><path d="M91 19C91 9 99 0 109 0H346C539 0 697 157 697 351C697 543 539 700 346 700H109C99 700 91 691 91 681ZM220 122V579H334C464 579 559 481 559 351C559 220 464 122 334 122Z"/></g><g transform="translate(304.07 554) scale(0.088000 -0.088000)"><path d="M91 19C91 9 99 0 110 0H517C528 0 536 9 536 19V101C536 111 528 120 517 120H221V295H468C478 295 487 303 487 314V397C487 407 478 416 468 416H221V580H517C528 580 536 589 536 599V681C536 691 528 700 517 700H110C99 700 91 691 91 681Z"/></g><g transform="translate(359.34 554) scale(0.088000 -0.088000)"><path d="M55 68C75 49 149 -10 275 -10C416 -10 505 85 505 188C505 317 393 375 296 414C215 447 178 479 178 526C178 558 209 596 266 596C321 596 397 546 405 541C417 533 432 541 440 553L478 610C485 620 482 637 472 643C452 658 374 710 272 710C113 710 47 607 47 518C47 400 141 340 235 302C319 268 362 233 362 182C362 139 323 105 271 105C206 105 125 164 120 167C111 174 94 174 86 160L50 98C41 82 46 77 55 68Z"/></g><g transform="translate(410.55 554) scale(0.088000 -0.088000)"><path d="M91 19C91 9 100 0 110 0H203C213 0 222 9 222 19V681C222 691 213 700 203 700H110C100 700 91 691 91 681Z"/></g><g transform="translate(441.62 554) scale(0.088000 -0.088000)"><path d="M41 349C41 149 201 -9 400 -9C545 -9 648 56 648 56C652 59 656 64 656 72V328C656 338 648 347 638 347H446C435 347 427 339 427 328V249C427 239 435 231 446 231H526V146C506 138 463 121 407 121C281 121 182 226 182 350C182 475 281 582 406 582C461 582 514 562 557 524C566 516 575 516 583 524L645 589C653 597 652 609 644 617C576 675 490 710 400 710C201 710 41 549 41 349Z"/></g><g transform="translate(507.79 554) scale(0.088000 -0.088000)"><path d="M91 19C91 9 100 0 110 0H201C212 0 220 9 220 19V449H221L639 -10H663C673 -10 682 -2 682 8V681C682 691 673 700 663 700H571C560 700 552 691 552 681V268H551L135 710H110C100 710 91 702 91 692Z"/></g><g transform="translate(579.34 554) scale(0.088000 -0.088000)"><path d="M36 71C36 27 73 -10 117 -10C138 -10 154 -2 155 -2C155 -86 86 -138 75 -148C65 -156 64 -167 71 -175L86 -191C95 -200 102 -199 111 -193C148 -170 225 -100 225 23C225 122 167 154 124 154C73 154 36 116 36 71Z"/></g></g>
  <g fill="#FFFFFF" data-outlined="Brandon Grotesque Bold 88px" data-text="SECURE BY"><g transform="translate(100.00 646) scale(0.088000 -0.088000)"><path d="M55 68C75 49 149 -10 275 -10C416 -10 505 85 505 188C505 317 393 375 296 414C215 447 178 479 178 526C178 558 209 596 266 596C321 596 397 546 405 541C417 533 432 541 440 553L478 610C485 620 482 637 472 643C452 658 374 710 272 710C113 710 47 607 47 518C47 400 141 340 235 302C319 268 362 233 362 182C362 139 323 105 271 105C206 105 125 164 120 167C111 174 94 174 86 160L50 98C41 82 46 77 55 68Z"/></g><g transform="translate(151.22 646) scale(0.088000 -0.088000)"><path d="M91 19C91 9 99 0 110 0H517C528 0 536 9 536 19V101C536 111 528 120 517 120H221V295H468C478 295 487 303 487 314V397C487 407 478 416 468 416H221V580H517C528 580 536 589 536 599V681C536 691 528 700 517 700H110C99 700 91 691 91 681Z"/></g><g transform="translate(206.48 646) scale(0.088000 -0.088000)"><path d="M40 349C40 149 201 -10 401 -10C490 -10 576 21 644 87C651 94 653 107 645 114L583 178C577 184 566 185 558 178C516 144 465 121 405 121C277 121 181 227 181 352C181 478 276 585 404 585C460 585 516 563 558 526C566 518 576 518 583 526L644 589C652 597 652 609 643 617C575 678 502 710 401 710C201 710 40 549 40 349Z"/></g><g transform="translate(270.19 646) scale(0.088000 -0.088000)"><path d="M81 265C81 113 202 -10 359 -10C517 -10 638 113 638 265V681C638 691 629 700 619 700H524C513 700 505 691 505 681V271C505 187 446 120 359 120C272 120 214 187 214 272V681C214 691 206 700 195 700H100C90 700 81 691 81 681Z"/></g><g transform="translate(336.98 646) scale(0.088000 -0.088000)"><path d="M91 19C91 9 99 0 110 0H202C212 0 221 9 221 19V274H332L465 9C467 5 472 0 481 0H586C603 0 610 16 603 29L466 283C553 318 614 393 614 485C614 604 516 700 396 700H110C99 700 91 691 91 681ZM222 381V580H385C438 580 484 536 484 483C484 427 438 381 385 381Z"/></g><g transform="translate(399.11 646) scale(0.088000 -0.088000)"><path d="M91 19C91 9 99 0 110 0H517C528 0 536 9 536 19V101C536 111 528 120 517 120H221V295H468C478 295 487 303 487 314V397C487 407 478 416 468 416H221V580H517C528 580 536 589 536 599V681C536 691 528 700 517 700H110C99 700 91 691 91 681Z"/></g><g transform="translate(477.34 646) scale(0.088000 -0.088000)"><path d="M91 19C91 9 99 0 110 0H352C474 0 570 81 570 193C570 285 493 339 440 356C487 378 550 438 550 515C550 620 458 700 339 700H110C99 700 91 691 91 681ZM220 406V581H327C378 581 413 546 413 496C413 446 378 406 327 406ZM220 118V296H329C381 296 431 259 431 209C431 157 391 118 341 118Z"/></g><g transform="translate(535.16 646) scale(0.088000 -0.088000)"><path d="M225 19C225 9 233 0 244 0H336C346 0 355 9 355 19V338L586 671C594 684 586 700 570 700H467C459 700 454 695 451 691L291 461L131 691C128 695 123 700 115 700H13C-3 700 -11 684 -3 671L225 337Z"/></g></g>
  <g fill="#FFFFFF" data-outlined="Brandon Grotesque Bold 88px" data-text="MATH."><g transform="translate(100.00 738) scale(0.088000 -0.088000)"><path d="M45 23C43 9 51 0 64 0H154C163 0 171 8 172 15L230 394C231 394 233 394 233 394L410 1C413 -5 418 -10 427 -10H445C454 -10 460 -5 462 1L637 394C637 394 639 394 640 394L699 15C701 8 709 0 718 0H809C822 0 830 9 827 23L709 695C708 703 702 710 691 710H675C666 710 661 706 658 700L438 228C437 228 437 228 435 228L215 700C212 706 206 710 198 710H182C171 710 165 703 164 695Z"/></g><g transform="translate(180.34 738) scale(0.088000 -0.088000)"><path d="M17 0H104C120 0 129 10 133 20L182 128H481L530 20C537 6 544 0 559 0H646C661 0 669 13 663 26L355 699C352 705 348 710 338 710H328C319 710 314 705 311 699L0 26C-6 13 2 0 17 0ZM231 239 329 459H332L432 239Z"/></g><g transform="translate(242.21 738) scale(0.088000 -0.088000)"><path d="M185 19C185 9 194 0 204 0H297C307 0 316 9 316 19V580H469C480 580 488 589 488 599V681C488 691 480 700 469 700H32C21 700 13 691 13 681V599C13 589 21 580 32 580H185Z"/></g><g transform="translate(289.82 738) scale(0.088000 -0.088000)"><path d="M91 19C91 9 100 0 110 0H203C214 0 222 9 222 19V295H548V19C548 9 556 0 567 0H659C669 0 678 9 678 19V681C678 691 669 700 659 700H567C556 700 548 691 548 681V416H222V681C222 691 214 700 203 700H110C100 700 91 691 91 681Z"/></g><g transform="translate(361.01 738) scale(0.088000 -0.088000)"><path d="M35 72C35 27 72 -10 117 -10C162 -10 200 27 200 72C200 117 162 155 117 155C72 155 35 117 35 72Z"/></g></g>
  <rect x="100" y="947" width="875" height="1" fill="url(#brand_gradient_h)"/>

<g id="logo-io-horz" transform="translate(98.6,88.8) scale(0.125)">
  <defs>
    <linearGradient id="ih_lg" x1="620.975" y1="117.901" x2="793.518" y2="-180.951" gradientTransform="translate(-545.342 290.672) rotate(-4.856)" gradientUnits="userSpaceOnUse">
      <stop offset="0" stop-color="#009188"/><stop offset="1" stop-color="#007bc4"/>
    </linearGradient>
    <linearGradient id="ih_lg1" x1="10868.88" y1="2958.368" x2="11042.919" y2="2656.923" gradientTransform="translate(11539.772 2556.8) rotate(-153.904) scale(1 -1)" gradientUnits="userSpaceOnUse">
      <stop offset="0" stop-color="#deffac"/><stop offset="1" stop-color="#8fc8e7"/>
    </linearGradient>
    <linearGradient id="ih_lg2" x1="1278.548" y1="-693.973" x2="1379.282" y2="-693.973" gradientTransform="translate(-816.84 975.667) rotate(-11.485)" xlink:href="#ih_lg"/>
    <radialGradient id="ih_rg" cx="-507.17" cy="1315.506" fx="-507.17" fy="1166.669" r="148.898" gradientTransform="translate(-462.725 1690.402) rotate(-169.698) scale(1.001 1.048) skewX(.542)" gradientUnits="userSpaceOnUse">
      <stop offset=".159" stop-color="#ebe1a3"/><stop offset=".243" stop-color="#ebdf96"/><stop offset=".395" stop-color="#eedc75"/><stop offset=".598" stop-color="#f1d741"/><stop offset=".658" stop-color="#f3d630"/><stop offset=".995" stop-color="#f3d630"/>
    </radialGradient>
  </defs>
  <path fill="url(#ih_lg)" d="M316.697,105.798c-37.703,124.422-167.35,232.91-298.749,218.058-19.188-3.649-20.283-20.828-15.672-37.06C31.864,162.855,152.312,70.533,276.989,74.429c21.882.057,44.988,2.747,39.708,31.368Z"/>
  <path fill="url(#ih_lg1)" d="M349.717,112.154c-8.765,129.993,73.792,279.334,201.506,314.364,19.172,3.736,26.255-11.869,27.685-28.713,16.157-126.526-63.53-257.377-181.112-300.119-20.416-8.086-42.901-14.173-48.079,14.468Z"/>
  <path fill="url(#ih_lg2)" d="M400.519,44.343c1.708-41.624-83.95-62.735-103.871-23.736-3.572,6.996-.071,15.53,6.922,17.387,25.852,6.863,56.168,11.194,82.282,18.292,7.128,1.934,14.336-3.926,14.667-11.944Z"/>
  <path fill="url(#ih_rg)" d="M378.911,353.267c-46.405,267.616-227.024,226.916-174.919-34.206,44.206-27.89,81.981-64.979,110.028-108.046,11.008,50.816,33.273,99.674,64.892,142.252Z"/>
  <g fill="#fff">
    <path d="M755.273,169.256c0-2.975,2.379-5.652,5.652-5.652h121.068c3.271,0,5.652,2.677,5.652,5.652v24.391c0,2.975-2.381,5.652-5.652,5.652h-88.049v55.924h73.473c2.975,0,5.652,2.677,5.652,5.652v24.392c0,2.974-2.677,5.652-5.652,5.652h-73.473v75.258c0,2.975-2.678,5.652-5.652,5.652h-27.367c-3.272,0-5.652-2.677-5.652-5.652v-196.92Z"/>
    <path d="M952.779,223.691l-26.177,5.652c-2.677.595-5.652-1.189-5.949-3.867l-1.785-14.576c-.297-2.379.297-4.164,1.488-5.353l42.834-35.993h20.822c2.975,0,5.355,2.677,5.355,5.652v190.971c0,2.975-2.379,5.652-5.355,5.652h-25.581c-3.272,0-5.652-2.677-5.652-5.652v-142.485Z"/>
    <path d="M1058.965,169.256c0-2.975,2.379-5.652,5.652-5.652h85.075c35.696,0,64.847,28.556,64.847,63.954,0,27.367-18.146,49.676-44.024,60.088l40.752,75.555c2.082,3.868,0,8.627-5.056,8.627h-31.234c-2.677,0-4.164-1.488-4.759-2.677l-39.563-78.828h-33.018v75.853c0,2.975-2.678,5.652-5.652,5.652h-27.367c-3.272,0-5.652-2.677-5.652-5.652v-196.92ZM1146.419,258.494c15.765,0,29.449-13.683,29.449-30.34,0-15.766-13.684-28.855-29.449-28.855h-48.486v59.195h48.486Z"/>
    <path d="M1255.873,340.892l15.171-14.576c2.677-2.379,5.355-2.379,7.734,0,.892,1.19,18.443,16.064,36.588,16.064,16.063,0,31.532-11.602,31.532-27.962,0-15.468-14.279-29.449-41.05-29.449h-16.658c-3.271,0-5.652-2.379-5.652-5.949v-18.74c0-3.867,2.082-5.949,5.652-5.949h16.658c24.392,0,36.885-12.196,36.885-27.366,0-16.361-13.683-27.366-28.854-27.366-15.468,0-24.987,8.329-30.044,14.278-2.082,2.379-5.353,2.677-8.031.297l-14.575-13.683c-2.381-2.082-2.082-5.652,0-7.734,0,0,22.606-26.177,55.923-26.177,34.506,0,63.359,21.12,63.359,54.436,0,22.905-17.253,40.157-30.639,46.404v.893c13.98,5.949,35.993,22.012,35.993,48.486,0,33.614-27.366,58.006-68.417,58.006-37.182,0-55.328-18.74-61.872-26.474-1.785-2.082-1.488-5.355.297-7.437Z"/>
    <path d="M1442.072,169.256c0-2.975,2.379-5.652,5.652-5.652h121.068c3.272,0,5.651,2.677,5.651,5.652v24.391c0,2.975-2.378,5.652-5.651,5.652h-88.049v55.924h73.473c2.975,0,5.653,2.677,5.653,5.652v24.392c0,2.974-2.678,5.652-5.653,5.652h-73.473v75.258c0,2.975-2.678,5.652-5.652,5.652h-27.367c-3.272,0-5.652-2.677-5.652-5.652v-196.92Z"/>
    <path d="M1624.705,169.256c0-2.975,2.381-5.652,5.653-5.652h27.366c2.975,0,5.651,2.677,5.651,5.652v166.876h75.853c3.272,0,5.653,2.678,5.653,5.652v24.392c0,2.975-2.381,5.652-5.653,5.652h-108.87c-3.272,0-5.653-2.677-5.653-5.652v-196.92Z"/>
    <path d="M1815.074,271.582l-67.822-99.352c-2.381-3.867,0-8.626,4.759-8.626h30.341c2.381,0,3.867,1.486,4.759,2.677l47.595,68.417,47.593-68.417c.892-1.19,2.381-2.677,4.759-2.677h30.641c4.759,0,7.137,4.759,4.759,8.626l-68.714,99.055v94.891c0,2.975-2.678,5.652-5.653,5.652h-27.366c-3.272,0-5.651-2.677-5.651-5.652v-94.594Z"/>
    <path d="M1961.416,325.721c13.387,0,24.691,11.304,24.691,24.689s-11.304,24.392-24.691,24.392-24.391-11.006-24.391-24.392,11.006-24.689,24.391-24.689Z"/>
    <path d="M2036.073,169.256c0-2.975,2.678-5.652,5.653-5.652h27.663c2.975,0,5.651,2.677,5.651,5.652v196.92c0,2.975-2.676,5.652-5.651,5.652h-27.663c-2.975,0-5.653-2.677-5.653-5.652v-196.92Z"/>
    <path d="M2235.958,160.629c59.493,0,107.086,47.891,107.086,107.384s-47.593,106.79-107.086,106.79-106.789-47.297-106.789-106.79,47.298-107.384,106.789-107.384ZM2235.958,336.132c37.481,0,68.417-30.639,68.417-68.119s-30.936-68.714-68.417-68.714-68.119,31.234-68.119,68.714,30.639,68.119,68.119,68.119Z"/>
  </g>
</g>
  <g fill="#64c4ff" data-outlined="Brandon Grotesque Bold 21px" data-text="@F1R3FLY.IO"><g transform="translate(828.00 987) scale(0.021000 -0.021000)"><path d="M32 223C32 13 166 -161 347 -227C357 -231 365 -226 369 -216L393 -153C397 -142 393 -134 382 -129C241 -70 141 60 141 223C141 460 283 607 504 607C723 607 832 466 832 283C832 182 794 92 729 92C696 92 667 108 667 198V381C667 392 658 400 648 400H631C594 400 596 384 584 351C568 368 527 410 463 410C356 410 279 321 279 201C279 86 355 -10 460 -10C523 -10 569 26 590 68H598C614 26 648 -10 717 -10C885 -10 944 156 944 288C944 529 785 710 508 710C224 710 32 507 32 223ZM383 208C386 268 421 309 469 309C517 309 550 267 555 243V206C553 151 534 97 470 97C422 97 379 144 383 208Z"/></g><g transform="translate(850.81 987) scale(0.021000 -0.021000)"><path d="M91 19C91 9 99 0 110 0H202C212 0 221 9 221 19V272H468C478 272 487 281 487 291V373C487 383 478 392 468 392H221V580H517C528 580 536 589 536 599V681C536 691 528 700 517 700H110C99 700 91 691 91 681Z"/></g><g transform="translate(864.75 987) scale(0.021000 -0.021000)"><path d="M141 19C141 9 149 0 160 0H246C256 0 264 9 264 19V661C264 671 256 680 246 680H176L32 559C28 555 26 549 27 541L33 492C34 483 44 477 53 479L141 498Z"/></g><g transform="translate(874.35 987) scale(0.021000 -0.021000)"><path d="M91 19C91 9 99 0 110 0H202C212 0 221 9 221 19V274H332L465 9C467 5 472 0 481 0H586C603 0 610 16 603 29L466 283C553 318 614 393 614 485C614 604 516 700 396 700H110C99 700 91 691 91 681ZM222 381V580H385C438 580 484 536 484 483C484 427 438 381 385 381Z"/></g><g transform="translate(890.44 987) scale(0.021000 -0.021000)"><path d="M36 79C58 53 119 -10 244 -10C382 -10 474 72 474 185C474 274 400 328 353 348V351C398 372 456 430 456 507C456 619 359 690 243 690C131 690 55 602 55 602C48 595 47 583 55 576L104 530C113 522 124 523 131 531C148 551 180 579 232 579C283 579 329 542 329 487C329 436 287 395 205 395H149C137 395 130 388 130 375V312C130 300 138 292 149 292H205C295 292 343 245 343 193C343 138 291 99 237 99C176 99 117 149 114 153C106 161 97 161 88 153L37 104C31 97 30 86 36 79Z"/></g><g transform="translate(903.50 987) scale(0.021000 -0.021000)"><path d="M91 19C91 9 99 0 110 0H202C212 0 221 9 221 19V272H468C478 272 487 281 487 291V373C487 383 478 392 468 392H221V580H517C528 580 536 589 536 599V681C536 691 528 700 517 700H110C99 700 91 691 91 681Z"/></g><g transform="translate(917.44 987) scale(0.021000 -0.021000)"><path d="M91 19C91 9 99 0 110 0H476C487 0 495 9 495 19V101C495 111 487 120 476 120H221V681C221 691 212 700 202 700H110C99 700 91 691 91 681Z"/></g><g transform="translate(930.15 987) scale(0.021000 -0.021000)"><path d="M225 19C225 9 233 0 244 0H336C346 0 355 9 355 19V338L586 671C594 684 586 700 570 700H467C459 700 454 695 451 691L291 461L131 691C128 695 123 700 115 700H13C-3 700 -11 684 -3 671L225 337Z"/></g><g transform="translate(944.49 987) scale(0.021000 -0.021000)"><path d="M35 72C35 27 72 -10 117 -10C162 -10 200 27 200 72C200 117 162 155 117 155C72 155 35 117 35 72Z"/></g><g transform="translate(951.53 987) scale(0.021000 -0.021000)"><path d="M91 19C91 9 100 0 110 0H203C213 0 222 9 222 19V681C222 691 213 700 203 700H110C100 700 91 691 91 681Z"/></g><g transform="translate(960.20 987) scale(0.021000 -0.021000)"><path d="M41 349C41 149 200 -10 400 -10C600 -10 760 149 760 349C760 549 600 710 400 710C200 710 41 549 41 349ZM171 349C171 475 274 580 400 580C526 580 630 475 630 349C630 223 526 120 400 120C274 120 171 223 171 349Z"/></g></g>
</svg>
