<?xml version="1.0" encoding="UTF-8"?>
<svg xmlns="http://www.w3.org/2000/svg" xmlns:xlink="http://www.w3.org/1999/xlink"
     viewBox="0 0 1080 1080" width="1080" height="1080">
  <title>F1R3FLY.IO — Quote</title>
  <defs>
    <linearGradient id="brand_gradient_h" x1="0%" y1="0%" x2="100%" y2="0%">
      <stop offset="0%" stop-color="#F3D630"/>
      <stop offset="100%" stop-color="#3FA9F5"/>
    </linearGradient>
    <linearGradient id="bg_teal" x1="0%" y1="0%" x2="100%" y2="0%">
      <stop offset="0%" stop-color="#002624"/><stop offset="100%" stop-color="#00294b"/>
    </linearGradient>
    <linearGradient id="bg_purple" x1="0%" y1="0%" x2="100%" y2="0%">
      <stop offset="0%" stop-color="#002537"/><stop offset="100%" stop-color="#021135"/>
    </linearGradient>
    <!-- Orb glow: 8 stops to smooth the navy transition where banding is worst -->
    <radialGradient id="orb_glow" cx="85%" cy="20%" r="60%">
      <stop offset="0%"   stop-color="#3FA9F5"     stop-opacity="0.55"/>
      <stop offset="12%"  stop-color="#2A8FD8"   stop-opacity="0.52"/>
      <stop offset="24%"  stop-color="#15578A"   stop-opacity="0.48"/>
      <stop offset="36%"  stop-color="#003D6E"   stop-opacity="0.42"/>
      <stop offset="48%"  stop-color="#00294b"   stop-opacity="0.34"/>
      <stop offset="62%"  stop-color="#001a30"   stop-opacity="0.22"/>
      <stop offset="80%"  stop-color="#0d0d12"   stop-opacity="0.08"/>
      <stop offset="100%" stop-color="#0A0A0A"   stop-opacity="0"/>
    </radialGradient>
    <radialGradient id="orb_glow_light" cx="85%" cy="20%" r="55%">
      <stop offset="0%"   stop-color="#3FA9F5" stop-opacity="0.30"/>
      <stop offset="20%"  stop-color="#3FA9F5" stop-opacity="0.22"/>
      <stop offset="45%"  stop-color="#3FA9F5" stop-opacity="0.12"/>
      <stop offset="75%"  stop-color="#3FA9F5" stop-opacity="0.04"/>
      <stop offset="100%" stop-color="#FFFFFF" stop-opacity="0"/>
    </radialGradient>
    <!-- Brand ellipse: 7 stops -->
    <radialGradient id="brand_ellipse_fill" cx="30%" cy="40%" r="70%">
      <stop offset="0%"   stop-color="#F3D630" stop-opacity="0.85"/>
      <stop offset="20%"  stop-color="#C8C150"  stop-opacity="0.75"/>
      <stop offset="40%"  stop-color="#85B080"  stop-opacity="0.65"/>
      <stop offset="55%"  stop-color="#5DA9C0"  stop-opacity="0.55"/>
      <stop offset="70%"  stop-color="#3FA9F5"    stop-opacity="0.40"/>
      <stop offset="85%"  stop-color="#1E5F94"  stop-opacity="0.18"/>
      <stop offset="100%" stop-color="#3FA9F5"    stop-opacity="0"/>
    </radialGradient>
    <!-- Dither: fine grayscale noise overlay at very low opacity.
         Breaks up 8-bit color bands by randomizing each pixel's rounding step.
         Standard technique used across modern UI design. -->
    <filter id="dither" x="0%" y="0%" width="100%" height="100%" color-interpolation-filters="sRGB">
      <feTurbulence type="fractalNoise" baseFrequency="2.5" numOctaves="2" seed="7" stitchTiles="stitch"/>
      <feColorMatrix values="0 0 0 0 0.5
                             0 0 0 0 0.5
                             0 0 0 0 0.5
                             0 0 0 1 0"/>
    </filter>
  </defs>
  <style>
    .thin { font-family: 'Brandon Text Thin', 'Brandon Grotesque Thin', 'Josefin Sans Thin', 'Josefin Sans', 'Helvetica Neue', sans-serif; font-weight: 100; }
    .light { font-family: 'Brandon Text Light', 'Brandon Grotesque Light', 'Josefin Sans Light', 'Josefin Sans', 'Helvetica Neue', sans-serif; font-weight: 300; }
    .bold { font-family: 'Josefin Sans', 'Helvetica Neue', sans-serif; font-weight: 700; letter-spacing: 0.04em; }
    .eyebrow { font-family: 'Josefin Sans', 'Helvetica Neue', sans-serif; font-weight: 700; letter-spacing: 0.10em; }
    .body { font-family: 'Source Sans 3 Light', 'Source Sans 3', 'Source Sans Pro', 'Helvetica Neue', sans-serif; font-weight: 300; }
    .body-medium { font-family: 'Source Sans 3', 'Source Sans Pro', 'Helvetica Neue', sans-serif; font-weight: 400; }
    .handle { font-family: 'Josefin Sans', 'Helvetica Neue', sans-serif; font-weight: 700; letter-spacing: 0.10em; font-size: 18px; }
    .stat-display { font-family: 'Brandon Grotesque', 'Josefin Sans', 'Helvetica Neue', sans-serif; font-weight: 700; }
    .quote-mark { font-family: Georgia, 'Times New Roman', serif; }
  </style>
  <rect width="1080" height="1080" fill="url(#bg_purple)"/>
  <rect width="1080" height="1080" filter="url(#dither)" opacity="0.15"/>


  <text x="100" y="380" class="quote-mark" fill="#F3D630" font-size="200" opacity="0.95">“</text>
  <g fill="#FFFFFF" data-outlined="Brandon Text Light 50px" data-text="Most platforms treat"><g transform="translate(100.00 462) scale(0.050000 -0.050000)"><path d="M49 13C47 3 51 0 60 0H84C90 0 95 5 96 11L209 597C210 597 211 597 211 597L413 -2C415 -9 421 -10 426 -10H430C436 -10 442 -8 444 -2L646 597C646 597 647 597 648 597L761 11C762 5 767 0 773 0H797C806 0 810 3 808 13L666 703C665 707 661 710 657 710H646C641 710 638 708 636 703L429 89C428 89 428 89 427 89L221 703C219 708 216 710 211 710H200C196 710 192 707 191 703Z"/></g><g transform="translate(142.85 462) scale(0.050000 -0.050000)"><path d="M52 232C52 97 152 -11 284 -11C413 -11 516 97 516 232C516 363 413 472 284 472C152 472 52 363 52 232ZM96 232C96 340 179 429 284 429C387 429 469 340 469 232C469 121 387 32 284 32C179 32 96 121 96 232Z"/></g><g transform="translate(171.25 462) scale(0.050000 -0.050000)"><path d="M60 40C85 21 133 -11 211 -11C304 -11 370 43 370 113C370 201 298 227 212 259C144 284 98 309 98 355C98 390 129 431 202 431C251 431 301 407 312 401C320 397 328 397 332 405L338 416C342 424 339 432 332 437C309 451 263 472 202 472C96 472 54 404 54 354C54 281 111 249 192 220C270 191 326 166 326 113C326 64 281 30 211 30C146 30 97 65 85 75C77 81 68 80 64 73L55 57C51 50 55 44 60 40Z"/></g><g transform="translate(191.95 462) scale(0.050000 -0.050000)"><path d="M105 112C105 46 120 -11 206 -11C269 -11 323 20 340 33C346 38 348 43 344 51L336 65C333 70 329 75 318 69C304 60 263 32 212 32C159 32 149 57 149 117V419H312C322 419 328 425 328 434V447C328 455 322 462 312 462H149V589C149 597 142 605 134 604L121 603C112 602 105 597 105 588V462H49C40 462 34 459 34 450V434C34 425 37 419 49 419H105Z"/></g><g transform="translate(222.10 462) scale(0.050000 -0.050000)"><path d="M128 37C141 26 191 -11 268 -11C402 -11 498 96 498 232C498 367 407 472 279 472C194 472 137 429 123 418L119 450C118 459 114 462 106 462H100C92 462 84 457 84 447V-223C84 -231 90 -238 99 -238H112C119 -238 128 -231 128 -223ZM128 88V368C134 376 188 429 277 429C383 429 454 340 454 233C454 120 379 32 267 32C189 32 134 82 128 88Z"/></g><g transform="translate(249.65 462) scale(0.050000 -0.050000)"><path d="M90 15C90 7 94 0 103 0H119C129 0 134 5 134 15V685C134 693 126 700 119 700H105C96 700 90 693 90 685Z"/></g><g transform="translate(260.85 462) scale(0.050000 -0.050000)"><path d="M44 142C44 47 108 -11 194 -11C267 -11 327 26 356 55L361 13C362 4 367 0 375 0H383C391 0 399 7 399 15V271C399 390 395 472 255 472C158 472 99 440 96 438C91 435 85 430 90 421L95 407C97 400 103 396 113 400C122 403 175 431 251 431C342 431 355 379 355 277C343 281 289 298 236 298C115 298 44 231 44 142ZM87 143C87 211 148 259 236 259C291 259 340 242 355 235V102C333 74 269 32 199 32C135 32 87 77 87 143Z"/></g><g transform="translate(284.80 462) scale(0.050000 -0.050000)"><path d="M105 112C105 46 120 -11 206 -11C269 -11 323 20 340 33C346 38 348 43 344 51L336 65C333 70 329 75 318 69C304 60 263 32 212 32C159 32 149 57 149 117V419H312C322 419 328 425 328 434V447C328 455 322 462 312 462H149V589C149 597 142 605 134 604L121 603C112 602 105 597 105 588V462H49C40 462 34 459 34 450V434C34 425 37 419 49 419H105Z"/></g><g transform="translate(302.95 462) scale(0.050000 -0.050000)"><path d="M111 15C111 7 118 0 125 0H140C149 0 155 7 155 15V419H329C340 419 345 425 345 432V448C345 457 339 462 329 462H155V533C155 619 189 667 262 667C305 667 337 650 364 629C372 623 378 623 384 630L394 642C398 646 397 654 391 661C371 683 321 710 262 710C162 710 111 642 111 533V462H38C30 462 24 455 24 447V434C24 427 28 419 38 419H111Z"/></g><g transform="translate(321.25 462) scale(0.050000 -0.050000)"><path d="M52 232C52 97 152 -11 284 -11C413 -11 516 97 516 232C516 363 413 472 284 472C152 472 52 363 52 232ZM96 232C96 340 179 429 284 429C387 429 469 340 469 232C469 121 387 32 284 32C179 32 96 121 96 232Z"/></g><g transform="translate(349.65 462) scale(0.050000 -0.050000)"><path d="M84 15C84 7 88 0 97 0H113C123 0 128 5 128 15V350C131 357 178 429 268 429C300 429 325 417 330 414C338 410 346 411 349 420L355 438C358 447 353 456 343 459C334 462 308 472 271 472C185 472 136 418 124 402L119 449C118 458 113 462 106 462H99C90 462 84 455 84 447Z"/></g><g transform="translate(368.35 462) scale(0.050000 -0.050000)"><path d="M84 15C84 7 88 0 97 0H113C123 0 128 5 128 15V350C133 360 178 429 272 429C359 429 400 375 400 268V15C400 5 405 0 414 0H429C436 0 444 7 444 15V268C444 299 442 324 435 348C450 366 492 429 578 429C665 429 705 375 705 268V15C705 5 710 0 717 0H734C743 0 749 7 749 15V268C749 387 708 472 582 472C487 472 434 408 420 390C389 442 348 472 277 472C184 472 137 418 124 401L118 450C117 458 114 462 107 462H99C90 462 84 455 84 447Z"/></g><g transform="translate(409.75 462) scale(0.050000 -0.050000)"><path d="M60 40C85 21 133 -11 211 -11C304 -11 370 43 370 113C370 201 298 227 212 259C144 284 98 309 98 355C98 390 129 431 202 431C251 431 301 407 312 401C320 397 328 397 332 405L338 416C342 424 339 432 332 437C309 451 263 472 202 472C96 472 54 404 54 354C54 281 111 249 192 220C270 191 326 166 326 113C326 64 281 30 211 30C146 30 97 65 85 75C77 81 68 80 64 73L55 57C51 50 55 44 60 40Z"/></g><g transform="translate(442.45 462) scale(0.050000 -0.050000)"><path d="M105 112C105 46 120 -11 206 -11C269 -11 323 20 340 33C346 38 348 43 344 51L336 65C333 70 329 75 318 69C304 60 263 32 212 32C159 32 149 57 149 117V419H312C322 419 328 425 328 434V447C328 455 322 462 312 462H149V589C149 597 142 605 134 604L121 603C112 602 105 597 105 588V462H49C40 462 34 459 34 450V434C34 425 37 419 49 419H105Z"/></g><g transform="translate(460.60 462) scale(0.050000 -0.050000)"><path d="M84 15C84 7 88 0 97 0H113C123 0 128 5 128 15V350C131 357 178 429 268 429C300 429 325 417 330 414C338 410 346 411 349 420L355 438C358 447 353 456 343 459C334 462 308 472 271 472C185 472 136 418 124 402L119 449C118 458 113 462 106 462H99C90 462 84 455 84 447Z"/></g><g transform="translate(479.30 462) scale(0.050000 -0.050000)"><path d="M53 232C53 97 140 -11 276 -11C349 -11 417 21 444 43C452 49 453 57 449 61L438 78C433 85 428 84 418 78C390 59 341 32 276 32C177 32 99 114 97 217H466C483 217 483 244 483 262C483 380 398 472 276 472C140 472 53 363 53 232ZM98 258C104 354 176 429 276 429C380 429 439 349 439 258Z"/></g><g transform="translate(505.75 462) scale(0.050000 -0.050000)"><path d="M44 142C44 47 108 -11 194 -11C267 -11 327 26 356 55L361 13C362 4 367 0 375 0H383C391 0 399 7 399 15V271C399 390 395 472 255 472C158 472 99 440 96 438C91 435 85 430 90 421L95 407C97 400 103 396 113 400C122 403 175 431 251 431C342 431 355 379 355 277C343 281 289 298 236 298C115 298 44 231 44 142ZM87 143C87 211 148 259 236 259C291 259 340 242 355 235V102C333 74 269 32 199 32C135 32 87 77 87 143Z"/></g><g transform="translate(529.70 462) scale(0.050000 -0.050000)"><path d="M105 112C105 46 120 -11 206 -11C269 -11 323 20 340 33C346 38 348 43 344 51L336 65C333 70 329 75 318 69C304 60 263 32 212 32C159 32 149 57 149 117V419H312C322 419 328 425 328 434V447C328 455 322 462 312 462H149V589C149 597 142 605 134 604L121 603C112 602 105 597 105 588V462H49C40 462 34 459 34 450V434C34 425 37 419 49 419H105Z"/></g></g>
  <g fill="#FFFFFF" data-outlined="Brandon Text Light 50px" data-text="security and concurrency"><g transform="translate(100.00 526) scale(0.050000 -0.050000)"><path d="M60 40C85 21 133 -11 211 -11C304 -11 370 43 370 113C370 201 298 227 212 259C144 284 98 309 98 355C98 390 129 431 202 431C251 431 301 407 312 401C320 397 328 397 332 405L338 416C342 424 339 432 332 437C309 451 263 472 202 472C96 472 54 404 54 354C54 281 111 249 192 220C270 191 326 166 326 113C326 64 281 30 211 30C146 30 97 65 85 75C77 81 68 80 64 73L55 57C51 50 55 44 60 40Z"/></g><g transform="translate(120.70 526) scale(0.050000 -0.050000)"><path d="M53 232C53 97 140 -11 276 -11C349 -11 417 21 444 43C452 49 453 57 449 61L438 78C433 85 428 84 418 78C390 59 341 32 276 32C177 32 99 114 97 217H466C483 217 483 244 483 262C483 380 398 472 276 472C140 472 53 363 53 232ZM98 258C104 354 176 429 276 429C380 429 439 349 439 258Z"/></g><g transform="translate(147.15 526) scale(0.050000 -0.050000)"><path d="M52 231C52 91 160 -11 291 -11C387 -11 453 50 472 78C476 84 475 90 469 96L460 104C453 111 446 112 438 103C425 89 376 32 292 32C182 32 96 120 96 232C96 342 186 429 291 429C364 429 416 386 427 374C435 366 443 363 452 372L460 380C466 386 467 394 461 401C441 427 380 472 291 472C160 472 52 370 52 231Z"/></g><g transform="translate(173.00 526) scale(0.050000 -0.050000)"><path d="M79 188C79 58 121 -11 251 -11C342 -11 391 43 403 59L407 14C408 7 413 0 421 0H430C437 0 444 7 444 15V447C444 455 437 462 430 462H415C405 462 400 457 400 447V118C386 98 341 32 254 32C159 32 123 81 123 188V447C123 455 117 462 109 462H94C86 462 79 455 79 447Z"/></g><g transform="translate(199.40 526) scale(0.050000 -0.050000)"><path d="M84 15C84 7 88 0 97 0H113C123 0 128 5 128 15V350C131 357 178 429 268 429C300 429 325 417 330 414C338 410 346 411 349 420L355 438C358 447 353 456 343 459C334 462 308 472 271 472C185 472 136 418 124 402L119 449C118 458 113 462 106 462H99C90 462 84 455 84 447Z"/></g><g transform="translate(218.10 526) scale(0.050000 -0.050000)"><path d="M84 15C84 7 88 0 97 0H113C123 0 128 5 128 15V447C128 455 120 462 113 462H99C90 462 84 455 84 447ZM105 590C127 590 144 607 144 628C144 650 127 667 105 667C83 667 65 650 65 628C65 607 83 590 105 590Z"/></g><g transform="translate(228.70 526) scale(0.050000 -0.050000)"><path d="M105 112C105 46 120 -11 206 -11C269 -11 323 20 340 33C346 38 348 43 344 51L336 65C333 70 329 75 318 69C304 60 263 32 212 32C159 32 149 57 149 117V419H312C322 419 328 425 328 434V447C328 455 322 462 312 462H149V589C149 597 142 605 134 604L121 603C112 602 105 597 105 588V462H49C40 462 34 459 34 450V434C34 425 37 419 49 419H105Z"/></g><g transform="translate(246.85 526) scale(0.050000 -0.050000)"><path d="M212 1 116 -222C111 -233 115 -238 125 -238H148C153 -238 160 -235 163 -229L452 443C457 453 456 462 445 462H423C417 462 411 459 408 451L238 52H235L72 451C69 459 63 462 56 462H35C25 462 24 453 28 443Z"/></g><g transform="translate(282.80 526) scale(0.050000 -0.050000)"><path d="M44 142C44 47 108 -11 194 -11C267 -11 327 26 356 55L361 13C362 4 367 0 375 0H383C391 0 399 7 399 15V271C399 390 395 472 255 472C158 472 99 440 96 438C91 435 85 430 90 421L95 407C97 400 103 396 113 400C122 403 175 431 251 431C342 431 355 379 355 277C343 281 289 298 236 298C115 298 44 231 44 142ZM87 143C87 211 148 259 236 259C291 259 340 242 355 235V102C333 74 269 32 199 32C135 32 87 77 87 143Z"/></g><g transform="translate(306.75 526) scale(0.050000 -0.050000)"><path d="M84 15C84 7 88 0 97 0H113C123 0 128 5 128 15V350C132 356 191 429 285 429C374 429 417 375 417 268V15C417 7 424 0 432 0H446C454 0 461 7 461 15V270C461 391 418 472 287 472C195 472 139 417 124 401L119 450C118 458 114 462 105 462H100C90 462 84 455 84 447Z"/></g><g transform="translate(333.75 526) scale(0.050000 -0.050000)"><path d="M53 231C53 96 143 -11 263 -11C352 -11 412 40 425 56L428 15C430 4 436 0 445 0H451C458 0 466 7 466 15V685C466 693 458 700 452 700H437C427 700 422 693 422 685V427C422 427 365 472 276 472C145 472 53 364 53 231ZM97 231C97 340 176 429 282 429C366 429 422 377 422 377V110C420 105 367 32 266 32C169 32 97 124 97 231Z"/></g><g transform="translate(373.25 526) scale(0.050000 -0.050000)"><path d="M52 231C52 91 160 -11 291 -11C387 -11 453 50 472 78C476 84 475 90 469 96L460 104C453 111 446 112 438 103C425 89 376 32 292 32C182 32 96 120 96 232C96 342 186 429 291 429C364 429 416 386 427 374C435 366 443 363 452 372L460 380C466 386 467 394 461 401C441 427 380 472 291 472C160 472 52 370 52 231Z"/></g><g transform="translate(399.10 526) scale(0.050000 -0.050000)"><path d="M52 232C52 97 152 -11 284 -11C413 -11 516 97 516 232C516 363 413 472 284 472C152 472 52 363 52 232ZM96 232C96 340 179 429 284 429C387 429 469 340 469 232C469 121 387 32 284 32C179 32 96 121 96 232Z"/></g><g transform="translate(427.50 526) scale(0.050000 -0.050000)"><path d="M84 15C84 7 88 0 97 0H113C123 0 128 5 128 15V350C132 356 191 429 285 429C374 429 417 375 417 268V15C417 7 424 0 432 0H446C454 0 461 7 461 15V270C461 391 418 472 287 472C195 472 139 417 124 401L119 450C118 458 114 462 105 462H100C90 462 84 455 84 447Z"/></g><g transform="translate(454.50 526) scale(0.050000 -0.050000)"><path d="M52 231C52 91 160 -11 291 -11C387 -11 453 50 472 78C476 84 475 90 469 96L460 104C453 111 446 112 438 103C425 89 376 32 292 32C182 32 96 120 96 232C96 342 186 429 291 429C364 429 416 386 427 374C435 366 443 363 452 372L460 380C466 386 467 394 461 401C441 427 380 472 291 472C160 472 52 370 52 231Z"/></g><g transform="translate(480.35 526) scale(0.050000 -0.050000)"><path d="M79 188C79 58 121 -11 251 -11C342 -11 391 43 403 59L407 14C408 7 413 0 421 0H430C437 0 444 7 444 15V447C444 455 437 462 430 462H415C405 462 400 457 400 447V118C386 98 341 32 254 32C159 32 123 81 123 188V447C123 455 117 462 109 462H94C86 462 79 455 79 447Z"/></g><g transform="translate(506.75 526) scale(0.050000 -0.050000)"><path d="M84 15C84 7 88 0 97 0H113C123 0 128 5 128 15V350C131 357 178 429 268 429C300 429 325 417 330 414C338 410 346 411 349 420L355 438C358 447 353 456 343 459C334 462 308 472 271 472C185 472 136 418 124 402L119 449C118 458 113 462 106 462H99C90 462 84 455 84 447Z"/></g><g transform="translate(525.45 526) scale(0.050000 -0.050000)"><path d="M84 15C84 7 88 0 97 0H113C123 0 128 5 128 15V350C131 357 178 429 268 429C300 429 325 417 330 414C338 410 346 411 349 420L355 438C358 447 353 456 343 459C334 462 308 472 271 472C185 472 136 418 124 402L119 449C118 458 113 462 106 462H99C90 462 84 455 84 447Z"/></g><g transform="translate(544.15 526) scale(0.050000 -0.050000)"><path d="M53 232C53 97 140 -11 276 -11C349 -11 417 21 444 43C452 49 453 57 449 61L438 78C433 85 428 84 418 78C390 59 341 32 276 32C177 32 99 114 97 217H466C483 217 483 244 483 262C483 380 398 472 276 472C140 472 53 363 53 232ZM98 258C104 354 176 429 276 429C380 429 439 349 439 258Z"/></g><g transform="translate(570.60 526) scale(0.050000 -0.050000)"><path d="M84 15C84 7 88 0 97 0H113C123 0 128 5 128 15V350C132 356 191 429 285 429C374 429 417 375 417 268V15C417 7 424 0 432 0H446C454 0 461 7 461 15V270C461 391 418 472 287 472C195 472 139 417 124 401L119 450C118 458 114 462 105 462H100C90 462 84 455 84 447Z"/></g><g transform="translate(597.60 526) scale(0.050000 -0.050000)"><path d="M52 231C52 91 160 -11 291 -11C387 -11 453 50 472 78C476 84 475 90 469 96L460 104C453 111 446 112 438 103C425 89 376 32 292 32C182 32 96 120 96 232C96 342 186 429 291 429C364 429 416 386 427 374C435 366 443 363 452 372L460 380C466 386 467 394 461 401C441 427 380 472 291 472C160 472 52 370 52 231Z"/></g><g transform="translate(623.45 526) scale(0.050000 -0.050000)"><path d="M212 1 116 -222C111 -233 115 -238 125 -238H148C153 -238 160 -235 163 -229L452 443C457 453 456 462 445 462H423C417 462 411 459 408 451L238 52H235L72 451C69 459 63 462 56 462H35C25 462 24 453 28 443Z"/></g></g>
  <g fill="#FFFFFF" data-outlined="Brandon Text Light 50px" data-text="as trade-offs."><g transform="translate(100.00 590) scale(0.050000 -0.050000)"><path d="M44 142C44 47 108 -11 194 -11C267 -11 327 26 356 55L361 13C362 4 367 0 375 0H383C391 0 399 7 399 15V271C399 390 395 472 255 472C158 472 99 440 96 438C91 435 85 430 90 421L95 407C97 400 103 396 113 400C122 403 175 431 251 431C342 431 355 379 355 277C343 281 289 298 236 298C115 298 44 231 44 142ZM87 143C87 211 148 259 236 259C291 259 340 242 355 235V102C333 74 269 32 199 32C135 32 87 77 87 143Z"/></g><g transform="translate(123.95 590) scale(0.050000 -0.050000)"><path d="M60 40C85 21 133 -11 211 -11C304 -11 370 43 370 113C370 201 298 227 212 259C144 284 98 309 98 355C98 390 129 431 202 431C251 431 301 407 312 401C320 397 328 397 332 405L338 416C342 424 339 432 332 437C309 451 263 472 202 472C96 472 54 404 54 354C54 281 111 249 192 220C270 191 326 166 326 113C326 64 281 30 211 30C146 30 97 65 85 75C77 81 68 80 64 73L55 57C51 50 55 44 60 40Z"/></g><g transform="translate(156.65 590) scale(0.050000 -0.050000)"><path d="M105 112C105 46 120 -11 206 -11C269 -11 323 20 340 33C346 38 348 43 344 51L336 65C333 70 329 75 318 69C304 60 263 32 212 32C159 32 149 57 149 117V419H312C322 419 328 425 328 434V447C328 455 322 462 312 462H149V589C149 597 142 605 134 604L121 603C112 602 105 597 105 588V462H49C40 462 34 459 34 450V434C34 425 37 419 49 419H105Z"/></g><g transform="translate(174.80 590) scale(0.050000 -0.050000)"><path d="M84 15C84 7 88 0 97 0H113C123 0 128 5 128 15V350C131 357 178 429 268 429C300 429 325 417 330 414C338 410 346 411 349 420L355 438C358 447 353 456 343 459C334 462 308 472 271 472C185 472 136 418 124 402L119 449C118 458 113 462 106 462H99C90 462 84 455 84 447Z"/></g><g transform="translate(193.50 590) scale(0.050000 -0.050000)"><path d="M44 142C44 47 108 -11 194 -11C267 -11 327 26 356 55L361 13C362 4 367 0 375 0H383C391 0 399 7 399 15V271C399 390 395 472 255 472C158 472 99 440 96 438C91 435 85 430 90 421L95 407C97 400 103 396 113 400C122 403 175 431 251 431C342 431 355 379 355 277C343 281 289 298 236 298C115 298 44 231 44 142ZM87 143C87 211 148 259 236 259C291 259 340 242 355 235V102C333 74 269 32 199 32C135 32 87 77 87 143Z"/></g><g transform="translate(217.45 590) scale(0.050000 -0.050000)"><path d="M53 231C53 96 143 -11 263 -11C352 -11 412 40 425 56L428 15C430 4 436 0 445 0H451C458 0 466 7 466 15V685C466 693 458 700 452 700H437C427 700 422 693 422 685V427C422 427 365 472 276 472C145 472 53 364 53 231ZM97 231C97 340 176 429 282 429C366 429 422 377 422 377V110C420 105 367 32 266 32C169 32 97 124 97 231Z"/></g><g transform="translate(244.95 590) scale(0.050000 -0.050000)"><path d="M53 232C53 97 140 -11 276 -11C349 -11 417 21 444 43C452 49 453 57 449 61L438 78C433 85 428 84 418 78C390 59 341 32 276 32C177 32 99 114 97 217H466C483 217 483 244 483 262C483 380 398 472 276 472C140 472 53 363 53 232ZM98 258C104 354 176 429 276 429C380 429 439 349 439 258Z"/></g><g transform="translate(271.40 590) scale(0.050000 -0.050000)"><path d="M84 231H310C317 231 323 237 323 244V255C323 263 317 268 310 268H84C77 268 72 263 72 255V244C72 237 77 231 84 231Z"/></g><g transform="translate(291.15 590) scale(0.050000 -0.050000)"><path d="M52 232C52 97 152 -11 284 -11C413 -11 516 97 516 232C516 363 413 472 284 472C152 472 52 363 52 232ZM96 232C96 340 179 429 284 429C387 429 469 340 469 232C469 121 387 32 284 32C179 32 96 121 96 232Z"/></g><g transform="translate(319.55 590) scale(0.050000 -0.050000)"><path d="M111 15C111 7 118 0 125 0H140C149 0 155 7 155 15V419H329C340 419 345 425 345 432V448C345 457 339 462 329 462H155V533C155 619 189 667 262 667C305 667 337 650 364 629C372 623 378 623 384 630L394 642C398 646 397 654 391 661C371 683 321 710 262 710C162 710 111 642 111 533V462H38C30 462 24 455 24 447V434C24 427 28 419 38 419H111Z"/></g><g transform="translate(337.85 590) scale(0.050000 -0.050000)"><path d="M111 15C111 7 118 0 125 0H140C149 0 155 7 155 15V419H329C340 419 345 425 345 432V448C345 457 339 462 329 462H155V533C155 619 189 667 262 667C305 667 337 650 364 629C372 623 378 623 384 630L394 642C398 646 397 654 391 661C371 683 321 710 262 710C162 710 111 642 111 533V462H38C30 462 24 455 24 447V434C24 427 28 419 38 419H111Z"/></g><g transform="translate(356.15 590) scale(0.050000 -0.050000)"><path d="M60 40C85 21 133 -11 211 -11C304 -11 370 43 370 113C370 201 298 227 212 259C144 284 98 309 98 355C98 390 129 431 202 431C251 431 301 407 312 401C320 397 328 397 332 405L338 416C342 424 339 432 332 437C309 451 263 472 202 472C96 472 54 404 54 354C54 281 111 249 192 220C270 191 326 166 326 113C326 64 281 30 211 30C146 30 97 65 85 75C77 81 68 80 64 73L55 57C51 50 55 44 60 40Z"/></g><g transform="translate(376.85 590) scale(0.050000 -0.050000)"><path d="M65 31C65 8 84 -11 108 -11C132 -11 150 8 150 31C150 56 132 73 108 73C84 73 65 56 65 31Z"/></g></g>
  <g fill="#FFFFFF" data-outlined="Brandon Text Light 50px" data-text="F1R3FLY treats them"><g transform="translate(100.00 654) scale(0.050000 -0.050000)"><path d="M101 13C101 6 107 0 114 0H132C142 0 148 6 148 13V311H466C481 311 479 329 479 340C479 347 473 353 466 353H148V657H515C522 657 528 663 528 670V687C528 694 522 700 515 700H114C107 700 101 694 101 687Z"/></g><g transform="translate(127.90 654) scale(0.050000 -0.050000)"><path d="M179 630V13C179 6 185 0 192 0H213C220 0 226 6 226 13V688C226 696 219 700 211 700H205C198 700 192 699 187 694L31 561C26 557 24 551 29 546L41 532C45 526 51 526 56 530L178 630Z"/></g><g transform="translate(144.65 654) scale(0.050000 -0.050000)"><path d="M101 13C101 6 107 0 114 0H132C142 0 148 6 148 13V270H332C345 270 356 270 369 271L512 12C517 3 521 0 533 0H559C569 0 571 10 566 18L420 277C515 304 585 388 585 489C585 611 484 700 362 700H114C106 700 101 694 101 687ZM149 316V654H359C456 654 537 584 537 489C537 390 456 316 360 316Z"/></g><g transform="translate(176.85 654) scale(0.050000 -0.050000)"><path d="M60 81C82 56 141 -10 268 -10C411 -10 500 75 500 188C500 271 432 339 365 359C365 361 365 361 365 362C423 383 482 447 482 527C482 637 395 710 277 710C153 710 81 618 81 618C76 613 76 605 82 601L98 588C104 583 111 585 115 590C127 604 179 666 277 666C364 666 433 609 433 522C433 418 342 380 267 380H172C162 380 157 376 157 368V349C157 339 160 336 171 336H267C357 336 452 285 452 185C452 92 376 31 270 31C158 31 120 82 95 109C89 116 83 118 76 112L60 99C54 94 54 88 60 81Z"/></g><g transform="translate(205.40 654) scale(0.050000 -0.050000)"><path d="M101 13C101 6 107 0 114 0H132C142 0 148 6 148 13V311H466C481 311 479 329 479 340C479 347 473 353 466 353H148V657H515C522 657 528 663 528 670V687C528 694 522 700 515 700H114C107 700 101 694 101 687Z"/></g><g transform="translate(233.30 654) scale(0.050000 -0.050000)"><path d="M101 13C101 6 107 0 114 0H467C474 0 480 4 480 11V29C480 36 479 42 467 42H148V687C148 694 142 700 136 700H114C107 700 101 694 101 687Z"/></g><g transform="translate(258.00 654) scale(0.050000 -0.050000)"><path d="M259 13C259 -3 280 0 293 0C300 0 306 6 306 13V341L566 685C572 693 568 700 558 700H528C523 700 518 698 515 694L283 383L55 694C52 698 47 700 42 700H12C2 700 -2 693 4 685L259 340Z"/></g><g transform="translate(298.30 654) scale(0.050000 -0.050000)"><path d="M105 112C105 46 120 -11 206 -11C269 -11 323 20 340 33C346 38 348 43 344 51L336 65C333 70 329 75 318 69C304 60 263 32 212 32C159 32 149 57 149 117V419H312C322 419 328 425 328 434V447C328 455 322 462 312 462H149V589C149 597 142 605 134 604L121 603C112 602 105 597 105 588V462H49C40 462 34 459 34 450V434C34 425 37 419 49 419H105Z"/></g><g transform="translate(316.45 654) scale(0.050000 -0.050000)"><path d="M84 15C84 7 88 0 97 0H113C123 0 128 5 128 15V350C131 357 178 429 268 429C300 429 325 417 330 414C338 410 346 411 349 420L355 438C358 447 353 456 343 459C334 462 308 472 271 472C185 472 136 418 124 402L119 449C118 458 113 462 106 462H99C90 462 84 455 84 447Z"/></g><g transform="translate(335.15 654) scale(0.050000 -0.050000)"><path d="M53 232C53 97 140 -11 276 -11C349 -11 417 21 444 43C452 49 453 57 449 61L438 78C433 85 428 84 418 78C390 59 341 32 276 32C177 32 99 114 97 217H466C483 217 483 244 483 262C483 380 398 472 276 472C140 472 53 363 53 232ZM98 258C104 354 176 429 276 429C380 429 439 349 439 258Z"/></g><g transform="translate(361.60 654) scale(0.050000 -0.050000)"><path d="M44 142C44 47 108 -11 194 -11C267 -11 327 26 356 55L361 13C362 4 367 0 375 0H383C391 0 399 7 399 15V271C399 390 395 472 255 472C158 472 99 440 96 438C91 435 85 430 90 421L95 407C97 400 103 396 113 400C122 403 175 431 251 431C342 431 355 379 355 277C343 281 289 298 236 298C115 298 44 231 44 142ZM87 143C87 211 148 259 236 259C291 259 340 242 355 235V102C333 74 269 32 199 32C135 32 87 77 87 143Z"/></g><g transform="translate(385.55 654) scale(0.050000 -0.050000)"><path d="M105 112C105 46 120 -11 206 -11C269 -11 323 20 340 33C346 38 348 43 344 51L336 65C333 70 329 75 318 69C304 60 263 32 212 32C159 32 149 57 149 117V419H312C322 419 328 425 328 434V447C328 455 322 462 312 462H149V589C149 597 142 605 134 604L121 603C112 602 105 597 105 588V462H49C40 462 34 459 34 450V434C34 425 37 419 49 419H105Z"/></g><g transform="translate(403.70 654) scale(0.050000 -0.050000)"><path d="M60 40C85 21 133 -11 211 -11C304 -11 370 43 370 113C370 201 298 227 212 259C144 284 98 309 98 355C98 390 129 431 202 431C251 431 301 407 312 401C320 397 328 397 332 405L338 416C342 424 339 432 332 437C309 451 263 472 202 472C96 472 54 404 54 354C54 281 111 249 192 220C270 191 326 166 326 113C326 64 281 30 211 30C146 30 97 65 85 75C77 81 68 80 64 73L55 57C51 50 55 44 60 40Z"/></g><g transform="translate(436.40 654) scale(0.050000 -0.050000)"><path d="M105 112C105 46 120 -11 206 -11C269 -11 323 20 340 33C346 38 348 43 344 51L336 65C333 70 329 75 318 69C304 60 263 32 212 32C159 32 149 57 149 117V419H312C322 419 328 425 328 434V447C328 455 322 462 312 462H149V589C149 597 142 605 134 604L121 603C112 602 105 597 105 588V462H49C40 462 34 459 34 450V434C34 425 37 419 49 419H105Z"/></g><g transform="translate(454.55 654) scale(0.050000 -0.050000)"><path d="M84 15C84 7 88 0 97 0H113C123 0 128 5 128 15V344C141 360 196 429 285 429C374 429 416 375 416 268V15C416 7 423 0 431 0H445C453 0 460 7 460 15V268C460 397 408 472 287 472C197 472 142 415 128 400V685C128 693 120 700 113 700H100C90 700 84 693 84 685Z"/></g><g transform="translate(481.50 654) scale(0.050000 -0.050000)"><path d="M53 232C53 97 140 -11 276 -11C349 -11 417 21 444 43C452 49 453 57 449 61L438 78C433 85 428 84 418 78C390 59 341 32 276 32C177 32 99 114 97 217H466C483 217 483 244 483 262C483 380 398 472 276 472C140 472 53 363 53 232ZM98 258C104 354 176 429 276 429C380 429 439 349 439 258Z"/></g><g transform="translate(507.95 654) scale(0.050000 -0.050000)"><path d="M84 15C84 7 88 0 97 0H113C123 0 128 5 128 15V350C133 360 178 429 272 429C359 429 400 375 400 268V15C400 5 405 0 414 0H429C436 0 444 7 444 15V268C444 299 442 324 435 348C450 366 492 429 578 429C665 429 705 375 705 268V15C705 5 710 0 717 0H734C743 0 749 7 749 15V268C749 387 708 472 582 472C487 472 434 408 420 390C389 442 348 472 277 472C184 472 137 418 124 401L118 450C117 458 114 462 107 462H99C90 462 84 455 84 447Z"/></g></g>
  <g fill="#FFFFFF" data-outlined="Brandon Text Light 50px" data-text="as non-negotiables."><g transform="translate(100.00 718) scale(0.050000 -0.050000)"><path d="M44 142C44 47 108 -11 194 -11C267 -11 327 26 356 55L361 13C362 4 367 0 375 0H383C391 0 399 7 399 15V271C399 390 395 472 255 472C158 472 99 440 96 438C91 435 85 430 90 421L95 407C97 400 103 396 113 400C122 403 175 431 251 431C342 431 355 379 355 277C343 281 289 298 236 298C115 298 44 231 44 142ZM87 143C87 211 148 259 236 259C291 259 340 242 355 235V102C333 74 269 32 199 32C135 32 87 77 87 143Z"/></g><g transform="translate(123.95 718) scale(0.050000 -0.050000)"><path d="M60 40C85 21 133 -11 211 -11C304 -11 370 43 370 113C370 201 298 227 212 259C144 284 98 309 98 355C98 390 129 431 202 431C251 431 301 407 312 401C320 397 328 397 332 405L338 416C342 424 339 432 332 437C309 451 263 472 202 472C96 472 54 404 54 354C54 281 111 249 192 220C270 191 326 166 326 113C326 64 281 30 211 30C146 30 97 65 85 75C77 81 68 80 64 73L55 57C51 50 55 44 60 40Z"/></g><g transform="translate(156.65 718) scale(0.050000 -0.050000)"><path d="M84 15C84 7 88 0 97 0H113C123 0 128 5 128 15V350C132 356 191 429 285 429C374 429 417 375 417 268V15C417 7 424 0 432 0H446C454 0 461 7 461 15V270C461 391 418 472 287 472C195 472 139 417 124 401L119 450C118 458 114 462 105 462H100C90 462 84 455 84 447Z"/></g><g transform="translate(183.65 718) scale(0.050000 -0.050000)"><path d="M52 232C52 97 152 -11 284 -11C413 -11 516 97 516 232C516 363 413 472 284 472C152 472 52 363 52 232ZM96 232C96 340 179 429 284 429C387 429 469 340 469 232C469 121 387 32 284 32C179 32 96 121 96 232Z"/></g><g transform="translate(212.05 718) scale(0.050000 -0.050000)"><path d="M84 15C84 7 88 0 97 0H113C123 0 128 5 128 15V350C132 356 191 429 285 429C374 429 417 375 417 268V15C417 7 424 0 432 0H446C454 0 461 7 461 15V270C461 391 418 472 287 472C195 472 139 417 124 401L119 450C118 458 114 462 105 462H100C90 462 84 455 84 447Z"/></g><g transform="translate(239.05 718) scale(0.050000 -0.050000)"><path d="M84 231H310C317 231 323 237 323 244V255C323 263 317 268 310 268H84C77 268 72 263 72 255V244C72 237 77 231 84 231Z"/></g><g transform="translate(258.80 718) scale(0.050000 -0.050000)"><path d="M84 15C84 7 88 0 97 0H113C123 0 128 5 128 15V350C132 356 191 429 285 429C374 429 417 375 417 268V15C417 7 424 0 432 0H446C454 0 461 7 461 15V270C461 391 418 472 287 472C195 472 139 417 124 401L119 450C118 458 114 462 105 462H100C90 462 84 455 84 447Z"/></g><g transform="translate(285.80 718) scale(0.050000 -0.050000)"><path d="M53 232C53 97 140 -11 276 -11C349 -11 417 21 444 43C452 49 453 57 449 61L438 78C433 85 428 84 418 78C390 59 341 32 276 32C177 32 99 114 97 217H466C483 217 483 244 483 262C483 380 398 472 276 472C140 472 53 363 53 232ZM98 258C104 354 176 429 276 429C380 429 439 349 439 258Z"/></g><g transform="translate(312.25 718) scale(0.050000 -0.050000)"><path d="M423 88C417 82 362 32 284 32C172 32 97 120 97 233C97 340 168 429 274 429C363 429 417 376 423 368ZM423 -12C423 -121 353 -176 262 -176C204 -176 152 -144 134 -129C125 -122 120 -122 114 -129L104 -142C100 -148 99 -152 106 -159C126 -178 185 -219 262 -219C378 -219 467 -145 467 -12V447C467 457 459 462 451 462H445C437 462 433 459 432 450L428 418C414 429 357 472 272 472C144 472 53 367 53 232C53 96 149 -11 283 -11C360 -11 410 26 423 37Z"/></g><g transform="translate(339.80 718) scale(0.050000 -0.050000)"><path d="M52 232C52 97 152 -11 284 -11C413 -11 516 97 516 232C516 363 413 472 284 472C152 472 52 363 52 232ZM96 232C96 340 179 429 284 429C387 429 469 340 469 232C469 121 387 32 284 32C179 32 96 121 96 232Z"/></g><g transform="translate(368.20 718) scale(0.050000 -0.050000)"><path d="M105 112C105 46 120 -11 206 -11C269 -11 323 20 340 33C346 38 348 43 344 51L336 65C333 70 329 75 318 69C304 60 263 32 212 32C159 32 149 57 149 117V419H312C322 419 328 425 328 434V447C328 455 322 462 312 462H149V589C149 597 142 605 134 604L121 603C112 602 105 597 105 588V462H49C40 462 34 459 34 450V434C34 425 37 419 49 419H105Z"/></g><g transform="translate(386.35 718) scale(0.050000 -0.050000)"><path d="M84 15C84 7 88 0 97 0H113C123 0 128 5 128 15V447C128 455 120 462 113 462H99C90 462 84 455 84 447ZM105 590C127 590 144 607 144 628C144 650 127 667 105 667C83 667 65 650 65 628C65 607 83 590 105 590Z"/></g><g transform="translate(396.95 718) scale(0.050000 -0.050000)"><path d="M44 142C44 47 108 -11 194 -11C267 -11 327 26 356 55L361 13C362 4 367 0 375 0H383C391 0 399 7 399 15V271C399 390 395 472 255 472C158 472 99 440 96 438C91 435 85 430 90 421L95 407C97 400 103 396 113 400C122 403 175 431 251 431C342 431 355 379 355 277C343 281 289 298 236 298C115 298 44 231 44 142ZM87 143C87 211 148 259 236 259C291 259 340 242 355 235V102C333 74 269 32 199 32C135 32 87 77 87 143Z"/></g><g transform="translate(420.90 718) scale(0.050000 -0.050000)"><path d="M497 231C497 364 405 472 274 472C185 472 128 427 128 427V685C128 693 123 700 113 700H98C92 700 84 693 84 685V15C84 7 92 0 99 0H105C114 0 120 4 122 15L125 56C138 40 198 -11 287 -11C407 -11 497 96 497 231ZM453 231C453 124 381 32 284 32C183 32 130 105 128 110V377C128 377 184 429 268 429C374 429 453 340 453 231Z"/></g><g transform="translate(448.40 718) scale(0.050000 -0.050000)"><path d="M90 15C90 7 94 0 103 0H119C129 0 134 5 134 15V685C134 693 126 700 119 700H105C96 700 90 693 90 685Z"/></g><g transform="translate(459.60 718) scale(0.050000 -0.050000)"><path d="M53 232C53 97 140 -11 276 -11C349 -11 417 21 444 43C452 49 453 57 449 61L438 78C433 85 428 84 418 78C390 59 341 32 276 32C177 32 99 114 97 217H466C483 217 483 244 483 262C483 380 398 472 276 472C140 472 53 363 53 232ZM98 258C104 354 176 429 276 429C380 429 439 349 439 258Z"/></g><g transform="translate(486.05 718) scale(0.050000 -0.050000)"><path d="M60 40C85 21 133 -11 211 -11C304 -11 370 43 370 113C370 201 298 227 212 259C144 284 98 309 98 355C98 390 129 431 202 431C251 431 301 407 312 401C320 397 328 397 332 405L338 416C342 424 339 432 332 437C309 451 263 472 202 472C96 472 54 404 54 354C54 281 111 249 192 220C270 191 326 166 326 113C326 64 281 30 211 30C146 30 97 65 85 75C77 81 68 80 64 73L55 57C51 50 55 44 60 40Z"/></g><g transform="translate(506.75 718) scale(0.050000 -0.050000)"><path d="M65 31C65 8 84 -11 108 -11C132 -11 150 8 150 31C150 56 132 73 108 73C84 73 65 56 65 31Z"/></g></g>
  <text x="100" y="800" class="bold" fill="#F3D630" font-size="28">— Greg Meredith</text>
  <text x="100" y="836" class="body-medium" fill="#8BB999" font-size="22">Founder, F1R3FLY Industries</text>
  <rect x="100" y="947" width="875" height="1" fill="url(#brand_gradient_h)"/>

<g id="logo-io-horz" transform="translate(98.6,88.8) scale(0.125)">
  <defs>
    <linearGradient id="ih_lg" x1="620.975" y1="117.901" x2="793.518" y2="-180.951" gradientTransform="translate(-545.342 290.672) rotate(-4.856)" gradientUnits="userSpaceOnUse">
      <stop offset="0" stop-color="#009188"/><stop offset="1" stop-color="#007bc4"/>
    </linearGradient>
    <linearGradient id="ih_lg1" x1="10868.88" y1="2958.368" x2="11042.919" y2="2656.923" gradientTransform="translate(11539.772 2556.8) rotate(-153.904) scale(1 -1)" gradientUnits="userSpaceOnUse">
      <stop offset="0" stop-color="#deffac"/><stop offset="1" stop-color="#8fc8e7"/>
    </linearGradient>
    <linearGradient id="ih_lg2" x1="1278.548" y1="-693.973" x2="1379.282" y2="-693.973" gradientTransform="translate(-816.84 975.667) rotate(-11.485)" xlink:href="#ih_lg"/>
    <radialGradient id="ih_rg" cx="-507.17" cy="1315.506" fx="-507.17" fy="1166.669" r="148.898" gradientTransform="translate(-462.725 1690.402) rotate(-169.698) scale(1.001 1.048) skewX(.542)" gradientUnits="userSpaceOnUse">
      <stop offset=".159" stop-color="#ebe1a3"/><stop offset=".243" stop-color="#ebdf96"/><stop offset=".395" stop-color="#eedc75"/><stop offset=".598" stop-color="#f1d741"/><stop offset=".658" stop-color="#f3d630"/><stop offset=".995" stop-color="#f3d630"/>
    </radialGradient>
  </defs>
  <path fill="url(#ih_lg)" d="M316.697,105.798c-37.703,124.422-167.35,232.91-298.749,218.058-19.188-3.649-20.283-20.828-15.672-37.06C31.864,162.855,152.312,70.533,276.989,74.429c21.882.057,44.988,2.747,39.708,31.368Z"/>
  <path fill="url(#ih_lg1)" d="M349.717,112.154c-8.765,129.993,73.792,279.334,201.506,314.364,19.172,3.736,26.255-11.869,27.685-28.713,16.157-126.526-63.53-257.377-181.112-300.119-20.416-8.086-42.901-14.173-48.079,14.468Z"/>
  <path fill="url(#ih_lg2)" d="M400.519,44.343c1.708-41.624-83.95-62.735-103.871-23.736-3.572,6.996-.071,15.53,6.922,17.387,25.852,6.863,56.168,11.194,82.282,18.292,7.128,1.934,14.336-3.926,14.667-11.944Z"/>
  <path fill="url(#ih_rg)" d="M378.911,353.267c-46.405,267.616-227.024,226.916-174.919-34.206,44.206-27.89,81.981-64.979,110.028-108.046,11.008,50.816,33.273,99.674,64.892,142.252Z"/>
  <g fill="#fff">
    <path d="M755.273,169.256c0-2.975,2.379-5.652,5.652-5.652h121.068c3.271,0,5.652,2.677,5.652,5.652v24.391c0,2.975-2.381,5.652-5.652,5.652h-88.049v55.924h73.473c2.975,0,5.652,2.677,5.652,5.652v24.392c0,2.974-2.677,5.652-5.652,5.652h-73.473v75.258c0,2.975-2.678,5.652-5.652,5.652h-27.367c-3.272,0-5.652-2.677-5.652-5.652v-196.92Z"/>
    <path d="M952.779,223.691l-26.177,5.652c-2.677.595-5.652-1.189-5.949-3.867l-1.785-14.576c-.297-2.379.297-4.164,1.488-5.353l42.834-35.993h20.822c2.975,0,5.355,2.677,5.355,5.652v190.971c0,2.975-2.379,5.652-5.355,5.652h-25.581c-3.272,0-5.652-2.677-5.652-5.652v-142.485Z"/>
    <path d="M1058.965,169.256c0-2.975,2.379-5.652,5.652-5.652h85.075c35.696,0,64.847,28.556,64.847,63.954,0,27.367-18.146,49.676-44.024,60.088l40.752,75.555c2.082,3.868,0,8.627-5.056,8.627h-31.234c-2.677,0-4.164-1.488-4.759-2.677l-39.563-78.828h-33.018v75.853c0,2.975-2.678,5.652-5.652,5.652h-27.367c-3.272,0-5.652-2.677-5.652-5.652v-196.92ZM1146.419,258.494c15.765,0,29.449-13.683,29.449-30.34,0-15.766-13.684-28.855-29.449-28.855h-48.486v59.195h48.486Z"/>
    <path d="M1255.873,340.892l15.171-14.576c2.677-2.379,5.355-2.379,7.734,0,.892,1.19,18.443,16.064,36.588,16.064,16.063,0,31.532-11.602,31.532-27.962,0-15.468-14.279-29.449-41.05-29.449h-16.658c-3.271,0-5.652-2.379-5.652-5.949v-18.74c0-3.867,2.082-5.949,5.652-5.949h16.658c24.392,0,36.885-12.196,36.885-27.366,0-16.361-13.683-27.366-28.854-27.366-15.468,0-24.987,8.329-30.044,14.278-2.082,2.379-5.353,2.677-8.031.297l-14.575-13.683c-2.381-2.082-2.082-5.652,0-7.734,0,0,22.606-26.177,55.923-26.177,34.506,0,63.359,21.12,63.359,54.436,0,22.905-17.253,40.157-30.639,46.404v.893c13.98,5.949,35.993,22.012,35.993,48.486,0,33.614-27.366,58.006-68.417,58.006-37.182,0-55.328-18.74-61.872-26.474-1.785-2.082-1.488-5.355.297-7.437Z"/>
    <path d="M1442.072,169.256c0-2.975,2.379-5.652,5.652-5.652h121.068c3.272,0,5.651,2.677,5.651,5.652v24.391c0,2.975-2.378,5.652-5.651,5.652h-88.049v55.924h73.473c2.975,0,5.653,2.677,5.653,5.652v24.392c0,2.974-2.678,5.652-5.653,5.652h-73.473v75.258c0,2.975-2.678,5.652-5.652,5.652h-27.367c-3.272,0-5.652-2.677-5.652-5.652v-196.92Z"/>
    <path d="M1624.705,169.256c0-2.975,2.381-5.652,5.653-5.652h27.366c2.975,0,5.651,2.677,5.651,5.652v166.876h75.853c3.272,0,5.653,2.678,5.653,5.652v24.392c0,2.975-2.381,5.652-5.653,5.652h-108.87c-3.272,0-5.653-2.677-5.653-5.652v-196.92Z"/>
    <path d="M1815.074,271.582l-67.822-99.352c-2.381-3.867,0-8.626,4.759-8.626h30.341c2.381,0,3.867,1.486,4.759,2.677l47.595,68.417,47.593-68.417c.892-1.19,2.381-2.677,4.759-2.677h30.641c4.759,0,7.137,4.759,4.759,8.626l-68.714,99.055v94.891c0,2.975-2.678,5.652-5.653,5.652h-27.366c-3.272,0-5.651-2.677-5.651-5.652v-94.594Z"/>
    <path d="M1961.416,325.721c13.387,0,24.691,11.304,24.691,24.689s-11.304,24.392-24.691,24.392-24.391-11.006-24.391-24.392,11.006-24.689,24.391-24.689Z"/>
    <path d="M2036.073,169.256c0-2.975,2.678-5.652,5.653-5.652h27.663c2.975,0,5.651,2.677,5.651,5.652v196.92c0,2.975-2.676,5.652-5.651,5.652h-27.663c-2.975,0-5.653-2.677-5.653-5.652v-196.92Z"/>
    <path d="M2235.958,160.629c59.493,0,107.086,47.891,107.086,107.384s-47.593,106.79-107.086,106.79-106.789-47.297-106.789-106.79,47.298-107.384,106.789-107.384ZM2235.958,336.132c37.481,0,68.417-30.639,68.417-68.119s-30.936-68.714-68.417-68.714-68.119,31.234-68.119,68.714,30.639,68.119,68.119,68.119Z"/>
  </g>
</g>
  <g fill="#64c4ff" data-outlined="Brandon Grotesque Bold 21px" data-text="@F1R3FLY.IO"><g transform="translate(828.00 987) scale(0.021000 -0.021000)"><path d="M32 223C32 13 166 -161 347 -227C357 -231 365 -226 369 -216L393 -153C397 -142 393 -134 382 -129C241 -70 141 60 141 223C141 460 283 607 504 607C723 607 832 466 832 283C832 182 794 92 729 92C696 92 667 108 667 198V381C667 392 658 400 648 400H631C594 400 596 384 584 351C568 368 527 410 463 410C356 410 279 321 279 201C279 86 355 -10 460 -10C523 -10 569 26 590 68H598C614 26 648 -10 717 -10C885 -10 944 156 944 288C944 529 785 710 508 710C224 710 32 507 32 223ZM383 208C386 268 421 309 469 309C517 309 550 267 555 243V206C553 151 534 97 470 97C422 97 379 144 383 208Z"/></g><g transform="translate(850.81 987) scale(0.021000 -0.021000)"><path d="M91 19C91 9 99 0 110 0H202C212 0 221 9 221 19V272H468C478 272 487 281 487 291V373C487 383 478 392 468 392H221V580H517C528 580 536 589 536 599V681C536 691 528 700 517 700H110C99 700 91 691 91 681Z"/></g><g transform="translate(864.75 987) scale(0.021000 -0.021000)"><path d="M141 19C141 9 149 0 160 0H246C256 0 264 9 264 19V661C264 671 256 680 246 680H176L32 559C28 555 26 549 27 541L33 492C34 483 44 477 53 479L141 498Z"/></g><g transform="translate(874.35 987) scale(0.021000 -0.021000)"><path d="M91 19C91 9 99 0 110 0H202C212 0 221 9 221 19V274H332L465 9C467 5 472 0 481 0H586C603 0 610 16 603 29L466 283C553 318 614 393 614 485C614 604 516 700 396 700H110C99 700 91 691 91 681ZM222 381V580H385C438 580 484 536 484 483C484 427 438 381 385 381Z"/></g><g transform="translate(890.44 987) scale(0.021000 -0.021000)"><path d="M36 79C58 53 119 -10 244 -10C382 -10 474 72 474 185C474 274 400 328 353 348V351C398 372 456 430 456 507C456 619 359 690 243 690C131 690 55 602 55 602C48 595 47 583 55 576L104 530C113 522 124 523 131 531C148 551 180 579 232 579C283 579 329 542 329 487C329 436 287 395 205 395H149C137 395 130 388 130 375V312C130 300 138 292 149 292H205C295 292 343 245 343 193C343 138 291 99 237 99C176 99 117 149 114 153C106 161 97 161 88 153L37 104C31 97 30 86 36 79Z"/></g><g transform="translate(903.50 987) scale(0.021000 -0.021000)"><path d="M91 19C91 9 99 0 110 0H202C212 0 221 9 221 19V272H468C478 272 487 281 487 291V373C487 383 478 392 468 392H221V580H517C528 580 536 589 536 599V681C536 691 528 700 517 700H110C99 700 91 691 91 681Z"/></g><g transform="translate(917.44 987) scale(0.021000 -0.021000)"><path d="M91 19C91 9 99 0 110 0H476C487 0 495 9 495 19V101C495 111 487 120 476 120H221V681C221 691 212 700 202 700H110C99 700 91 691 91 681Z"/></g><g transform="translate(930.15 987) scale(0.021000 -0.021000)"><path d="M225 19C225 9 233 0 244 0H336C346 0 355 9 355 19V338L586 671C594 684 586 700 570 700H467C459 700 454 695 451 691L291 461L131 691C128 695 123 700 115 700H13C-3 700 -11 684 -3 671L225 337Z"/></g><g transform="translate(944.49 987) scale(0.021000 -0.021000)"><path d="M35 72C35 27 72 -10 117 -10C162 -10 200 27 200 72C200 117 162 155 117 155C72 155 35 117 35 72Z"/></g><g transform="translate(951.53 987) scale(0.021000 -0.021000)"><path d="M91 19C91 9 100 0 110 0H203C213 0 222 9 222 19V681C222 691 213 700 203 700H110C100 700 91 691 91 681Z"/></g><g transform="translate(960.20 987) scale(0.021000 -0.021000)"><path d="M41 349C41 149 200 -10 400 -10C600 -10 760 149 760 349C760 549 600 710 400 710C200 710 41 549 41 349ZM171 349C171 475 274 580 400 580C526 580 630 475 630 349C630 223 526 120 400 120C274 120 171 223 171 349Z"/></g></g>
</svg>
