<?xml version="1.0" encoding="utf-8"?>
<!-- Generator: Adobe Illustrator 30.2.1, SVG Export Plug-In . SVG Version: 9.03 Build 0)  -->
<svg version="1.1" id="Layer_1" xmlns="http://www.w3.org/2000/svg" xmlns:xlink="http://www.w3.org/1999/xlink" x="0px" y="0px"
	 viewBox="0 0 1643.371 410.1" style="enable-background:new 0 0 1643.371 410.1;" xml:space="preserve">
<style type="text/css">
	.st0{fill:#010101;}
	.st1{clip-path:url(#SVGID_00000182502751742405850280000003149587214563019148_);fill:#020202;}
	.st2{fill:url(#SVGID_00000171696663489582517690000012326673787031827894_);}
	.st3{fill:url(#SVGID_00000101807407713073783170000003658554651566623117_);}
	.st4{fill:url(#SVGID_00000093178379531799105070000006115167599801650857_);}
	.st5{fill:url(#SVGID_00000083793099350671731710000010348039104574806162_);}
</style>
<g>
	<path class="st0" d="M492.098,133.658c0-2.157,1.725-4.098,4.098-4.098h87.785c2.372,0,4.098,1.941,4.098,4.098v17.686
		c0,2.157-1.726,4.098-4.098,4.098h-63.843v40.55h53.274c2.157,0,4.098,1.941,4.098,4.098v17.686c0,2.156-1.941,4.098-4.098,4.098
		h-53.274v54.568c0,2.157-1.942,4.098-4.098,4.098h-19.844c-2.373,0-4.098-1.941-4.098-4.098V133.658z"/>
	<path class="st0" d="M635.307,173.128l-18.981,4.098c-1.941,0.431-4.098-0.862-4.314-2.804l-1.294-10.569
		c-0.216-1.725,0.216-3.019,1.079-3.882l31.058-26.098h15.098c2.157,0,3.883,1.941,3.883,4.098v138.471
		c0,2.157-1.725,4.098-3.883,4.098h-18.549c-2.373,0-4.098-1.941-4.098-4.098V173.128z"/>
	<path class="st0" d="M712.301,133.658c0-2.157,1.725-4.098,4.098-4.098h61.687c25.883,0,47.02,20.706,47.02,46.372
		c0,19.844-13.157,36.02-31.922,43.569l29.549,54.784c1.51,2.805,0,6.255-3.666,6.255h-22.648c-1.941,0-3.019-1.079-3.451-1.941
		l-28.686-57.157h-23.941v55c0,2.157-1.942,4.098-4.098,4.098H716.4c-2.373,0-4.098-1.941-4.098-4.098V133.658z M775.713,198.363
		c11.431,0,21.353-9.921,21.353-21.999c0-11.432-9.922-20.922-21.353-20.922h-35.157v42.922H775.713z"/>
	<path class="st0" d="M855.077,258.109l11-10.569c1.941-1.725,3.883-1.725,5.608,0c0.647,0.863,13.373,11.648,26.529,11.648
		c11.647,0,22.863-8.413,22.863-20.275c0-11.216-10.353-21.353-29.765-21.353h-12.079c-2.372,0-4.098-1.725-4.098-4.314v-13.588
		c0-2.804,1.51-4.314,4.098-4.314h12.079c17.686,0,26.745-8.843,26.745-19.843c0-11.863-9.921-19.843-20.921-19.843
		c-11.216,0-18.118,6.039-21.785,10.353c-1.51,1.725-3.882,1.941-5.823,0.216l-10.568-9.921c-1.726-1.51-1.51-4.098,0-5.608
		c0,0,16.391-18.981,40.549-18.981c25.02,0,45.941,15.314,45.941,39.471c0,16.608-12.51,29.118-22.216,33.647v0.648
		c10.137,4.314,26.098,15.96,26.098,35.157c0,24.373-19.843,42.059-49.608,42.059c-26.96,0-40.118-13.588-44.862-19.196
		C853.567,261.991,853.782,259.619,855.077,258.109z"/>
	<path class="st0" d="M990.087,133.658c0-2.157,1.725-4.098,4.098-4.098h87.785c2.373,0,4.097,1.941,4.097,4.098v17.686
		c0,2.157-1.724,4.098-4.097,4.098h-63.843v40.55h53.274c2.157,0,4.099,1.941,4.099,4.098v17.686c0,2.156-1.942,4.098-4.099,4.098
		h-53.274v54.568c0,2.157-1.942,4.098-4.098,4.098h-19.844c-2.373,0-4.098-1.941-4.098-4.098V133.658z"/>
	<path class="st0" d="M1122.512,133.658c0-2.157,1.726-4.098,4.099-4.098h19.843c2.157,0,4.097,1.941,4.097,4.098v121h55
		c2.373,0,4.099,1.942,4.099,4.098v17.686c0,2.157-1.726,4.098-4.099,4.098h-78.94c-2.373,0-4.099-1.941-4.099-4.098V133.658z"/>
	<path class="st0" d="M1260.546,207.853l-49.177-72.039c-1.726-2.804,0-6.254,3.451-6.254h22c1.726,0,2.804,1.078,3.451,1.941
		l34.511,49.608l34.509-49.608c0.647-0.863,1.726-1.941,3.451-1.941h22.217c3.451,0,5.175,3.451,3.451,6.254l-49.824,71.824v68.804
		c0,2.157-1.942,4.098-4.099,4.098h-19.843c-2.373,0-4.097-1.941-4.097-4.098V207.853z"/>
	<path class="st0" d="M1366.657,247.109c9.707,0,17.903,8.196,17.903,17.902c0,9.706-8.196,17.686-17.903,17.686
		c-9.705,0-17.686-7.981-17.686-17.686C1348.971,255.305,1356.952,247.109,1366.657,247.109z"/>
	<path class="st0" d="M1420.79,133.658c0-2.157,1.942-4.098,4.099-4.098h20.058c2.157,0,4.097,1.941,4.097,4.098v142.784
		c0,2.157-1.94,4.098-4.097,4.098h-20.058c-2.157,0-4.099-1.941-4.099-4.098V133.658z"/>
	<path class="st0" d="M1565.724,127.403c43.138,0,77.647,34.725,77.647,77.863c0,43.138-34.509,77.432-77.647,77.432
		c-43.136,0-77.431-34.294-77.431-77.432C1488.292,162.128,1522.587,127.403,1565.724,127.403z M1565.724,254.658
		c27.177,0,49.608-22.216,49.608-49.392c0-27.176-22.431-49.824-49.608-49.824s-49.392,22.648-49.392,49.824
		C1516.331,232.442,1538.547,254.658,1565.724,254.658z"/>
</g>
<g>
	<g>
		<g>
			<defs>
				<rect id="SVGID_1_" width="410.1" height="410.1"/>
			</defs>
			<clipPath id="SVGID_00000106135408344103618950000002155259606304971655_">
				<use xlink:href="#SVGID_1_"  style="overflow:visible;"/>
			</clipPath>
			<path style="clip-path:url(#SVGID_00000106135408344103618950000002155259606304971655_);fill:#020202;" d="M205.047,410.094
				c113.246,0,205.047-91.801,205.047-205.047S318.299,0,205.047,0S0,91.801,0,205.047S91.801,410.094,205.047,410.094"/>
		</g>
	</g>
	<g>
		
			<linearGradient id="SVGID_00000155114305103414720510000018299921524548157586_" gradientUnits="userSpaceOnUse" x1="630.1024" y1="31.0133" x2="721.882" y2="-127.9537" gradientTransform="matrix(0.9964 -0.0846 0.0846 0.9964 -540.3827 261.0241)">
			<stop  offset="0" style="stop-color:#009189"/>
			<stop  offset="1" style="stop-color:#147BC1"/>
		</linearGradient>
		<path style="fill:url(#SVGID_00000155114305103414720510000018299921524548157586_);" d="M214.188,105.722
			c-20.055,66.183-89.018,123.891-158.912,115.99c-10.207-1.941-10.789-11.079-8.336-19.713
			c15.739-65.927,79.808-115.036,146.127-112.963C204.706,89.066,216.997,90.497,214.188,105.722z"/>
		
			<linearGradient id="SVGID_00000036215277533887018810000010660582457649774218_" gradientUnits="userSpaceOnUse" x1="10404.7207" y1="2738.9954" x2="10497.2969" y2="2578.6492" gradientTransform="matrix(-0.8981 -0.4399 -0.4399 0.8981 10848.6162 2396.6216)">
			<stop  offset="0" style="stop-color:#DEEAA9"/>
			<stop  offset="1" style="stop-color:#90C8E6"/>
		</linearGradient>
		<path style="fill:url(#SVGID_00000036215277533887018810000010660582457649774218_);" d="M231.752,109.103
			c-4.662,69.147,39.252,148.585,107.186,167.218c10.198,1.987,13.966-6.313,14.726-15.273
			c8.594-67.302-33.793-136.906-96.338-159.641C246.467,97.106,234.507,93.868,231.752,109.103z"/>
		
			<linearGradient id="SVGID_00000086655696828055203020000017249319474740441744_" gradientUnits="userSpaceOnUse" x1="1159.1312" y1="-615.334" x2="1212.7142" y2="-615.334" gradientTransform="matrix(0.98 -0.1991 0.1991 0.98 -809.1943 905.0748)">
			<stop  offset="0" style="stop-color:#009189"/>
			<stop  offset="1" style="stop-color:#147BC1"/>
		</linearGradient>
		<path style="fill:url(#SVGID_00000086655696828055203020000017249319474740441744_);" d="M258.775,73.032
			c0.908-22.141-44.655-33.37-55.252-12.626c-1.9,3.721-0.038,8.261,3.682,9.249c13.751,3.651,29.877,5.954,43.768,9.73
			C254.765,80.414,258.599,77.297,258.775,73.032z"/>
		
			<radialGradient id="SVGID_00000070838190035617625340000002001984692533272481_" cx="-606.3048" cy="1121.2474" r="79.203" fx="-604.0409" fy="1042.0768" gradientTransform="matrix(-0.9847 -0.179 0.1781 -1.0326 -606.8362 1323.6312)" gradientUnits="userSpaceOnUse">
			<stop  offset="0.1593" style="stop-color:#EBE1A3"/>
			<stop  offset="0.2386" style="stop-color:#ECE099"/>
			<stop  offset="0.3834" style="stop-color:#EEDD80"/>
			<stop  offset="0.576" style="stop-color:#F2D84F"/>
			<stop  offset="0.6581" style="stop-color:#F4D633"/>
			<stop  offset="0.9948" style="stop-color:#F4D633"/>
		</radialGradient>
		<path style="fill:url(#SVGID_00000070838190035617625340000002001984692533272481_);" d="M247.282,237.357
			c-24.684,142.352-120.76,120.702-93.044-18.195c23.514-14.835,43.608-34.564,58.527-57.472
			C218.62,188.72,230.463,214.709,247.282,237.357z"/>
	</g>
</g>
</svg>
