<?xml version="1.0" encoding="UTF-8"?>
<svg id="Layer_1" xmlns="http://www.w3.org/2000/svg" version="1.1" viewBox="0 0 2343.04 535.43">
  <!-- Generator: Adobe Illustrator 30.2.1, SVG Export Plug-In . SVG Version: 2.1.1 Build 1)  -->
  <defs>
    <style>
      .st0 {
        fill: #fff;
      }
    </style>
  </defs>
  <g>
    <path class="st0" d="M316.7,105.8c-37.7,124.42-167.35,232.91-298.75,218.06-19.19-3.65-20.28-20.83-15.67-37.06C31.86,162.86,152.31,70.53,276.99,74.43c21.88.06,44.99,2.75,39.71,31.37h0Z"/>
    <path class="st0" d="M349.72,112.15c-8.76,129.99,73.79,279.33,201.51,314.36,19.17,3.74,26.25-11.87,27.69-28.71,16.16-126.53-63.53-257.38-181.11-300.12-20.42-8.09-42.9-14.17-48.08,14.47h-.01Z"/>
    <path class="st0" d="M400.52,44.34c1.71-41.62-83.95-62.73-103.87-23.74-3.57,7-.07,15.53,6.92,17.39,25.85,6.86,56.17,11.19,82.28,18.29,7.13,1.93,14.34-3.93,14.67-11.94h0Z"/>
    <path class="st0" d="M378.91,353.27c-46.41,267.62-227.02,226.92-174.92-34.21,44.21-27.89,81.98-64.98,110.03-108.05,11.01,50.82,33.27,99.67,64.89,142.25v.01Z"/>
  </g>
  <g>
    <path class="st0" d="M755.27,169.26c0-2.98,2.38-5.65,5.65-5.65h121.07c3.27,0,5.65,2.68,5.65,5.65v24.39c0,2.98-2.38,5.65-5.65,5.65h-88.05v55.92h73.47c2.98,0,5.65,2.68,5.65,5.65v24.39c0,2.97-2.68,5.65-5.65,5.65h-73.47v75.26c0,2.98-2.68,5.65-5.65,5.65h-27.37c-3.27,0-5.65-2.68-5.65-5.65v-196.92.01Z"/>
    <path class="st0" d="M952.78,223.69l-26.18,5.65c-2.68.59-5.65-1.19-5.95-3.87l-1.78-14.58c-.3-2.38.3-4.16,1.49-5.35l42.83-35.99h20.82c2.98,0,5.35,2.68,5.35,5.65v190.97c0,2.98-2.38,5.65-5.35,5.65h-25.58c-3.27,0-5.65-2.68-5.65-5.65v-142.48h0Z"/>
    <path class="st0" d="M1058.97,169.26c0-2.98,2.38-5.65,5.65-5.65h85.07c35.7,0,64.85,28.56,64.85,63.95,0,27.37-18.15,49.68-44.02,60.09l40.75,75.55c2.08,3.87,0,8.63-5.06,8.63h-31.23c-2.68,0-4.16-1.49-4.76-2.68l-39.56-78.83h-33.02v75.85c0,2.98-2.68,5.65-5.65,5.65h-27.37c-3.27,0-5.65-2.68-5.65-5.65v-196.92.01ZM1146.42,258.49c15.77,0,29.45-13.68,29.45-30.34,0-15.77-13.68-28.85-29.45-28.85h-48.49v59.2h48.49v-.01Z"/>
    <path class="st0" d="M1255.87,340.89l15.17-14.58c2.68-2.38,5.35-2.38,7.73,0,.89,1.19,18.44,16.06,36.59,16.06,16.06,0,31.53-11.6,31.53-27.96,0-15.47-14.28-29.45-41.05-29.45h-16.66c-3.27,0-5.65-2.38-5.65-5.95v-18.74c0-3.87,2.08-5.95,5.65-5.95h16.66c24.39,0,36.88-12.2,36.88-27.37,0-16.36-13.68-27.37-28.85-27.37s-24.99,8.33-30.04,14.28c-2.08,2.38-5.35,2.68-8.03.3l-14.57-13.68c-2.38-2.08-2.08-5.65,0-7.73,0,0,22.61-26.18,55.92-26.18s63.36,21.12,63.36,54.44c0,22.9-17.25,40.16-30.64,46.4v.89c13.98,5.95,35.99,22.01,35.99,48.49,0,33.61-27.37,58.01-68.42,58.01-37.18,0-55.33-18.74-61.87-26.47-1.78-2.08-1.49-5.35.3-7.44h0Z"/>
    <path class="st0" d="M1442.07,169.26c0-2.98,2.38-5.65,5.65-5.65h121.07c3.27,0,5.65,2.68,5.65,5.65v24.39c0,2.98-2.38,5.65-5.65,5.65h-88.05v55.92h73.47c2.98,0,5.65,2.68,5.65,5.65v24.39c0,2.97-2.68,5.65-5.65,5.65h-73.47v75.26c0,2.98-2.68,5.65-5.65,5.65h-27.37c-3.27,0-5.65-2.68-5.65-5.65v-196.92.01Z"/>
    <path class="st0" d="M1624.7,169.26c0-2.98,2.38-5.65,5.65-5.65h27.37c2.98,0,5.65,2.68,5.65,5.65v166.88h75.85c3.27,0,5.65,2.68,5.65,5.65v24.39c0,2.98-2.38,5.65-5.65,5.65h-108.87c-3.27,0-5.65-2.68-5.65-5.65v-196.92Z"/>
    <path class="st0" d="M1815.07,271.58l-67.82-99.35c-2.38-3.87,0-8.63,4.76-8.63h30.34c2.38,0,3.87,1.49,4.76,2.68l47.6,68.42,47.59-68.42c.89-1.19,2.38-2.68,4.76-2.68h30.64c4.76,0,7.14,4.76,4.76,8.63l-68.71,99.06v94.89c0,2.98-2.68,5.65-5.65,5.65h-27.37c-3.27,0-5.65-2.68-5.65-5.65v-94.59l-.01-.01Z"/>
    <path class="st0" d="M1961.42,325.72c13.39,0,24.69,11.3,24.69,24.69s-11.3,24.39-24.69,24.39-24.39-11.01-24.39-24.39,11.01-24.69,24.39-24.69h0Z"/>
    <path class="st0" d="M2036.07,169.26c0-2.98,2.68-5.65,5.65-5.65h27.66c2.98,0,5.65,2.68,5.65,5.65v196.92c0,2.98-2.68,5.65-5.65,5.65h-27.66c-2.98,0-5.65-2.68-5.65-5.65v-196.92h0Z"/>
    <path class="st0" d="M2235.96,160.63c59.49,0,107.09,47.89,107.09,107.38s-47.59,106.79-107.09,106.79-106.79-47.3-106.79-106.79,47.3-107.38,106.79-107.38ZM2235.96,336.13c37.48,0,68.42-30.64,68.42-68.12s-30.94-68.71-68.42-68.71-68.12,31.23-68.12,68.71,30.64,68.12,68.12,68.12Z"/>
  </g>
</svg>