<?xml version="1.0" encoding="utf-8"?>
<!-- Generator: Adobe Illustrator 30.2.1, SVG Export Plug-In . SVG Version: 9.03 Build 0)  -->
<svg version="1.1" id="Layer_1" xmlns="http://www.w3.org/2000/svg" xmlns:xlink="http://www.w3.org/1999/xlink" x="0px" y="0px"
	 viewBox="0 0 959.394 620.756" style="enable-background:new 0 0 959.394 620.756;" xml:space="preserve">
<style type="text/css">
	.st0{clip-path:url(#SVGID_00000091701751824228339420000003671871757498884770_);fill:#020202;}
	.st1{fill:#FFFFFF;}
	.st2{fill:#010101;}
</style>
<g>
	<g>
		<g>
			<defs>
				<rect id="SVGID_1_" x="274.647" width="410.1" height="410.1"/>
			</defs>
			<clipPath id="SVGID_00000138536624145176826490000011044186766984111016_">
				<use xlink:href="#SVGID_1_"  style="overflow:visible;"/>
			</clipPath>
			<path style="clip-path:url(#SVGID_00000138536624145176826490000011044186766984111016_);fill:#020202;" d="M479.694,410.094
				c113.246,0,205.047-91.801,205.047-205.047S592.946,0,479.694,0S274.647,91.801,274.647,205.047S366.447,410.094,479.694,410.094
				"/>
		</g>
	</g>
	<g>
		<path class="st1" d="M488.835,105.721c-20.055,66.183-89.018,123.891-158.912,115.99c-10.207-1.941-10.789-11.079-8.336-19.713
			c15.739-65.927,79.809-115.035,146.127-112.963C479.353,89.066,491.644,90.497,488.835,105.721z"/>
		<path class="st1" d="M506.399,109.103c-4.662,69.147,39.252,148.585,107.186,167.218c10.198,1.987,13.966-6.313,14.726-15.273
			c8.594-67.302-33.793-136.905-96.338-159.641C521.114,97.106,509.154,93.868,506.399,109.103z"/>
		<path class="st1" d="M533.422,73.032c0.908-22.141-44.655-33.37-55.252-12.626c-1.9,3.721-0.038,8.261,3.682,9.249
			c13.751,3.651,29.877,5.954,43.768,9.73C529.412,80.414,533.246,77.297,533.422,73.032z"/>
		<path class="st1" d="M521.929,237.357c-24.684,142.352-120.76,120.702-93.044-18.195c23.514-14.835,43.608-34.564,58.527-57.472
			C493.266,188.719,505.11,214.708,521.929,237.357z"/>
	</g>
</g>
<g>
	<path class="st2" d="M0,496.556c0-1.798,1.438-3.415,3.415-3.415h73.154c1.977,0,3.415,1.617,3.415,3.415v14.738
		c0,1.798-1.438,3.415-3.415,3.415H23.367v33.791h44.395c1.798,0,3.415,1.617,3.415,3.415v14.739c0,1.797-1.617,3.415-3.415,3.415
		H23.367v45.474c0,1.798-1.618,3.415-3.415,3.415H3.415c-1.977,0-3.415-1.617-3.415-3.415V496.556z"/>
	<path class="st2" d="M119.341,529.448l-15.817,3.415c-1.617,0.359-3.415-0.719-3.595-2.337l-1.078-8.807
		c-0.18-1.438,0.18-2.516,0.899-3.235l25.882-21.748h12.582c1.798,0,3.235,1.617,3.235,3.415v115.392
		c0,1.798-1.438,3.415-3.235,3.415h-15.457c-1.977,0-3.415-1.617-3.415-3.415V529.448z"/>
	<path class="st2" d="M183.503,496.556c0-1.798,1.438-3.415,3.415-3.415h51.406c21.569,0,39.183,17.255,39.183,38.643
		c0,16.536-10.964,30.016-26.601,36.308l24.624,45.653c1.258,2.337,0,5.213-3.055,5.213h-18.873c-1.617,0-2.516-0.899-2.875-1.617
		L226.82,569.71h-19.951v45.833c0,1.798-1.618,3.415-3.415,3.415h-16.536c-1.977,0-3.415-1.617-3.415-3.415V496.556z
		 M236.346,550.477c9.526,0,17.795-8.268,17.795-18.333c0-9.527-8.269-17.435-17.795-17.435h-29.297v35.768H236.346z"/>
	<path class="st2" d="M302.482,600.266l9.167-8.807c1.617-1.438,3.235-1.438,4.673,0c0.539,0.719,11.144,9.706,22.108,9.706
		c9.706,0,19.053-7.01,19.053-16.896c0-9.346-8.628-17.794-24.804-17.794h-10.066c-1.977,0-3.415-1.438-3.415-3.595v-11.324
		c0-2.337,1.258-3.595,3.415-3.595h10.066c14.739,0,22.287-7.369,22.287-16.536c0-9.886-8.268-16.536-17.435-16.536
		c-9.346,0-15.098,5.032-18.154,8.627c-1.258,1.438-3.235,1.617-4.853,0.18l-8.807-8.268c-1.438-1.258-1.258-3.415,0-4.673
		c0,0,13.66-15.817,33.791-15.817c20.85,0,38.284,12.761,38.284,32.892c0,13.84-10.425,24.265-18.513,28.039v0.54
		c8.447,3.595,21.748,13.3,21.748,29.297c0,20.311-16.536,35.049-41.34,35.049c-22.467,0-33.431-11.324-37.385-15.997
		C301.224,603.501,301.403,601.524,302.482,600.266z"/>
	<path class="st2" d="M414.991,496.556c0-1.798,1.438-3.415,3.415-3.415h73.154c1.977,0,3.414,1.617,3.414,3.415v14.738
		c0,1.798-1.437,3.415-3.414,3.415h-53.203v33.791h44.395c1.798,0,3.416,1.617,3.416,3.415v14.739c0,1.797-1.618,3.415-3.416,3.415
		h-44.395v45.474c0,1.798-1.618,3.415-3.415,3.415h-16.536c-1.977,0-3.415-1.617-3.415-3.415V496.556z"/>
	<path class="st2" d="M525.344,496.556c0-1.798,1.438-3.415,3.416-3.415h16.536c1.798,0,3.414,1.617,3.414,3.415v100.833h45.833
		c1.977,0,3.416,1.618,3.416,3.415v14.739c0,1.798-1.438,3.415-3.416,3.415H528.76c-1.977,0-3.416-1.617-3.416-3.415V496.556z"/>
	<path class="st2" d="M640.373,558.386l-40.981-60.033c-1.438-2.337,0-5.212,2.875-5.212h18.333c1.438,0,2.337,0.898,2.875,1.617
		l28.759,41.34l28.758-41.34c0.539-0.719,1.438-1.617,2.875-1.617h18.514c2.875,0,4.313,2.875,2.875,5.212l-41.52,59.853v57.337
		c0,1.798-1.618,3.415-3.416,3.415h-16.536c-1.977,0-3.414-1.617-3.414-3.415V558.386z"/>
	<path class="st2" d="M728.799,591.099c8.089,0,14.919,6.83,14.919,14.918c0,8.088-6.83,14.739-14.919,14.739
		c-8.088,0-14.738-6.651-14.738-14.739C714.061,597.929,720.711,591.099,728.799,591.099z"/>
	<path class="st2" d="M773.909,496.556c0-1.798,1.618-3.415,3.416-3.415h16.715c1.798,0,3.414,1.617,3.414,3.415v118.987
		c0,1.798-1.617,3.415-3.414,3.415h-16.715c-1.798,0-3.416-1.617-3.416-3.415V496.556z"/>
	<path class="st2" d="M894.688,491.344c35.948,0,64.706,28.938,64.706,64.885c0,35.948-28.758,64.527-64.706,64.527
		c-35.947,0-64.526-28.579-64.526-64.527C830.162,520.281,858.741,491.344,894.688,491.344z M894.688,597.389
		c22.647,0,41.34-18.513,41.34-41.16c0-22.647-18.693-41.52-41.34-41.52c-22.647,0-41.16,18.873-41.16,41.52
		C853.527,578.876,872.041,597.389,894.688,597.389z"/>
</g>
</svg>
