<?xml version="1.0" encoding="UTF-8"?>
<svg id="Layer_1" xmlns="http://www.w3.org/2000/svg" xmlns:xlink="http://www.w3.org/1999/xlink" version="1.1" viewBox="0 0 2410.871 601.913">
  <!-- Generator: Adobe Illustrator 30.2.1, SVG Export Plug-In . SVG Version: 2.1.1 Build 1)  -->
  <defs>
    <style>
      .st0 {
        fill: none;
      }

      .st1 {
        fill: #010101;
      }

      .st2 {
        fill: #fff;
      }

      .st3 {
        clip-path: url(#clippath);
      }
    </style>
    <clipPath id="clippath">
      <rect class="st0" width="601.913" height="601.913"/>
    </clipPath>
  </defs>
  <g>
    <g class="st3">
      <path class="st1" d="M300.952,601.904c166.214,0,300.952-134.738,300.952-300.952S467.175,0,300.952,0,0,134.738,0,300.952s134.738,300.952,300.952,300.952"/>
    </g>
    <g>
      <path class="st2" d="M314.369,155.17c-29.435,97.139-130.653,181.838-233.239,170.242-14.98-2.849-15.835-16.261-12.236-28.933,23.101-96.762,117.137-168.84,214.474-165.798,17.084.045,35.123,2.145,31,24.49Z"/>
      <path class="st2" d="M340.148,160.133c-6.843,101.488,57.611,218.081,157.319,245.43,14.968,2.917,20.498-9.266,21.614-22.417,12.614-98.781-49.599-200.939-141.397-234.309-15.939-6.313-33.493-11.065-37.536,11.296Z"/>
      <path class="st2" d="M379.81,107.191c1.333-32.496-65.542-48.978-81.094-18.531-2.789,5.462-.055,12.125,5.404,13.575,20.183,5.358,43.851,8.739,64.239,14.281,5.565,1.51,11.193-3.065,11.451-9.325Z"/>
      <path class="st2" d="M362.941,348.374c-36.229,208.933-177.242,177.157-136.563-26.705,34.512-21.774,64.004-50.731,85.901-84.354,8.594,39.673,25.977,77.818,50.662,111.059Z"/>
    </g>
  </g>
  <g>
    <path d="M721.123,196.173c0-3.166,2.532-6.015,6.015-6.015h128.844c3.481,0,6.015,2.849,6.015,6.015v25.958c0,3.166-2.533,6.015-6.015,6.015h-93.704v59.516h78.192c3.166,0,6.015,2.849,6.015,6.015v25.959c0,3.165-2.849,6.015-6.015,6.015h-78.192v80.091c0,3.166-2.85,6.015-6.015,6.015h-29.125c-3.483,0-6.015-2.849-6.015-6.015v-209.568Z"/>
    <path d="M931.313,254.104l-27.858,6.015c-2.849.633-6.015-1.266-6.331-4.115l-1.899-15.512c-.316-2.532.316-4.432,1.583-5.697l45.585-38.305h22.16c3.166,0,5.698,2.849,5.698,6.015v203.236c0,3.166-2.532,6.015-5.698,6.015h-27.224c-3.483,0-6.015-2.849-6.015-6.015v-151.636Z"/>
    <path d="M1044.32,196.173c0-3.166,2.532-6.015,6.015-6.015h90.539c37.988,0,69.012,30.391,69.012,68.061,0,29.125-19.311,52.867-46.852,63.947l43.369,80.407c2.216,4.117,0,9.181-5.381,9.181h-33.24c-2.849,0-4.432-1.583-5.064-2.849l-42.104-83.891h-35.139v80.725c0,3.166-2.85,6.015-6.015,6.015h-29.125c-3.483,0-6.015-2.849-6.015-6.015v-209.568ZM1137.391,291.142c16.778,0,31.341-14.562,31.341-32.289,0-16.779-14.563-30.708-31.341-30.708h-51.6v62.997h51.6Z"/>
    <path d="M1253.874,378.832l16.145-15.512c2.849-2.532,5.698-2.532,8.231,0,.949,1.267,19.628,17.095,38.938,17.095,17.094,0,33.557-12.347,33.557-29.758,0-16.461-15.196-31.341-43.687-31.341h-17.728c-3.481,0-6.015-2.532-6.015-6.331v-19.944c0-4.115,2.216-6.331,6.015-6.331h17.728c25.959,0,39.254-12.979,39.254-29.124,0-17.412-14.562-29.124-30.707-29.124-16.461,0-26.592,8.863-31.974,15.195-2.216,2.532-5.697,2.849-8.547.316l-15.511-14.562c-2.533-2.216-2.216-6.015,0-8.231,0,0,24.058-27.858,59.514-27.858,36.722,0,67.429,22.476,67.429,57.932,0,24.376-18.361,42.737-32.606,49.384v.95c14.878,6.331,38.305,23.425,38.305,51.6,0,35.773-29.124,61.731-72.811,61.731-39.57,0-58.882-19.944-65.846-28.175-1.899-2.216-1.583-5.698.316-7.914Z"/>
    <path d="M1452.033,196.173c0-3.166,2.532-6.015,6.015-6.015h128.844c3.483,0,6.014,2.849,6.014,6.015v25.958c0,3.166-2.531,6.015-6.014,6.015h-93.704v59.516h78.192c3.166,0,6.016,2.849,6.016,6.015v25.959c0,3.165-2.85,6.015-6.016,6.015h-78.192v80.091c0,3.166-2.85,6.015-6.015,6.015h-29.125c-3.483,0-6.015-2.849-6.015-6.015v-209.568Z"/>
    <path d="M1646.395,196.173c0-3.166,2.533-6.015,6.016-6.015h29.124c3.166,0,6.014,2.849,6.014,6.015v177.594h80.725c3.483,0,6.016,2.85,6.016,6.015v25.959c0,3.166-2.533,6.015-6.016,6.015h-115.862c-3.483,0-6.016-2.849-6.016-6.015v-209.568Z"/>
    <path d="M1848.991,305.071l-72.178-105.733c-2.533-4.115,0-9.18,5.064-9.18h32.29c2.533,0,4.115,1.582,5.064,2.849l50.652,72.811,50.65-72.811c.949-1.267,2.533-2.849,5.064-2.849h32.609c5.064,0,7.596,5.064,5.064,9.18l-73.127,105.417v100.985c0,3.166-2.85,6.015-6.016,6.015h-29.124c-3.483,0-6.014-2.849-6.014-6.015v-100.669Z"/>
    <path d="M2004.732,362.687c14.247,0,26.276,12.03,26.276,26.275s-12.03,25.959-26.276,25.959-25.958-11.713-25.958-25.959,11.713-26.275,25.958-26.275Z"/>
    <path d="M2084.184,196.173c0-3.166,2.85-6.015,6.016-6.015h29.44c3.166,0,6.014,2.849,6.014,6.015v209.568c0,3.166-2.847,6.015-6.014,6.015h-29.44c-3.166,0-6.016-2.849-6.016-6.015v-209.568Z"/>
    <path d="M2296.907,186.992c63.315,0,113.964,50.967,113.964,114.281s-50.65,113.649-113.964,113.649-113.648-50.335-113.648-113.649,50.336-114.281,113.648-114.281ZM2296.907,373.767c39.888,0,72.811-32.606,72.811-72.494s-32.923-73.127-72.811-73.127-72.494,33.24-72.494,73.127,32.606,72.494,72.494,72.494Z"/>
  </g>
</svg>