<?xml version="1.0" encoding="utf-8"?>
<!-- Generator: Adobe Illustrator 30.2.1, SVG Export Plug-In . SVG Version: 9.03 Build 0)  -->
<svg version="1.1" id="Layer_1" xmlns="http://www.w3.org/2000/svg" xmlns:xlink="http://www.w3.org/1999/xlink" x="0px" y="0px"
	 viewBox="0 0 1459.957 1071.709" style="enable-background:new 0 0 1459.957 1071.709;" xml:space="preserve">
<style type="text/css">
	.st0{fill:#FFFFFF;}
</style>
<g>
	<path class="st0" d="M762.902,132.929c-47.372,156.33-210.267,292.64-375.363,273.978c-24.109-4.585-25.485-26.17-19.691-46.564
		C405.025,204.618,556.362,88.62,713.012,93.516C740.506,93.588,769.537,96.967,762.902,132.929L762.902,132.929z"/>
	<path class="st0" d="M804.39,140.916c-11.012,163.33,92.716,350.969,253.182,394.983c24.089,4.694,32.988-14.913,34.785-36.076
		c20.301-158.974-79.822-323.382-227.558-377.085c-25.651-10.16-53.903-17.807-60.409,18.179L804.39,140.916z"/>
	<path class="st0" d="M868.22,55.715c2.146-52.298-105.48-78.823-130.509-29.823c-4.488,8.79-0.089,19.513,8.697,21.846
		c32.482,8.623,70.572,14.065,103.384,22.983C858.748,73.15,867.805,65.788,868.22,55.715L868.22,55.715z"/>
	<path class="st0" d="M841.071,443.862c-58.306,336.246-285.244,285.108-219.777-42.978
		c55.542-35.042,103.005-81.643,138.244-135.754c13.831,63.848,41.806,125.236,81.533,178.733L841.071,443.862z"/>
</g>
<g>
	<path class="st0" d="M0,882.708c0-2.736,2.188-5.197,5.197-5.197h111.322c3.008,0,5.197,2.461,5.197,5.197v22.428
		c0,2.736-2.189,5.197-5.197,5.197H35.558v51.422h67.558c2.736,0,5.197,2.461,5.197,5.197v22.429c0,2.735-2.461,5.197-5.197,5.197
		H35.558v69.199c0,2.736-2.462,5.197-5.197,5.197H5.197c-3.009,0-5.197-2.461-5.197-5.197V882.709V882.708z"/>
	<path class="st0" d="M181.607,932.761l-24.07,5.197c-2.461,0.547-5.197-1.093-5.47-3.556l-1.641-13.403
		c-0.273-2.188,0.273-3.829,1.368-4.922l39.386-33.096h19.146c2.736,0,4.924,2.461,4.924,5.197v175.598
		c0,2.736-2.188,5.197-4.924,5.197h-23.522c-3.009,0-5.197-2.461-5.197-5.197L181.607,932.761L181.607,932.761z"/>
	<path class="st0" d="M279.245,882.708c0-2.736,2.188-5.197,5.197-5.197h78.226c32.822,0,59.627,26.258,59.627,58.806
		c0,25.164-16.685,45.677-40.48,55.251l37.471,69.473c1.915,3.557,0,7.932-4.649,7.932h-28.72c-2.461,0-3.829-1.368-4.376-2.461
		l-36.378-72.483h-30.36v69.747c0,2.736-2.462,5.197-5.197,5.197h-25.164c-3.009,0-5.197-2.461-5.197-5.197V882.708L279.245,882.708
		z M359.659,964.763c14.496,0,27.079-12.582,27.079-27.898c0-14.497-12.583-26.532-27.079-26.532h-44.583v54.43H359.659z"/>
	<path class="st0" d="M460.302,1040.528l13.949-13.403c2.461-2.188,4.924-2.188,7.111,0c0.82,1.094,16.958,14.771,33.642,14.771
		c14.769,0,28.993-10.668,28.993-25.711c0-14.223-13.129-27.079-37.746-27.079h-15.317c-3.008,0-5.197-2.188-5.197-5.47v-17.232
		c0-3.556,1.915-5.47,5.197-5.47h15.317c22.429,0,33.916-11.214,33.916-25.163c0-15.044-12.582-25.163-26.531-25.163
		c-14.223,0-22.975,7.658-27.626,13.128c-1.915,2.188-4.922,2.461-7.385,0.273l-13.402-12.582c-2.189-1.915-1.915-5.197,0-7.111
		c0,0,20.786-24.07,51.421-24.07c31.728,0,58.259,19.42,58.259,50.054c0,21.061-15.864,36.925-28.172,42.668v0.821
		c12.855,5.47,33.096,20.24,33.096,44.583c0,30.908-25.163,53.336-62.909,53.336c-34.189,0-50.874-17.232-56.891-24.343
		c-1.641-1.915-1.368-4.924,0.273-6.838L460.302,1040.528z"/>
	<path class="st0" d="M631.513,882.708c0-2.736,2.188-5.197,5.197-5.197h111.322c3.009,0,5.196,2.461,5.196,5.197v22.428
		c0,2.736-2.187,5.197-5.196,5.197h-80.961v51.422h67.558c2.736,0,5.198,2.461,5.198,5.197v22.429c0,2.735-2.462,5.197-5.198,5.197
		h-67.558v69.199c0,2.736-2.462,5.197-5.197,5.197H636.71c-3.009,0-5.197-2.461-5.197-5.197V882.709V882.708z"/>
	<path class="st0" d="M799.443,882.708c0-2.736,2.189-5.197,5.198-5.197h25.163c2.736,0,5.196,2.461,5.196,5.197v153.443h69.747
		c3.009,0,5.198,2.462,5.198,5.197v22.429c0,2.736-2.189,5.197-5.198,5.197H804.641c-3.009,0-5.198-2.461-5.198-5.197V882.708
		L799.443,882.708z"/>
	<path class="st0" d="M974.488,976.798l-62.362-91.355c-2.189-3.556,0-7.931,4.376-7.931h27.899c2.189,0,3.556,1.367,4.376,2.461
		l43.764,62.909l43.762-62.909c0.82-1.094,2.189-2.461,4.376-2.461h28.174c4.376,0,6.563,4.376,4.376,7.931l-63.182,91.081v87.252
		c0,2.736-2.462,5.197-5.198,5.197h-25.163c-3.009,0-5.196-2.461-5.196-5.197v-86.979L974.488,976.798z"/>
	<path class="st0" d="M1109.05,1026.578c12.309,0,22.703,10.394,22.703,22.702s-10.394,22.429-22.703,22.429
		s-22.428-10.12-22.428-22.429S1096.742,1026.578,1109.05,1026.578z"/>
	<path class="st0" d="M1177.697,882.708c0-2.736,2.462-5.197,5.198-5.197h25.437c2.736,0,5.196,2.461,5.196,5.197v181.068
		c0,2.736-2.46,5.197-5.196,5.197h-25.437c-2.736,0-5.198-2.461-5.198-5.197V882.708z"/>
	<path class="st0" d="M1361.491,874.776c54.704,0,98.466,44.036,98.466,98.739s-43.762,98.194-98.466,98.194
		s-98.193-43.489-98.193-98.194S1306.789,874.776,1361.491,874.776z M1361.491,1036.151c34.464,0,62.909-28.172,62.909-62.636
		s-28.446-63.182-62.909-63.182s-62.636,28.72-62.636,63.182S1327.027,1036.151,1361.491,1036.151z"/>
</g>
</svg>
